ISO-10303-21;
HEADER;
/* Generated by software containing ST-Developer
 * from STEP Tools, Inc. (www.steptools.com) 
 */

FILE_DESCRIPTION(
/* description */ (''),
/* implementation_level */ '2;1');

FILE_NAME(
/* name */ '',
/* time_stamp */ '2026-06-26T13:13:02+02:00',
/* author */ ('karol'),
/* organization */ (''),
/* preprocessor_version */ 'ST-DEVELOPER v20.1',
/* originating_system */ 'Autodesk Inventor 2026',
/* authorisation */ '');

FILE_SCHEMA (('AUTOMOTIVE_DESIGN { 1 0 10303 214 3 1 1 }'));
ENDSEC;

DATA;
#10=MECHANICAL_DESIGN_GEOMETRIC_PRESENTATION_REPRESENTATION('',(#13),#381);
#11=SHAPE_REPRESENTATION_RELATIONSHIP('SRR','None',#388,#12);
#12=ADVANCED_BREP_SHAPE_REPRESENTATION('',(#14),#380);
#13=STYLED_ITEM('',(#397),#14);
#14=MANIFOLD_SOLID_BREP('Bry\X2\0142\X0\a1',#220);
#15=FACE_BOUND('',#46,.T.);
#16=FACE_BOUND('',#47,.T.);
#17=FACE_BOUND('',#48,.T.);
#18=FACE_BOUND('',#49,.T.);
#19=FACE_BOUND('',#54,.T.);
#20=FACE_BOUND('',#55,.T.);
#21=FACE_BOUND('',#56,.T.);
#22=FACE_BOUND('',#57,.T.);
#23=PLANE('',#255);
#24=PLANE('',#256);
#25=PLANE('',#257);
#26=PLANE('',#258);
#27=PLANE('',#259);
#28=PLANE('',#260);
#29=PLANE('',#261);
#30=FACE_OUTER_BOUND('',#41,.T.);
#31=FACE_OUTER_BOUND('',#42,.T.);
#32=FACE_OUTER_BOUND('',#43,.T.);
#33=FACE_OUTER_BOUND('',#44,.T.);
#34=FACE_OUTER_BOUND('',#45,.T.);
#35=FACE_OUTER_BOUND('',#50,.T.);
#36=FACE_OUTER_BOUND('',#51,.T.);
#37=FACE_OUTER_BOUND('',#52,.T.);
#38=FACE_OUTER_BOUND('',#53,.T.);
#39=FACE_OUTER_BOUND('',#58,.T.);
#40=FACE_OUTER_BOUND('',#59,.T.);
#41=EDGE_LOOP('',(#151,#152,#153,#154));
#42=EDGE_LOOP('',(#155,#156,#157,#158));
#43=EDGE_LOOP('',(#159,#160,#161,#162));
#44=EDGE_LOOP('',(#163,#164,#165,#166));
#45=EDGE_LOOP('',(#167,#168,#169,#170));
#46=EDGE_LOOP('',(#171));
#47=EDGE_LOOP('',(#172));
#48=EDGE_LOOP('',(#173));
#49=EDGE_LOOP('',(#174));
#50=EDGE_LOOP('',(#175,#176,#177,#178));
#51=EDGE_LOOP('',(#179,#180,#181,#182));
#52=EDGE_LOOP('',(#183,#184,#185,#186,#187));
#53=EDGE_LOOP('',(#188,#189,#190,#191));
#54=EDGE_LOOP('',(#192));
#55=EDGE_LOOP('',(#193));
#56=EDGE_LOOP('',(#194));
#57=EDGE_LOOP('',(#195));
#58=EDGE_LOOP('',(#196,#197,#198,#199));
#59=EDGE_LOOP('',(#200,#201,#202,#203,#204));
#60=LINE('',#326,#79);
#61=LINE('',#332,#80);
#62=LINE('',#338,#81);
#63=LINE('',#344,#82);
#64=LINE('',#349,#83);
#65=LINE('',#351,#84);
#66=LINE('',#353,#85);
#67=LINE('',#354,#86);
#68=LINE('',#357,#87);
#69=LINE('',#359,#88);
#70=LINE('',#360,#89);
#71=LINE('',#363,#90);
#72=LINE('',#365,#91);
#73=LINE('',#366,#92);
#74=LINE('',#369,#93);
#75=LINE('',#370,#94);
#76=LINE('',#373,#95);
#77=LINE('',#374,#96);
#78=LINE('',#376,#97);
#79=VECTOR('',#268,1.25);
#80=VECTOR('',#275,1.25);
#81=VECTOR('',#282,1.25);
#82=VECTOR('',#289,1.25);
#83=VECTOR('',#294,10.);
#84=VECTOR('',#295,10.);
#85=VECTOR('',#296,10.);
#86=VECTOR('',#297,10.);
#87=VECTOR('',#300,10.);
#88=VECTOR('',#301,10.);
#89=VECTOR('',#302,10.);
#90=VECTOR('',#305,10.);
#91=VECTOR('',#306,10.);
#92=VECTOR('',#307,10.);
#93=VECTOR('',#310,10.);
#94=VECTOR('',#311,10.);
#95=VECTOR('',#314,10.);
#96=VECTOR('',#315,10.);
#97=VECTOR('',#318,10.);
#98=CIRCLE('',#244,1.25);
#99=CIRCLE('',#245,1.25);
#100=CIRCLE('',#247,1.25);
#101=CIRCLE('',#248,1.25);
#102=CIRCLE('',#250,1.25);
#103=CIRCLE('',#251,1.25);
#104=CIRCLE('',#253,1.25);
#105=CIRCLE('',#254,1.25);
#106=VERTEX_POINT('',#323);
#107=VERTEX_POINT('',#325);
#108=VERTEX_POINT('',#329);
#109=VERTEX_POINT('',#331);
#110=VERTEX_POINT('',#335);
#111=VERTEX_POINT('',#337);
#112=VERTEX_POINT('',#341);
#113=VERTEX_POINT('',#343);
#114=VERTEX_POINT('',#347);
#115=VERTEX_POINT('',#348);
#116=VERTEX_POINT('',#350);
#117=VERTEX_POINT('',#352);
#118=VERTEX_POINT('',#356);
#119=VERTEX_POINT('',#358);
#120=VERTEX_POINT('',#362);
#121=VERTEX_POINT('',#364);
#122=VERTEX_POINT('',#368);
#123=VERTEX_POINT('',#372);
#124=EDGE_CURVE('',#106,#106,#98,.T.);
#125=EDGE_CURVE('',#106,#107,#60,.T.);
#126=EDGE_CURVE('',#107,#107,#99,.T.);
#127=EDGE_CURVE('',#108,#108,#100,.T.);
#128=EDGE_CURVE('',#108,#109,#61,.T.);
#129=EDGE_CURVE('',#109,#109,#101,.T.);
#130=EDGE_CURVE('',#110,#110,#102,.T.);
#131=EDGE_CURVE('',#110,#111,#62,.T.);
#132=EDGE_CURVE('',#111,#111,#103,.T.);
#133=EDGE_CURVE('',#112,#112,#104,.T.);
#134=EDGE_CURVE('',#112,#113,#63,.T.);
#135=EDGE_CURVE('',#113,#113,#105,.T.);
#136=EDGE_CURVE('',#114,#115,#64,.T.);
#137=EDGE_CURVE('',#114,#116,#65,.T.);
#138=EDGE_CURVE('',#117,#116,#66,.T.);
#139=EDGE_CURVE('',#115,#117,#67,.T.);
#140=EDGE_CURVE('',#118,#117,#68,.T.);
#141=EDGE_CURVE('',#116,#119,#69,.T.);
#142=EDGE_CURVE('',#119,#118,#70,.T.);
#143=EDGE_CURVE('',#120,#115,#71,.T.);
#144=EDGE_CURVE('',#120,#121,#72,.T.);
#145=EDGE_CURVE('',#114,#121,#73,.T.);
#146=EDGE_CURVE('',#118,#122,#74,.T.);
#147=EDGE_CURVE('',#122,#120,#75,.T.);
#148=EDGE_CURVE('',#123,#119,#76,.T.);
#149=EDGE_CURVE('',#122,#123,#77,.T.);
#150=EDGE_CURVE('',#121,#123,#78,.T.);
#151=ORIENTED_EDGE('',*,*,#124,.F.);
#152=ORIENTED_EDGE('',*,*,#125,.T.);
#153=ORIENTED_EDGE('',*,*,#126,.F.);
#154=ORIENTED_EDGE('',*,*,#125,.F.);
#155=ORIENTED_EDGE('',*,*,#127,.F.);
#156=ORIENTED_EDGE('',*,*,#128,.T.);
#157=ORIENTED_EDGE('',*,*,#129,.F.);
#158=ORIENTED_EDGE('',*,*,#128,.F.);
#159=ORIENTED_EDGE('',*,*,#130,.F.);
#160=ORIENTED_EDGE('',*,*,#131,.T.);
#161=ORIENTED_EDGE('',*,*,#132,.F.);
#162=ORIENTED_EDGE('',*,*,#131,.F.);
#163=ORIENTED_EDGE('',*,*,#133,.F.);
#164=ORIENTED_EDGE('',*,*,#134,.T.);
#165=ORIENTED_EDGE('',*,*,#135,.F.);
#166=ORIENTED_EDGE('',*,*,#134,.F.);
#167=ORIENTED_EDGE('',*,*,#136,.F.);
#168=ORIENTED_EDGE('',*,*,#137,.T.);
#169=ORIENTED_EDGE('',*,*,#138,.F.);
#170=ORIENTED_EDGE('',*,*,#139,.F.);
#171=ORIENTED_EDGE('',*,*,#124,.T.);
#172=ORIENTED_EDGE('',*,*,#127,.T.);
#173=ORIENTED_EDGE('',*,*,#130,.T.);
#174=ORIENTED_EDGE('',*,*,#133,.T.);
#175=ORIENTED_EDGE('',*,*,#140,.T.);
#176=ORIENTED_EDGE('',*,*,#138,.T.);
#177=ORIENTED_EDGE('',*,*,#141,.T.);
#178=ORIENTED_EDGE('',*,*,#142,.T.);
#179=ORIENTED_EDGE('',*,*,#136,.T.);
#180=ORIENTED_EDGE('',*,*,#143,.F.);
#181=ORIENTED_EDGE('',*,*,#144,.T.);
#182=ORIENTED_EDGE('',*,*,#145,.F.);
#183=ORIENTED_EDGE('',*,*,#143,.T.);
#184=ORIENTED_EDGE('',*,*,#139,.T.);
#185=ORIENTED_EDGE('',*,*,#140,.F.);
#186=ORIENTED_EDGE('',*,*,#146,.T.);
#187=ORIENTED_EDGE('',*,*,#147,.T.);
#188=ORIENTED_EDGE('',*,*,#146,.F.);
#189=ORIENTED_EDGE('',*,*,#142,.F.);
#190=ORIENTED_EDGE('',*,*,#148,.F.);
#191=ORIENTED_EDGE('',*,*,#149,.F.);
#192=ORIENTED_EDGE('',*,*,#126,.T.);
#193=ORIENTED_EDGE('',*,*,#129,.T.);
#194=ORIENTED_EDGE('',*,*,#132,.T.);
#195=ORIENTED_EDGE('',*,*,#135,.T.);
#196=ORIENTED_EDGE('',*,*,#147,.F.);
#197=ORIENTED_EDGE('',*,*,#149,.T.);
#198=ORIENTED_EDGE('',*,*,#150,.F.);
#199=ORIENTED_EDGE('',*,*,#144,.F.);
#200=ORIENTED_EDGE('',*,*,#145,.T.);
#201=ORIENTED_EDGE('',*,*,#150,.T.);
#202=ORIENTED_EDGE('',*,*,#148,.T.);
#203=ORIENTED_EDGE('',*,*,#141,.F.);
#204=ORIENTED_EDGE('',*,*,#137,.F.);
#205=CYLINDRICAL_SURFACE('',#243,1.25);
#206=CYLINDRICAL_SURFACE('',#246,1.25);
#207=CYLINDRICAL_SURFACE('',#249,1.25);
#208=CYLINDRICAL_SURFACE('',#252,1.25);
#209=ADVANCED_FACE('',(#30),#205,.F.);
#210=ADVANCED_FACE('',(#31),#206,.F.);
#211=ADVANCED_FACE('',(#32),#207,.F.);
#212=ADVANCED_FACE('',(#33),#208,.F.);
#213=ADVANCED_FACE('',(#34,#15,#16,#17,#18),#23,.T.);
#214=ADVANCED_FACE('',(#35),#24,.T.);
#215=ADVANCED_FACE('',(#36),#25,.T.);
#216=ADVANCED_FACE('',(#37),#26,.T.);
#217=ADVANCED_FACE('',(#38,#19,#20,#21,#22),#27,.T.);
#218=ADVANCED_FACE('',(#39),#28,.T.);
#219=ADVANCED_FACE('',(#40),#29,.T.);
#220=CLOSED_SHELL('',(#209,#210,#211,#212,#213,#214,#215,#216,#217,#218,
#219));
#221=DERIVED_UNIT_ELEMENT(#224,1.);
#222=DERIVED_UNIT_ELEMENT(#383,-3.);
#223=DIMENSIONAL_EXPONENTS(0.,1.,0.,0.,0.,0.,0.);
#224=(
CONVERSION_BASED_UNIT('gram',#226)
MASS_UNIT()
NAMED_UNIT(#223)
);
#225=(
MASS_UNIT()
NAMED_UNIT(*)
SI_UNIT(.KILO.,.GRAM.)
);
#226=MASS_MEASURE_WITH_UNIT(MASS_MEASURE(0.001),#225);
#227=DERIVED_UNIT((#221,#222));
#228=MEASURE_REPRESENTATION_ITEM('density measure',
POSITIVE_RATIO_MEASURE(1.),#227);
#229=PROPERTY_DEFINITION_REPRESENTATION(#234,#231);
#230=PROPERTY_DEFINITION_REPRESENTATION(#235,#232);
#231=REPRESENTATION('material name',(#233),#380);
#232=REPRESENTATION('density',(#228),#380);
#233=DESCRIPTIVE_REPRESENTATION_ITEM('Generic','Generic');
#234=PROPERTY_DEFINITION('material property','material name',#390);
#235=PROPERTY_DEFINITION('material property','density of part',#390);
#236=DATE_TIME_ROLE('creation_date');
#237=APPLIED_DATE_AND_TIME_ASSIGNMENT(#238,#236,(#390));
#238=DATE_AND_TIME(#239,#240);
#239=CALENDAR_DATE(2026,9,5);
#240=LOCAL_TIME(0,0,0.,#241);
#241=COORDINATED_UNIVERSAL_TIME_OFFSET(0,0,.BEHIND.);
#242=AXIS2_PLACEMENT_3D('',#321,#262,#263);
#243=AXIS2_PLACEMENT_3D('',#322,#264,#265);
#244=AXIS2_PLACEMENT_3D('',#324,#266,#267);
#245=AXIS2_PLACEMENT_3D('',#327,#269,#270);
#246=AXIS2_PLACEMENT_3D('',#328,#271,#272);
#247=AXIS2_PLACEMENT_3D('',#330,#273,#274);
#248=AXIS2_PLACEMENT_3D('',#333,#276,#277);
#249=AXIS2_PLACEMENT_3D('',#334,#278,#279);
#250=AXIS2_PLACEMENT_3D('',#336,#280,#281);
#251=AXIS2_PLACEMENT_3D('',#339,#283,#284);
#252=AXIS2_PLACEMENT_3D('',#340,#285,#286);
#253=AXIS2_PLACEMENT_3D('',#342,#287,#288);
#254=AXIS2_PLACEMENT_3D('',#345,#290,#291);
#255=AXIS2_PLACEMENT_3D('',#346,#292,#293);
#256=AXIS2_PLACEMENT_3D('',#355,#298,#299);
#257=AXIS2_PLACEMENT_3D('',#361,#303,#304);
#258=AXIS2_PLACEMENT_3D('',#367,#308,#309);
#259=AXIS2_PLACEMENT_3D('',#371,#312,#313);
#260=AXIS2_PLACEMENT_3D('',#375,#316,#317);
#261=AXIS2_PLACEMENT_3D('',#377,#319,#320);
#262=DIRECTION('axis',(0.,0.,1.));
#263=DIRECTION('refdir',(1.,0.,0.));
#264=DIRECTION('center_axis',(0.,-1.,0.));
#265=DIRECTION('ref_axis',(1.,0.,0.));
#266=DIRECTION('center_axis',(0.,-1.,0.));
#267=DIRECTION('ref_axis',(1.,0.,0.));
#268=DIRECTION('',(0.,-1.,0.));
#269=DIRECTION('center_axis',(0.,1.,0.));
#270=DIRECTION('ref_axis',(1.,0.,0.));
#271=DIRECTION('center_axis',(0.,-1.,0.));
#272=DIRECTION('ref_axis',(1.,0.,0.));
#273=DIRECTION('center_axis',(0.,-1.,0.));
#274=DIRECTION('ref_axis',(1.,0.,0.));
#275=DIRECTION('',(0.,-1.,0.));
#276=DIRECTION('center_axis',(0.,1.,0.));
#277=DIRECTION('ref_axis',(1.,0.,0.));
#278=DIRECTION('center_axis',(0.,-1.,0.));
#279=DIRECTION('ref_axis',(1.,0.,0.));
#280=DIRECTION('center_axis',(0.,-1.,0.));
#281=DIRECTION('ref_axis',(1.,0.,0.));
#282=DIRECTION('',(0.,-1.,0.));
#283=DIRECTION('center_axis',(0.,1.,0.));
#284=DIRECTION('ref_axis',(1.,0.,0.));
#285=DIRECTION('center_axis',(0.,-1.,0.));
#286=DIRECTION('ref_axis',(1.,0.,0.));
#287=DIRECTION('center_axis',(0.,-1.,0.));
#288=DIRECTION('ref_axis',(1.,0.,0.));
#289=DIRECTION('',(0.,-1.,0.));
#290=DIRECTION('center_axis',(0.,1.,0.));
#291=DIRECTION('ref_axis',(1.,0.,0.));
#292=DIRECTION('center_axis',(0.,1.,0.));
#293=DIRECTION('ref_axis',(0.,0.,-1.));
#294=DIRECTION('',(0.,0.,1.));
#295=DIRECTION('',(-1.,0.,0.));
#296=DIRECTION('',(0.,0.,-1.));
#297=DIRECTION('',(-1.,0.,0.));
#298=DIRECTION('center_axis',(-1.,0.,0.));
#299=DIRECTION('ref_axis',(0.,0.,1.));
#300=DIRECTION('',(0.,1.,0.));
#301=DIRECTION('',(0.,-1.,0.));
#302=DIRECTION('',(0.,0.,1.));
#303=DIRECTION('center_axis',(-1.,0.,0.));
#304=DIRECTION('ref_axis',(0.,1.,0.));
#305=DIRECTION('',(0.,-1.,0.));
#306=DIRECTION('',(-2.31540775790395E-16,0.,-1.));
#307=DIRECTION('',(0.,1.,0.));
#308=DIRECTION('center_axis',(-1.21363216187848E-30,0.,1.));
#309=DIRECTION('ref_axis',(1.,0.,1.21363216187848E-30));
#310=DIRECTION('',(1.,0.,1.21363216187848E-30));
#311=DIRECTION('',(-0.832050294337844,0.554700196225229,-1.00980299750886E-30));
#312=DIRECTION('center_axis',(0.,-1.,0.));
#313=DIRECTION('ref_axis',(-1.,0.,-1.21363216187848E-30));
#314=DIRECTION('',(-1.,0.,-1.21363216187848E-30));
#315=DIRECTION('',(0.,0.,-1.));
#316=DIRECTION('center_axis',(0.554700196225229,0.832050294337844,0.));
#317=DIRECTION('ref_axis',(0.832050294337844,-0.554700196225229,1.00980299750886E-30));
#318=DIRECTION('',(0.832050294337844,-0.554700196225229,1.00980299750886E-30));
#319=DIRECTION('center_axis',(0.,0.,-1.));
#320=DIRECTION('ref_axis',(-1.,0.,0.));
#321=CARTESIAN_POINT('',(0.,0.,0.));
#322=CARTESIAN_POINT('Origin',(-3.25000000000003,0.,-116.5));
#323=CARTESIAN_POINT('',(-4.50000000000003,0.,-116.5));
#324=CARTESIAN_POINT('Origin',(-3.25000000000003,0.,-116.5));
#325=CARTESIAN_POINT('',(-4.50000000000003,-2.,-116.5));
#326=CARTESIAN_POINT('',(-4.50000000000003,0.,-116.5));
#327=CARTESIAN_POINT('Origin',(-3.25000000000003,-2.,-116.5));
#328=CARTESIAN_POINT('Origin',(-3.25000000000002,0.,-33.5));
#329=CARTESIAN_POINT('',(-4.50000000000002,0.,-33.5));
#330=CARTESIAN_POINT('Origin',(-3.25000000000002,0.,-33.5));
#331=CARTESIAN_POINT('',(-4.50000000000002,-2.,-33.5));
#332=CARTESIAN_POINT('',(-4.50000000000002,0.,-33.5));
#333=CARTESIAN_POINT('Origin',(-3.25000000000002,-2.,-33.5));
#334=CARTESIAN_POINT('Origin',(-3.25000000000003,0.,-139.));
#335=CARTESIAN_POINT('',(-4.50000000000004,0.,-139.));
#336=CARTESIAN_POINT('Origin',(-3.25000000000003,0.,-139.));
#337=CARTESIAN_POINT('',(-4.50000000000004,-2.,-139.));
#338=CARTESIAN_POINT('',(-4.50000000000004,0.,-139.));
#339=CARTESIAN_POINT('Origin',(-3.25000000000003,-2.,-139.));
#340=CARTESIAN_POINT('Origin',(-3.25000000000003,0.,-11.));
#341=CARTESIAN_POINT('',(-4.50000000000003,0.,-11.));
#342=CARTESIAN_POINT('Origin',(-3.25000000000003,0.,-11.));
#343=CARTESIAN_POINT('',(-4.50000000000003,-2.,-11.));
#344=CARTESIAN_POINT('',(-4.50000000000003,0.,-11.));
#345=CARTESIAN_POINT('Origin',(-3.25000000000003,-2.,-11.));
#346=CARTESIAN_POINT('Origin',(-3.44169137633799E-14,0.,0.));
#347=CARTESIAN_POINT('',(-3.44169137633799E-14,0.,-150.));
#348=CARTESIAN_POINT('',(-3.44169137633799E-14,0.,0.));
#349=CARTESIAN_POINT('',(-3.44169137633799E-14,0.,-2.05815711947708E-44));
#350=CARTESIAN_POINT('',(-6.50000000000003,0.,-150.));
#351=CARTESIAN_POINT('',(-3.44169137633799E-14,0.,-150.));
#352=CARTESIAN_POINT('',(-6.50000000000003,0.,0.));
#353=CARTESIAN_POINT('',(-6.50000000000003,0.,0.));
#354=CARTESIAN_POINT('',(-3.44169137633799E-14,0.,0.));
#355=CARTESIAN_POINT('Origin',(-6.50000000000003,-1.,-75.));
#356=CARTESIAN_POINT('',(-6.50000000000003,-2.,0.));
#357=CARTESIAN_POINT('',(-6.50000000000003,-2.,0.));
#358=CARTESIAN_POINT('',(-6.50000000000003,-2.,-150.));
#359=CARTESIAN_POINT('',(-6.50000000000003,2.,-150.));
#360=CARTESIAN_POINT('',(-6.50000000000003,-2.,-150.));
#361=CARTESIAN_POINT('Origin',(-3.44169137633799E-14,-2.,-4.11631423895415E-44));
#362=CARTESIAN_POINT('',(0.,2.,0.));
#363=CARTESIAN_POINT('',(-3.44169137633799E-14,0.5,0.));
#364=CARTESIAN_POINT('',(-3.47311163685592E-14,2.,-150.));
#365=CARTESIAN_POINT('',(0.,2.,0.));
#366=CARTESIAN_POINT('',(-3.44169137633799E-14,0.5,-150.));
#367=CARTESIAN_POINT('Origin',(-6.5,0.,-7.88860905221012E-30));
#368=CARTESIAN_POINT('',(5.99999999999997,-2.,7.28179297127083E-30));
#369=CARTESIAN_POINT('',(-3.44169137633799E-14,-2.,-4.11631423895415E-44));
#370=CARTESIAN_POINT('',(5.99999999999997,-2.,7.28179297127083E-30));
#371=CARTESIAN_POINT('Origin',(5.99999999999997,-2.,7.28179297127083E-30));
#372=CARTESIAN_POINT('',(5.99999999999997,-2.,-150.));
#373=CARTESIAN_POINT('',(-3.44169137633799E-14,-2.,-150.));
#374=CARTESIAN_POINT('',(5.99999999999997,-2.,7.28179297127083E-30));
#375=CARTESIAN_POINT('Origin',(-3.5527136788005E-14,2.,-4.29147654699475E-44));
#376=CARTESIAN_POINT('',(5.99999999999997,-2.,-150.));
#377=CARTESIAN_POINT('Origin',(-3.47311163685592E-14,0.,-150.));
#378=UNCERTAINTY_MEASURE_WITH_UNIT(LENGTH_MEASURE(0.01),#382,
'DISTANCE_ACCURACY_VALUE',
'Maximum model space distance between geometric entities at asserted c
onnectivities');
#379=UNCERTAINTY_MEASURE_WITH_UNIT(LENGTH_MEASURE(0.01),#382,
'DISTANCE_ACCURACY_VALUE',
'Maximum model space distance between geometric entities at asserted c
onnectivities');
#380=(
GEOMETRIC_REPRESENTATION_CONTEXT(3)
GLOBAL_UNCERTAINTY_ASSIGNED_CONTEXT((#378))
GLOBAL_UNIT_ASSIGNED_CONTEXT((#382,#384,#385))
REPRESENTATION_CONTEXT('','3D')
);
#381=(
GEOMETRIC_REPRESENTATION_CONTEXT(3)
GLOBAL_UNCERTAINTY_ASSIGNED_CONTEXT((#379))
GLOBAL_UNIT_ASSIGNED_CONTEXT((#382,#384,#385))
REPRESENTATION_CONTEXT('','3D')
);
#382=(
LENGTH_UNIT()
NAMED_UNIT(*)
SI_UNIT(.MILLI.,.METRE.)
);
#383=(
LENGTH_UNIT()
NAMED_UNIT(*)
SI_UNIT(.CENTI.,.METRE.)
);
#384=(
NAMED_UNIT(*)
PLANE_ANGLE_UNIT()
SI_UNIT($,.RADIAN.)
);
#385=(
NAMED_UNIT(*)
SI_UNIT($,.STERADIAN.)
SOLID_ANGLE_UNIT()
);
#386=SHAPE_DEFINITION_REPRESENTATION(#387,#388);
#387=PRODUCT_DEFINITION_SHAPE('',$,#390);
#388=SHAPE_REPRESENTATION('',(#242),#380);
#389=PRODUCT_DEFINITION_CONTEXT('part definition',#394,'design');
#390=PRODUCT_DEFINITION('p\X2\0142\X0\ugmoj','p\X2\0142\X0\ugmoj',#391,
#389);
#391=PRODUCT_DEFINITION_FORMATION('',$,#396);
#392=PRODUCT_RELATED_PRODUCT_CATEGORY('p\X2\0142\X0\ugmoj','p\X2\0142\X0\u
gmoj',(#396));
#393=APPLICATION_PROTOCOL_DEFINITION('international standard',
'automotive_design',2009,#394);
#394=APPLICATION_CONTEXT(
'Core Data for Automotive Mechanical Design Process');
#395=PRODUCT_CONTEXT('part definition',#394,'mechanical');
#396=PRODUCT('p\X2\0142\X0\ugmoj','p\X2\0142\X0\ugmoj',$,(#395));
#397=PRESENTATION_STYLE_ASSIGNMENT((#398));
#398=SURFACE_STYLE_USAGE(.BOTH.,#401);
#399=SURFACE_STYLE_RENDERING_WITH_PROPERTIES($,#405,(#400));
#400=SURFACE_STYLE_TRANSPARENT(0.);
#401=SURFACE_SIDE_STYLE('',(#402,#399));
#402=SURFACE_STYLE_FILL_AREA(#403);
#403=FILL_AREA_STYLE('',(#404));
#404=FILL_AREA_STYLE_COLOUR('',#405);
#405=COLOUR_RGB('',0.749019607843137,0.749019607843137,0.749019607843137);
ENDSEC;
END-ISO-10303-21;
