ISO-10303-21;
HEADER;
/* Generated by software containing ST-Developer
 * from STEP Tools, Inc. (www.steptools.com) 
 */

FILE_DESCRIPTION(
/* description */ (''),
/* implementation_level */ '2;1');

FILE_NAME(
/* name */ '',
/* time_stamp */ '2026-06-23T09:29:22+02:00',
/* author */ ('karol'),
/* organization */ (''),
/* preprocessor_version */ 'ST-DEVELOPER v20.1',
/* originating_system */ 'Autodesk Inventor 2026',
/* authorisation */ '');

FILE_SCHEMA (('AUTOMOTIVE_DESIGN { 1 0 10303 214 3 1 1 }'));
ENDSEC;

DATA;
#10=MECHANICAL_DESIGN_GEOMETRIC_PRESENTATION_REPRESENTATION('',(#13),#852);
#11=SHAPE_REPRESENTATION_RELATIONSHIP('SRR','None',#859,#12);
#12=ADVANCED_BREP_SHAPE_REPRESENTATION('',(#14),#851);
#13=STYLED_ITEM('',(#868),#14);
#14=MANIFOLD_SOLID_BREP('Bry\X2\0142\X0\a1',#506);
#15=CYLINDRICAL_SURFACE('',#539,2.);
#16=CYLINDRICAL_SURFACE('',#542,2.);
#17=CYLINDRICAL_SURFACE('',#544,3.);
#18=CYLINDRICAL_SURFACE('',#548,1.05);
#19=CYLINDRICAL_SURFACE('',#553,1.5);
#20=CYLINDRICAL_SURFACE('',#560,2.);
#21=CYLINDRICAL_SURFACE('',#565,1.5);
#22=FACE_BOUND('',#70,.T.);
#23=FACE_BOUND('',#73,.T.);
#24=FACE_BOUND('',#74,.T.);
#25=FACE_BOUND('',#75,.T.);
#26=FACE_BOUND('',#81,.T.);
#27=FACE_BOUND('',#100,.T.);
#28=CIRCLE('',#530,1.05);
#29=CIRCLE('',#533,3.);
#30=CIRCLE('',#534,2.);
#31=CIRCLE('',#535,2.);
#32=CIRCLE('',#536,1.05);
#33=CIRCLE('',#537,2.);
#34=CIRCLE('',#538,1.5);
#35=CIRCLE('',#540,2.);
#36=CIRCLE('',#543,2.);
#37=CIRCLE('',#545,3.);
#38=CIRCLE('',#547,2.);
#39=CIRCLE('',#554,1.5);
#40=CIRCLE('',#555,1.5);
#41=CIRCLE('',#564,1.5);
#42=FACE_OUTER_BOUND('',#69,.T.);
#43=FACE_OUTER_BOUND('',#71,.T.);
#44=FACE_OUTER_BOUND('',#72,.T.);
#45=FACE_OUTER_BOUND('',#76,.T.);
#46=FACE_OUTER_BOUND('',#77,.T.);
#47=FACE_OUTER_BOUND('',#78,.T.);
#48=FACE_OUTER_BOUND('',#79,.T.);
#49=FACE_OUTER_BOUND('',#80,.T.);
#50=FACE_OUTER_BOUND('',#82,.T.);
#51=FACE_OUTER_BOUND('',#83,.T.);
#52=FACE_OUTER_BOUND('',#84,.T.);
#53=FACE_OUTER_BOUND('',#85,.T.);
#54=FACE_OUTER_BOUND('',#86,.T.);
#55=FACE_OUTER_BOUND('',#87,.T.);
#56=FACE_OUTER_BOUND('',#88,.T.);
#57=FACE_OUTER_BOUND('',#89,.T.);
#58=FACE_OUTER_BOUND('',#90,.T.);
#59=FACE_OUTER_BOUND('',#91,.T.);
#60=FACE_OUTER_BOUND('',#92,.T.);
#61=FACE_OUTER_BOUND('',#93,.T.);
#62=FACE_OUTER_BOUND('',#94,.T.);
#63=FACE_OUTER_BOUND('',#95,.T.);
#64=FACE_OUTER_BOUND('',#96,.T.);
#65=FACE_OUTER_BOUND('',#97,.T.);
#66=FACE_OUTER_BOUND('',#98,.T.);
#67=FACE_OUTER_BOUND('',#99,.T.);
#68=FACE_OUTER_BOUND('',#101,.T.);
#69=EDGE_LOOP('',(#323,#324,#325,#326,#327,#328,#329,#330));
#70=EDGE_LOOP('',(#331));
#71=EDGE_LOOP('',(#332,#333,#334,#335,#336,#337));
#72=EDGE_LOOP('',(#338,#339,#340,#341,#342,#343,#344,#345,#346,#347,#348,
#349,#350,#351));
#73=EDGE_LOOP('',(#352));
#74=EDGE_LOOP('',(#353));
#75=EDGE_LOOP('',(#354));
#76=EDGE_LOOP('',(#355,#356,#357,#358));
#77=EDGE_LOOP('',(#359,#360,#361,#362));
#78=EDGE_LOOP('',(#363,#364,#365,#366));
#79=EDGE_LOOP('',(#367,#368,#369,#370));
#80=EDGE_LOOP('',(#371,#372,#373));
#81=EDGE_LOOP('',(#374));
#82=EDGE_LOOP('',(#375,#376,#377,#378));
#83=EDGE_LOOP('',(#379,#380,#381,#382));
#84=EDGE_LOOP('',(#383,#384,#385,#386));
#85=EDGE_LOOP('',(#387,#388,#389,#390));
#86=EDGE_LOOP('',(#391,#392,#393,#394));
#87=EDGE_LOOP('',(#395,#396,#397,#398));
#88=EDGE_LOOP('',(#399));
#89=EDGE_LOOP('',(#400,#401,#402,#403));
#90=EDGE_LOOP('',(#404,#405,#406,#407));
#91=EDGE_LOOP('',(#408,#409,#410,#411,#412,#413));
#92=EDGE_LOOP('',(#414,#415,#416,#417));
#93=EDGE_LOOP('',(#418,#419,#420,#421));
#94=EDGE_LOOP('',(#422,#423,#424,#425,#426,#427,#428,#429,#430,#431,#432,
#433));
#95=EDGE_LOOP('',(#434));
#96=EDGE_LOOP('',(#435,#436,#437,#438));
#97=EDGE_LOOP('',(#439,#440,#441,#442));
#98=EDGE_LOOP('',(#443,#444,#445,#446,#447));
#99=EDGE_LOOP('',(#448,#449,#450,#451,#452,#453));
#100=EDGE_LOOP('',(#454));
#101=EDGE_LOOP('',(#455,#456,#457,#458));
#102=LINE('',#712,#156);
#103=LINE('',#714,#157);
#104=LINE('',#716,#158);
#105=LINE('',#718,#159);
#106=LINE('',#720,#160);
#107=LINE('',#722,#161);
#108=LINE('',#724,#162);
#109=LINE('',#725,#163);
#110=LINE('',#731,#164);
#111=LINE('',#733,#165);
#112=LINE('',#735,#166);
#113=LINE('',#737,#167);
#114=LINE('',#739,#168);
#115=LINE('',#740,#169);
#116=LINE('',#745,#170);
#117=LINE('',#747,#171);
#118=LINE('',#751,#172);
#119=LINE('',#755,#173);
#120=LINE('',#757,#174);
#121=LINE('',#759,#175);
#122=LINE('',#761,#176);
#123=LINE('',#763,#177);
#124=LINE('',#765,#178);
#125=LINE('',#766,#179);
#126=LINE('',#775,#180);
#127=LINE('',#778,#181);
#128=LINE('',#781,#182);
#129=LINE('',#782,#183);
#130=LINE('',#786,#184);
#131=LINE('',#790,#185);
#132=LINE('',#792,#186);
#133=LINE('',#796,#187);
#134=LINE('',#798,#188);
#135=LINE('',#799,#189);
#136=LINE('',#801,#190);
#137=LINE('',#802,#191);
#138=LINE('',#805,#192);
#139=LINE('',#810,#193);
#140=LINE('',#815,#194);
#141=LINE('',#817,#195);
#142=LINE('',#818,#196);
#143=LINE('',#821,#197);
#144=LINE('',#822,#198);
#145=LINE('',#824,#199);
#146=LINE('',#826,#200);
#147=LINE('',#829,#201);
#148=LINE('',#830,#202);
#149=LINE('',#833,#203);
#150=LINE('',#834,#204);
#151=LINE('',#836,#205);
#152=LINE('',#837,#206);
#153=LINE('',#842,#207);
#154=LINE('',#844,#208);
#155=LINE('',#847,#209);
#156=VECTOR('',#574,10.);
#157=VECTOR('',#575,10.);
#158=VECTOR('',#576,10.);
#159=VECTOR('',#577,10.);
#160=VECTOR('',#578,10.);
#161=VECTOR('',#579,10.);
#162=VECTOR('',#580,10.);
#163=VECTOR('',#581,10.);
#164=VECTOR('',#586,10.);
#165=VECTOR('',#587,10.);
#166=VECTOR('',#588,10.);
#167=VECTOR('',#589,10.);
#168=VECTOR('',#590,10.);
#169=VECTOR('',#591,10.);
#170=VECTOR('',#596,10.);
#171=VECTOR('',#597,10.);
#172=VECTOR('',#600,10.);
#173=VECTOR('',#603,10.);
#174=VECTOR('',#604,10.);
#175=VECTOR('',#605,10.);
#176=VECTOR('',#606,10.);
#177=VECTOR('',#607,10.);
#178=VECTOR('',#608,10.);
#179=VECTOR('',#609,10.);
#180=VECTOR('',#618,10.);
#181=VECTOR('',#621,10.);
#182=VECTOR('',#624,10.);
#183=VECTOR('',#625,10.);
#184=VECTOR('',#630,10.);
#185=VECTOR('',#635,10.);
#186=VECTOR('',#638,10.);
#187=VECTOR('',#643,1.05);
#188=VECTOR('',#646,10.);
#189=VECTOR('',#647,10.);
#190=VECTOR('',#650,10.);
#191=VECTOR('',#651,10.);
#192=VECTOR('',#656,10.);
#193=VECTOR('',#661,1.5);
#194=VECTOR('',#668,10.);
#195=VECTOR('',#669,10.);
#196=VECTOR('',#670,10.);
#197=VECTOR('',#673,10.);
#198=VECTOR('',#674,10.);
#199=VECTOR('',#677,10.);
#200=VECTOR('',#680,2.);
#201=VECTOR('',#683,10.);
#202=VECTOR('',#684,10.);
#203=VECTOR('',#687,10.);
#204=VECTOR('',#688,10.);
#205=VECTOR('',#689,10.);
#206=VECTOR('',#690,10.);
#207=VECTOR('',#697,1.5);
#208=VECTOR('',#700,10.);
#209=VECTOR('',#705,10.);
#210=VERTEX_POINT('',#710);
#211=VERTEX_POINT('',#711);
#212=VERTEX_POINT('',#713);
#213=VERTEX_POINT('',#715);
#214=VERTEX_POINT('',#717);
#215=VERTEX_POINT('',#719);
#216=VERTEX_POINT('',#721);
#217=VERTEX_POINT('',#723);
#218=VERTEX_POINT('',#726);
#219=VERTEX_POINT('',#729);
#220=VERTEX_POINT('',#730);
#221=VERTEX_POINT('',#732);
#222=VERTEX_POINT('',#734);
#223=VERTEX_POINT('',#736);
#224=VERTEX_POINT('',#738);
#225=VERTEX_POINT('',#742);
#226=VERTEX_POINT('',#744);
#227=VERTEX_POINT('',#746);
#228=VERTEX_POINT('',#748);
#229=VERTEX_POINT('',#750);
#230=VERTEX_POINT('',#752);
#231=VERTEX_POINT('',#754);
#232=VERTEX_POINT('',#756);
#233=VERTEX_POINT('',#758);
#234=VERTEX_POINT('',#760);
#235=VERTEX_POINT('',#762);
#236=VERTEX_POINT('',#764);
#237=VERTEX_POINT('',#767);
#238=VERTEX_POINT('',#769);
#239=VERTEX_POINT('',#771);
#240=VERTEX_POINT('',#774);
#241=VERTEX_POINT('',#776);
#242=VERTEX_POINT('',#780);
#243=VERTEX_POINT('',#784);
#244=VERTEX_POINT('',#788);
#245=VERTEX_POINT('',#793);
#246=VERTEX_POINT('',#807);
#247=VERTEX_POINT('',#809);
#248=VERTEX_POINT('',#814);
#249=VERTEX_POINT('',#816);
#250=VERTEX_POINT('',#820);
#251=VERTEX_POINT('',#828);
#252=VERTEX_POINT('',#832);
#253=VERTEX_POINT('',#835);
#254=VERTEX_POINT('',#839);
#255=EDGE_CURVE('',#210,#211,#102,.T.);
#256=EDGE_CURVE('',#211,#212,#103,.T.);
#257=EDGE_CURVE('',#212,#213,#104,.T.);
#258=EDGE_CURVE('',#213,#214,#105,.T.);
#259=EDGE_CURVE('',#214,#215,#106,.T.);
#260=EDGE_CURVE('',#216,#215,#107,.T.);
#261=EDGE_CURVE('',#217,#216,#108,.T.);
#262=EDGE_CURVE('',#210,#217,#109,.T.);
#263=EDGE_CURVE('',#218,#218,#28,.T.);
#264=EDGE_CURVE('',#219,#220,#110,.T.);
#265=EDGE_CURVE('',#221,#219,#111,.T.);
#266=EDGE_CURVE('',#221,#222,#112,.T.);
#267=EDGE_CURVE('',#223,#222,#113,.T.);
#268=EDGE_CURVE('',#223,#224,#114,.T.);
#269=EDGE_CURVE('',#224,#220,#115,.T.);
#270=EDGE_CURVE('',#225,#219,#29,.T.);
#271=EDGE_CURVE('',#226,#225,#116,.T.);
#272=EDGE_CURVE('',#226,#227,#117,.T.);
#273=EDGE_CURVE('',#228,#227,#30,.T.);
#274=EDGE_CURVE('',#228,#229,#118,.T.);
#275=EDGE_CURVE('',#230,#229,#31,.T.);
#276=EDGE_CURVE('',#230,#231,#119,.T.);
#277=EDGE_CURVE('',#231,#232,#120,.T.);
#278=EDGE_CURVE('',#233,#232,#121,.T.);
#279=EDGE_CURVE('',#234,#233,#122,.T.);
#280=EDGE_CURVE('',#234,#235,#123,.T.);
#281=EDGE_CURVE('',#236,#235,#124,.T.);
#282=EDGE_CURVE('',#221,#236,#125,.T.);
#283=EDGE_CURVE('',#237,#237,#32,.T.);
#284=EDGE_CURVE('',#238,#238,#33,.T.);
#285=EDGE_CURVE('',#239,#239,#34,.T.);
#286=EDGE_CURVE('',#227,#240,#126,.T.);
#287=EDGE_CURVE('',#240,#241,#35,.T.);
#288=EDGE_CURVE('',#241,#228,#127,.T.);
#289=EDGE_CURVE('',#242,#241,#128,.T.);
#290=EDGE_CURVE('',#229,#242,#129,.T.);
#291=EDGE_CURVE('',#242,#243,#36,.T.);
#292=EDGE_CURVE('',#243,#230,#130,.T.);
#293=EDGE_CURVE('',#220,#244,#37,.T.);
#294=EDGE_CURVE('',#225,#244,#131,.T.);
#295=EDGE_CURVE('',#244,#224,#132,.T.);
#296=EDGE_CURVE('',#245,#245,#38,.T.);
#297=EDGE_CURVE('',#218,#237,#133,.T.);
#298=EDGE_CURVE('',#214,#234,#134,.T.);
#299=EDGE_CURVE('',#215,#233,#135,.T.);
#300=EDGE_CURVE('',#217,#231,#136,.T.);
#301=EDGE_CURVE('',#232,#216,#137,.T.);
#302=EDGE_CURVE('',#235,#213,#138,.T.);
#303=EDGE_CURVE('',#246,#246,#39,.T.);
#304=EDGE_CURVE('',#246,#247,#139,.T.);
#305=EDGE_CURVE('',#247,#247,#40,.T.);
#306=EDGE_CURVE('',#248,#210,#140,.T.);
#307=EDGE_CURVE('',#248,#249,#141,.T.);
#308=EDGE_CURVE('',#211,#249,#142,.T.);
#309=EDGE_CURVE('',#249,#250,#143,.T.);
#310=EDGE_CURVE('',#250,#212,#144,.T.);
#311=EDGE_CURVE('',#248,#243,#145,.T.);
#312=EDGE_CURVE('',#245,#238,#146,.T.);
#313=EDGE_CURVE('',#244,#251,#147,.T.);
#314=EDGE_CURVE('',#251,#223,#148,.T.);
#315=EDGE_CURVE('',#240,#252,#149,.T.);
#316=EDGE_CURVE('',#252,#251,#150,.T.);
#317=EDGE_CURVE('',#222,#253,#151,.T.);
#318=EDGE_CURVE('',#253,#250,#152,.T.);
#319=EDGE_CURVE('',#254,#254,#41,.T.);
#320=EDGE_CURVE('',#239,#254,#153,.T.);
#321=EDGE_CURVE('',#252,#226,#154,.T.);
#322=EDGE_CURVE('',#236,#253,#155,.T.);
#323=ORIENTED_EDGE('',*,*,#255,.T.);
#324=ORIENTED_EDGE('',*,*,#256,.T.);
#325=ORIENTED_EDGE('',*,*,#257,.T.);
#326=ORIENTED_EDGE('',*,*,#258,.T.);
#327=ORIENTED_EDGE('',*,*,#259,.T.);
#328=ORIENTED_EDGE('',*,*,#260,.F.);
#329=ORIENTED_EDGE('',*,*,#261,.F.);
#330=ORIENTED_EDGE('',*,*,#262,.F.);
#331=ORIENTED_EDGE('',*,*,#263,.T.);
#332=ORIENTED_EDGE('',*,*,#264,.F.);
#333=ORIENTED_EDGE('',*,*,#265,.F.);
#334=ORIENTED_EDGE('',*,*,#266,.T.);
#335=ORIENTED_EDGE('',*,*,#267,.F.);
#336=ORIENTED_EDGE('',*,*,#268,.T.);
#337=ORIENTED_EDGE('',*,*,#269,.T.);
#338=ORIENTED_EDGE('',*,*,#270,.F.);
#339=ORIENTED_EDGE('',*,*,#271,.F.);
#340=ORIENTED_EDGE('',*,*,#272,.T.);
#341=ORIENTED_EDGE('',*,*,#273,.F.);
#342=ORIENTED_EDGE('',*,*,#274,.T.);
#343=ORIENTED_EDGE('',*,*,#275,.F.);
#344=ORIENTED_EDGE('',*,*,#276,.T.);
#345=ORIENTED_EDGE('',*,*,#277,.T.);
#346=ORIENTED_EDGE('',*,*,#278,.F.);
#347=ORIENTED_EDGE('',*,*,#279,.F.);
#348=ORIENTED_EDGE('',*,*,#280,.T.);
#349=ORIENTED_EDGE('',*,*,#281,.F.);
#350=ORIENTED_EDGE('',*,*,#282,.F.);
#351=ORIENTED_EDGE('',*,*,#265,.T.);
#352=ORIENTED_EDGE('',*,*,#283,.T.);
#353=ORIENTED_EDGE('',*,*,#284,.T.);
#354=ORIENTED_EDGE('',*,*,#285,.T.);
#355=ORIENTED_EDGE('',*,*,#273,.T.);
#356=ORIENTED_EDGE('',*,*,#286,.T.);
#357=ORIENTED_EDGE('',*,*,#287,.T.);
#358=ORIENTED_EDGE('',*,*,#288,.T.);
#359=ORIENTED_EDGE('',*,*,#288,.F.);
#360=ORIENTED_EDGE('',*,*,#289,.F.);
#361=ORIENTED_EDGE('',*,*,#290,.F.);
#362=ORIENTED_EDGE('',*,*,#274,.F.);
#363=ORIENTED_EDGE('',*,*,#275,.T.);
#364=ORIENTED_EDGE('',*,*,#290,.T.);
#365=ORIENTED_EDGE('',*,*,#291,.T.);
#366=ORIENTED_EDGE('',*,*,#292,.T.);
#367=ORIENTED_EDGE('',*,*,#270,.T.);
#368=ORIENTED_EDGE('',*,*,#264,.T.);
#369=ORIENTED_EDGE('',*,*,#293,.T.);
#370=ORIENTED_EDGE('',*,*,#294,.F.);
#371=ORIENTED_EDGE('',*,*,#293,.F.);
#372=ORIENTED_EDGE('',*,*,#269,.F.);
#373=ORIENTED_EDGE('',*,*,#295,.F.);
#374=ORIENTED_EDGE('',*,*,#296,.T.);
#375=ORIENTED_EDGE('',*,*,#263,.F.);
#376=ORIENTED_EDGE('',*,*,#297,.T.);
#377=ORIENTED_EDGE('',*,*,#283,.F.);
#378=ORIENTED_EDGE('',*,*,#297,.F.);
#379=ORIENTED_EDGE('',*,*,#298,.T.);
#380=ORIENTED_EDGE('',*,*,#279,.T.);
#381=ORIENTED_EDGE('',*,*,#299,.F.);
#382=ORIENTED_EDGE('',*,*,#259,.F.);
#383=ORIENTED_EDGE('',*,*,#300,.F.);
#384=ORIENTED_EDGE('',*,*,#261,.T.);
#385=ORIENTED_EDGE('',*,*,#301,.F.);
#386=ORIENTED_EDGE('',*,*,#277,.F.);
#387=ORIENTED_EDGE('',*,*,#301,.T.);
#388=ORIENTED_EDGE('',*,*,#260,.T.);
#389=ORIENTED_EDGE('',*,*,#299,.T.);
#390=ORIENTED_EDGE('',*,*,#278,.T.);
#391=ORIENTED_EDGE('',*,*,#302,.F.);
#392=ORIENTED_EDGE('',*,*,#280,.F.);
#393=ORIENTED_EDGE('',*,*,#298,.F.);
#394=ORIENTED_EDGE('',*,*,#258,.F.);
#395=ORIENTED_EDGE('',*,*,#303,.F.);
#396=ORIENTED_EDGE('',*,*,#304,.T.);
#397=ORIENTED_EDGE('',*,*,#305,.T.);
#398=ORIENTED_EDGE('',*,*,#304,.F.);
#399=ORIENTED_EDGE('',*,*,#305,.F.);
#400=ORIENTED_EDGE('',*,*,#306,.F.);
#401=ORIENTED_EDGE('',*,*,#307,.T.);
#402=ORIENTED_EDGE('',*,*,#308,.F.);
#403=ORIENTED_EDGE('',*,*,#255,.F.);
#404=ORIENTED_EDGE('',*,*,#308,.T.);
#405=ORIENTED_EDGE('',*,*,#309,.T.);
#406=ORIENTED_EDGE('',*,*,#310,.T.);
#407=ORIENTED_EDGE('',*,*,#256,.F.);
#408=ORIENTED_EDGE('',*,*,#306,.T.);
#409=ORIENTED_EDGE('',*,*,#262,.T.);
#410=ORIENTED_EDGE('',*,*,#300,.T.);
#411=ORIENTED_EDGE('',*,*,#276,.F.);
#412=ORIENTED_EDGE('',*,*,#292,.F.);
#413=ORIENTED_EDGE('',*,*,#311,.F.);
#414=ORIENTED_EDGE('',*,*,#296,.F.);
#415=ORIENTED_EDGE('',*,*,#312,.T.);
#416=ORIENTED_EDGE('',*,*,#284,.F.);
#417=ORIENTED_EDGE('',*,*,#312,.F.);
#418=ORIENTED_EDGE('',*,*,#313,.F.);
#419=ORIENTED_EDGE('',*,*,#295,.T.);
#420=ORIENTED_EDGE('',*,*,#268,.F.);
#421=ORIENTED_EDGE('',*,*,#314,.F.);
#422=ORIENTED_EDGE('',*,*,#287,.F.);
#423=ORIENTED_EDGE('',*,*,#315,.T.);
#424=ORIENTED_EDGE('',*,*,#316,.T.);
#425=ORIENTED_EDGE('',*,*,#314,.T.);
#426=ORIENTED_EDGE('',*,*,#267,.T.);
#427=ORIENTED_EDGE('',*,*,#317,.T.);
#428=ORIENTED_EDGE('',*,*,#318,.T.);
#429=ORIENTED_EDGE('',*,*,#309,.F.);
#430=ORIENTED_EDGE('',*,*,#307,.F.);
#431=ORIENTED_EDGE('',*,*,#311,.T.);
#432=ORIENTED_EDGE('',*,*,#291,.F.);
#433=ORIENTED_EDGE('',*,*,#289,.T.);
#434=ORIENTED_EDGE('',*,*,#319,.F.);
#435=ORIENTED_EDGE('',*,*,#285,.F.);
#436=ORIENTED_EDGE('',*,*,#320,.T.);
#437=ORIENTED_EDGE('',*,*,#319,.T.);
#438=ORIENTED_EDGE('',*,*,#320,.F.);
#439=ORIENTED_EDGE('',*,*,#286,.F.);
#440=ORIENTED_EDGE('',*,*,#272,.F.);
#441=ORIENTED_EDGE('',*,*,#321,.F.);
#442=ORIENTED_EDGE('',*,*,#315,.F.);
#443=ORIENTED_EDGE('',*,*,#321,.T.);
#444=ORIENTED_EDGE('',*,*,#271,.T.);
#445=ORIENTED_EDGE('',*,*,#294,.T.);
#446=ORIENTED_EDGE('',*,*,#313,.T.);
#447=ORIENTED_EDGE('',*,*,#316,.F.);
#448=ORIENTED_EDGE('',*,*,#302,.T.);
#449=ORIENTED_EDGE('',*,*,#257,.F.);
#450=ORIENTED_EDGE('',*,*,#310,.F.);
#451=ORIENTED_EDGE('',*,*,#318,.F.);
#452=ORIENTED_EDGE('',*,*,#322,.F.);
#453=ORIENTED_EDGE('',*,*,#281,.T.);
#454=ORIENTED_EDGE('',*,*,#303,.T.);
#455=ORIENTED_EDGE('',*,*,#282,.T.);
#456=ORIENTED_EDGE('',*,*,#322,.T.);
#457=ORIENTED_EDGE('',*,*,#317,.F.);
#458=ORIENTED_EDGE('',*,*,#266,.F.);
#459=PLANE('',#529);
#460=PLANE('',#531);
#461=PLANE('',#532);
#462=PLANE('',#541);
#463=PLANE('',#546);
#464=PLANE('',#549);
#465=PLANE('',#550);
#466=PLANE('',#551);
#467=PLANE('',#552);
#468=PLANE('',#556);
#469=PLANE('',#557);
#470=PLANE('',#558);
#471=PLANE('',#559);
#472=PLANE('',#561);
#473=PLANE('',#562);
#474=PLANE('',#563);
#475=PLANE('',#566);
#476=PLANE('',#567);
#477=PLANE('',#568);
#478=PLANE('',#569);
#479=ADVANCED_FACE('',(#42,#22),#459,.T.);
#480=ADVANCED_FACE('',(#43),#460,.T.);
#481=ADVANCED_FACE('',(#44,#23,#24,#25),#461,.F.);
#482=ADVANCED_FACE('',(#45),#15,.T.);
#483=ADVANCED_FACE('',(#46),#462,.T.);
#484=ADVANCED_FACE('',(#47),#16,.T.);
#485=ADVANCED_FACE('',(#48),#17,.T.);
#486=ADVANCED_FACE('',(#49,#26),#463,.F.);
#487=ADVANCED_FACE('',(#50),#18,.F.);
#488=ADVANCED_FACE('',(#51),#464,.T.);
#489=ADVANCED_FACE('',(#52),#465,.T.);
#490=ADVANCED_FACE('',(#53),#466,.T.);
#491=ADVANCED_FACE('',(#54),#467,.F.);
#492=ADVANCED_FACE('',(#55),#19,.F.);
#493=ADVANCED_FACE('',(#56),#468,.T.);
#494=ADVANCED_FACE('',(#57),#469,.T.);
#495=ADVANCED_FACE('',(#58),#470,.T.);
#496=ADVANCED_FACE('',(#59),#471,.F.);
#497=ADVANCED_FACE('',(#60),#20,.F.);
#498=ADVANCED_FACE('',(#61),#472,.F.);
#499=ADVANCED_FACE('',(#62),#473,.T.);
#500=ADVANCED_FACE('',(#63),#474,.F.);
#501=ADVANCED_FACE('',(#64),#21,.F.);
#502=ADVANCED_FACE('',(#65),#475,.T.);
#503=ADVANCED_FACE('',(#66),#476,.T.);
#504=ADVANCED_FACE('',(#67,#27),#477,.T.);
#505=ADVANCED_FACE('',(#68),#478,.T.);
#506=CLOSED_SHELL('',(#479,#480,#481,#482,#483,#484,#485,#486,#487,#488,
#489,#490,#491,#492,#493,#494,#495,#496,#497,#498,#499,#500,#501,#502,#503,
#504,#505));
#507=DERIVED_UNIT_ELEMENT(#510,1.);
#508=DERIVED_UNIT_ELEMENT(#854,-3.);
#509=DIMENSIONAL_EXPONENTS(0.,1.,0.,0.,0.,0.,0.);
#510=(
CONVERSION_BASED_UNIT('gram',#512)
MASS_UNIT()
NAMED_UNIT(#509)
);
#511=(
MASS_UNIT()
NAMED_UNIT(*)
SI_UNIT(.KILO.,.GRAM.)
);
#512=MASS_MEASURE_WITH_UNIT(MASS_MEASURE(0.001),#511);
#513=DERIVED_UNIT((#507,#508));
#514=MEASURE_REPRESENTATION_ITEM('density measure',
POSITIVE_RATIO_MEASURE(1.),#513);
#515=PROPERTY_DEFINITION_REPRESENTATION(#520,#517);
#516=PROPERTY_DEFINITION_REPRESENTATION(#521,#518);
#517=REPRESENTATION('material name',(#519),#851);
#518=REPRESENTATION('density',(#514),#851);
#519=DESCRIPTIVE_REPRESENTATION_ITEM('Generic','Generic');
#520=PROPERTY_DEFINITION('material property','material name',#861);
#521=PROPERTY_DEFINITION('material property','density of part',#861);
#522=DATE_TIME_ROLE('creation_date');
#523=APPLIED_DATE_AND_TIME_ASSIGNMENT(#524,#522,(#861));
#524=DATE_AND_TIME(#525,#526);
#525=CALENDAR_DATE(2026,27,4);
#526=LOCAL_TIME(0,0,0.,#527);
#527=COORDINATED_UNIVERSAL_TIME_OFFSET(0,0,.BEHIND.);
#528=AXIS2_PLACEMENT_3D('',#708,#570,#571);
#529=AXIS2_PLACEMENT_3D('',#709,#572,#573);
#530=AXIS2_PLACEMENT_3D('',#727,#582,#583);
#531=AXIS2_PLACEMENT_3D('',#728,#584,#585);
#532=AXIS2_PLACEMENT_3D('',#741,#592,#593);
#533=AXIS2_PLACEMENT_3D('',#743,#594,#595);
#534=AXIS2_PLACEMENT_3D('',#749,#598,#599);
#535=AXIS2_PLACEMENT_3D('',#753,#601,#602);
#536=AXIS2_PLACEMENT_3D('',#768,#610,#611);
#537=AXIS2_PLACEMENT_3D('',#770,#612,#613);
#538=AXIS2_PLACEMENT_3D('',#772,#614,#615);
#539=AXIS2_PLACEMENT_3D('',#773,#616,#617);
#540=AXIS2_PLACEMENT_3D('',#777,#619,#620);
#541=AXIS2_PLACEMENT_3D('',#779,#622,#623);
#542=AXIS2_PLACEMENT_3D('',#783,#626,#627);
#543=AXIS2_PLACEMENT_3D('',#785,#628,#629);
#544=AXIS2_PLACEMENT_3D('',#787,#631,#632);
#545=AXIS2_PLACEMENT_3D('',#789,#633,#634);
#546=AXIS2_PLACEMENT_3D('',#791,#636,#637);
#547=AXIS2_PLACEMENT_3D('',#794,#639,#640);
#548=AXIS2_PLACEMENT_3D('',#795,#641,#642);
#549=AXIS2_PLACEMENT_3D('',#797,#644,#645);
#550=AXIS2_PLACEMENT_3D('',#800,#648,#649);
#551=AXIS2_PLACEMENT_3D('',#803,#652,#653);
#552=AXIS2_PLACEMENT_3D('',#804,#654,#655);
#553=AXIS2_PLACEMENT_3D('',#806,#657,#658);
#554=AXIS2_PLACEMENT_3D('',#808,#659,#660);
#555=AXIS2_PLACEMENT_3D('',#811,#662,#663);
#556=AXIS2_PLACEMENT_3D('',#812,#664,#665);
#557=AXIS2_PLACEMENT_3D('',#813,#666,#667);
#558=AXIS2_PLACEMENT_3D('',#819,#671,#672);
#559=AXIS2_PLACEMENT_3D('',#823,#675,#676);
#560=AXIS2_PLACEMENT_3D('',#825,#678,#679);
#561=AXIS2_PLACEMENT_3D('',#827,#681,#682);
#562=AXIS2_PLACEMENT_3D('',#831,#685,#686);
#563=AXIS2_PLACEMENT_3D('',#838,#691,#692);
#564=AXIS2_PLACEMENT_3D('',#840,#693,#694);
#565=AXIS2_PLACEMENT_3D('',#841,#695,#696);
#566=AXIS2_PLACEMENT_3D('',#843,#698,#699);
#567=AXIS2_PLACEMENT_3D('',#845,#701,#702);
#568=AXIS2_PLACEMENT_3D('',#846,#703,#704);
#569=AXIS2_PLACEMENT_3D('',#848,#706,#707);
#570=DIRECTION('axis',(0.,0.,1.));
#571=DIRECTION('refdir',(1.,0.,0.));
#572=DIRECTION('center_axis',(-9.25185853854297E-17,1.,0.));
#573=DIRECTION('ref_axis',(-1.,-9.25185853854297E-17,0.));
#574=DIRECTION('',(-1.38777878078144E-16,-1.28395329625816E-32,1.));
#575=DIRECTION('',(-1.,-9.25185853854297E-17,1.98254111540207E-17));
#576=DIRECTION('',(1.38777878078144E-16,1.28395329625816E-32,-1.));
#577=DIRECTION('',(-1.,-9.25185853854297E-17,0.));
#578=DIRECTION('',(0.,0.,1.));
#579=DIRECTION('',(-1.,-9.25185853854297E-17,0.));
#580=DIRECTION('',(0.,0.,1.));
#581=DIRECTION('',(1.,9.25185853854297E-17,0.));
#582=DIRECTION('center_axis',(9.25185853854297E-17,-1.,0.));
#583=DIRECTION('ref_axis',(1.,0.,-1.26161707343768E-17));
#584=DIRECTION('center_axis',(-1.,0.,3.99680288865056E-16));
#585=DIRECTION('ref_axis',(3.99680288865056E-16,0.,1.));
#586=DIRECTION('',(0.,1.,0.));
#587=DIRECTION('',(0.,0.,-1.));
#588=DIRECTION('',(0.,1.,0.));
#589=DIRECTION('',(0.,0.,1.));
#590=DIRECTION('',(0.,-1.,0.));
#591=DIRECTION('',(-3.99680288865056E-16,0.,-1.));
#592=DIRECTION('center_axis',(0.,1.,0.));
#593=DIRECTION('ref_axis',(0.,0.,1.));
#594=DIRECTION('center_axis',(0.,1.,0.));
#595=DIRECTION('ref_axis',(0.707106781186547,0.,-0.707106781186548));
#596=DIRECTION('',(-3.99680288865056E-16,0.,-1.));
#597=DIRECTION('',(1.,0.,0.));
#598=DIRECTION('center_axis',(0.,1.,0.));
#599=DIRECTION('ref_axis',(0.707106781186548,0.,-0.707106781186547));
#600=DIRECTION('',(0.,0.,1.));
#601=DIRECTION('center_axis',(0.,1.,0.));
#602=DIRECTION('ref_axis',(0.707106781186548,0.,0.707106781186547));
#603=DIRECTION('',(-1.,0.,0.));
#604=DIRECTION('',(0.,0.,1.));
#605=DIRECTION('',(1.,-4.62592926927149E-17,0.));
#606=DIRECTION('',(0.,0.,1.));
#607=DIRECTION('',(1.,-4.62592926927149E-17,0.));
#608=DIRECTION('',(0.,0.,1.));
#609=DIRECTION('',(-1.,0.,0.));
#610=DIRECTION('center_axis',(0.,1.,0.));
#611=DIRECTION('ref_axis',(1.,0.,-1.26161707343768E-17));
#612=DIRECTION('center_axis',(0.,1.,0.));
#613=DIRECTION('ref_axis',(1.,0.,0.));
#614=DIRECTION('center_axis',(0.,1.,0.));
#615=DIRECTION('ref_axis',(1.,0.,0.));
#616=DIRECTION('center_axis',(0.,-1.,0.));
#617=DIRECTION('ref_axis',(0.707106781186548,0.,-0.707106781186547));
#618=DIRECTION('',(0.,1.,0.));
#619=DIRECTION('center_axis',(0.,-1.,0.));
#620=DIRECTION('ref_axis',(0.707106781186548,0.,-0.707106781186547));
#621=DIRECTION('',(0.,-1.,0.));
#622=DIRECTION('center_axis',(1.,0.,0.));
#623=DIRECTION('ref_axis',(0.,0.,1.));
#624=DIRECTION('',(0.,0.,-1.));
#625=DIRECTION('',(0.,1.,0.));
#626=DIRECTION('center_axis',(0.,-1.,0.));
#627=DIRECTION('ref_axis',(0.707106781186548,0.,0.707106781186547));
#628=DIRECTION('center_axis',(0.,-1.,0.));
#629=DIRECTION('ref_axis',(0.707106781186548,0.,0.707106781186547));
#630=DIRECTION('',(0.,-1.,0.));
#631=DIRECTION('center_axis',(0.,-1.,0.));
#632=DIRECTION('ref_axis',(0.707106781186547,0.,-0.707106781186548));
#633=DIRECTION('center_axis',(0.,-1.,0.));
#634=DIRECTION('ref_axis',(0.707106781186548,0.,0.707106781186547));
#635=DIRECTION('',(0.,1.,0.));
#636=DIRECTION('center_axis',(0.,-1.,0.));
#637=DIRECTION('ref_axis',(0.,0.,-1.));
#638=DIRECTION('',(-1.,0.,0.));
#639=DIRECTION('center_axis',(0.,-1.,0.));
#640=DIRECTION('ref_axis',(1.,0.,0.));
#641=DIRECTION('center_axis',(0.,-1.,0.));
#642=DIRECTION('ref_axis',(1.,0.,-1.26161707343768E-17));
#643=DIRECTION('',(0.,-1.,0.));
#644=DIRECTION('center_axis',(-1.,-2.77555756156289E-16,0.));
#645=DIRECTION('ref_axis',(2.77555756156289E-16,-1.,0.));
#646=DIRECTION('',(2.77555756156289E-16,-1.,0.));
#647=DIRECTION('',(2.77555756156289E-16,-1.,0.));
#648=DIRECTION('center_axis',(1.,0.,0.));
#649=DIRECTION('ref_axis',(0.,1.,0.));
#650=DIRECTION('',(0.,-1.,0.));
#651=DIRECTION('',(0.,1.,0.));
#652=DIRECTION('center_axis',(0.,0.,1.));
#653=DIRECTION('ref_axis',(1.,0.,0.));
#654=DIRECTION('center_axis',(0.,0.,1.));
#655=DIRECTION('ref_axis',(1.,0.,0.));
#656=DIRECTION('',(0.,1.,0.));
#657=DIRECTION('center_axis',(1.,0.,0.));
#658=DIRECTION('ref_axis',(0.,0.,1.));
#659=DIRECTION('center_axis',(1.,0.,0.));
#660=DIRECTION('ref_axis',(0.,0.,1.));
#661=DIRECTION('',(1.,0.,0.));
#662=DIRECTION('center_axis',(1.,0.,0.));
#663=DIRECTION('ref_axis',(0.,0.,1.));
#664=DIRECTION('center_axis',(-1.,0.,0.));
#665=DIRECTION('ref_axis',(0.,0.,1.));
#666=DIRECTION('center_axis',(1.,0.,0.));
#667=DIRECTION('ref_axis',(0.,1.,0.));
#668=DIRECTION('',(0.,-1.,0.));
#669=DIRECTION('',(0.,0.,1.));
#670=DIRECTION('',(0.,1.,0.));
#671=DIRECTION('center_axis',(0.,0.,1.));
#672=DIRECTION('ref_axis',(1.,0.,0.));
#673=DIRECTION('',(-1.,0.,0.));
#674=DIRECTION('',(0.,-1.,0.));
#675=DIRECTION('center_axis',(0.,0.,-1.));
#676=DIRECTION('ref_axis',(1.,0.,0.));
#677=DIRECTION('',(1.,0.,0.));
#678=DIRECTION('center_axis',(0.,-1.,0.));
#679=DIRECTION('ref_axis',(1.,0.,0.));
#680=DIRECTION('',(0.,-1.,0.));
#681=DIRECTION('center_axis',(0.,0.,1.));
#682=DIRECTION('ref_axis',(-1.,0.,0.));
#683=DIRECTION('',(0.,1.,0.));
#684=DIRECTION('',(-1.,0.,0.));
#685=DIRECTION('center_axis',(0.,1.,0.));
#686=DIRECTION('ref_axis',(0.,0.,1.));
#687=DIRECTION('',(-1.,0.,0.));
#688=DIRECTION('',(-3.99680288865056E-16,0.,-1.));
#689=DIRECTION('',(-1.,0.,0.));
#690=DIRECTION('',(0.,0.,1.));
#691=DIRECTION('center_axis',(0.,1.,0.));
#692=DIRECTION('ref_axis',(0.,0.,1.));
#693=DIRECTION('center_axis',(0.,1.,0.));
#694=DIRECTION('ref_axis',(-1.,0.,0.));
#695=DIRECTION('center_axis',(0.,-1.,0.));
#696=DIRECTION('ref_axis',(-1.,0.,0.));
#697=DIRECTION('',(0.,1.,0.));
#698=DIRECTION('center_axis',(0.,0.,-1.));
#699=DIRECTION('ref_axis',(1.,0.,0.));
#700=DIRECTION('',(0.,-1.,0.));
#701=DIRECTION('center_axis',(1.,0.,-3.99680288865056E-16));
#702=DIRECTION('ref_axis',(-3.99680288865056E-16,0.,-1.));
#703=DIRECTION('center_axis',(-1.,0.,0.));
#704=DIRECTION('ref_axis',(0.,0.,1.));
#705=DIRECTION('',(0.,1.,0.));
#706=DIRECTION('center_axis',(0.,0.,-1.));
#707=DIRECTION('ref_axis',(-1.,0.,0.));
#708=CARTESIAN_POINT('',(0.,0.,0.));
#709=CARTESIAN_POINT('Origin',(-20.,1.5,-1.));
#710=CARTESIAN_POINT('',(-24.,1.5,-1.));
#711=CARTESIAN_POINT('',(-24.,1.5,3.));
#712=CARTESIAN_POINT('',(-24.,1.5,1.));
#713=CARTESIAN_POINT('',(-31.,1.5,3.));
#714=CARTESIAN_POINT('',(-25.5,1.5,3.));
#715=CARTESIAN_POINT('',(-31.,1.5,-1.));
#716=CARTESIAN_POINT('',(-31.,1.5,-1.));
#717=CARTESIAN_POINT('',(-32.,1.5,-1.));
#718=CARTESIAN_POINT('',(-20.,1.5,-1.));
#719=CARTESIAN_POINT('',(-32.,1.5,9.));
#720=CARTESIAN_POINT('',(-32.,1.5,-1.));
#721=CARTESIAN_POINT('',(-20.,1.5,9.));
#722=CARTESIAN_POINT('',(-20.,1.5,9.));
#723=CARTESIAN_POINT('',(-20.,1.5,-1.));
#724=CARTESIAN_POINT('',(-20.,1.5,-1.));
#725=CARTESIAN_POINT('',(-25.5,1.5,-1.));
#726=CARTESIAN_POINT('',(-23.55,1.5,5.06));
#727=CARTESIAN_POINT('Origin',(-22.5,1.5,5.06));
#728=CARTESIAN_POINT('Origin',(-3.00000000000001,0.,-25.));
#729=CARTESIAN_POINT('',(-3.00000000000001,-1.11022302462516E-15,-28.));
#730=CARTESIAN_POINT('',(-3.00000000000001,3.,-28.));
#731=CARTESIAN_POINT('',(-3.00000000000001,4.,-28.));
#732=CARTESIAN_POINT('',(-3.,0.,-3.));
#733=CARTESIAN_POINT('',(-3.00000000000001,-1.11022302462516E-15,-31.));
#734=CARTESIAN_POINT('',(-3.,8.,-3.));
#735=CARTESIAN_POINT('',(-3.,0.,-3.));
#736=CARTESIAN_POINT('',(-3.00000000000001,8.,-25.));
#737=CARTESIAN_POINT('',(-3.00000000000001,8.,-31.));
#738=CARTESIAN_POINT('',(-3.00000000000001,3.,-25.));
#739=CARTESIAN_POINT('',(-3.00000000000001,4.,-25.));
#740=CARTESIAN_POINT('',(-3.00000000000001,3.,-26.5));
#741=CARTESIAN_POINT('Origin',(-15.5,0.,-12.5));
#742=CARTESIAN_POINT('',(-9.99200722162641E-15,0.,-25.));
#743=CARTESIAN_POINT('Origin',(-1.11022302462516E-14,0.,-28.));
#744=CARTESIAN_POINT('',(-2.22044604925031E-15,0.,-6.));
#745=CARTESIAN_POINT('',(0.,0.,0.));
#746=CARTESIAN_POINT('',(1.,0.,-6.));
#747=CARTESIAN_POINT('',(3.,0.,-6.));
#748=CARTESIAN_POINT('',(3.,0.,-4.));
#749=CARTESIAN_POINT('Origin',(1.,0.,-4.));
#750=CARTESIAN_POINT('',(3.,0.,-3.));
#751=CARTESIAN_POINT('',(3.,0.,0.));
#752=CARTESIAN_POINT('',(1.,0.,-1.));
#753=CARTESIAN_POINT('Origin',(1.,0.,-3.));
#754=CARTESIAN_POINT('',(-20.,0.,-1.));
#755=CARTESIAN_POINT('',(-23.25,0.,-1.));
#756=CARTESIAN_POINT('',(-20.,0.,9.));
#757=CARTESIAN_POINT('',(-20.,0.,-1.));
#758=CARTESIAN_POINT('',(-32.,5.55111512312578E-16,9.));
#759=CARTESIAN_POINT('',(-32.,5.55111512312578E-16,9.));
#760=CARTESIAN_POINT('',(-32.,5.55111512312578E-16,-1.));
#761=CARTESIAN_POINT('',(-32.,5.55111512312578E-16,-1.));
#762=CARTESIAN_POINT('',(-31.,0.,-1.));
#763=CARTESIAN_POINT('',(-32.,5.55111512312578E-16,-1.));
#764=CARTESIAN_POINT('',(-31.,0.,-3.));
#765=CARTESIAN_POINT('',(-31.,0.,-3.));
#766=CARTESIAN_POINT('',(-3.,0.,-3.));
#767=CARTESIAN_POINT('',(-23.55,0.,5.06));
#768=CARTESIAN_POINT('Origin',(-22.5,0.,5.06));
#769=CARTESIAN_POINT('',(-2.00000000000001,0.,-28.));
#770=CARTESIAN_POINT('Origin',(-1.11022302462516E-14,0.,-28.));
#771=CARTESIAN_POINT('',(1.5,0.,-3.));
#772=CARTESIAN_POINT('Origin',(0.,0.,-3.));
#773=CARTESIAN_POINT('Origin',(1.,8.,-4.));
#774=CARTESIAN_POINT('',(1.,8.,-6.));
#775=CARTESIAN_POINT('',(1.,8.,-6.));
#776=CARTESIAN_POINT('',(3.,8.,-4.));
#777=CARTESIAN_POINT('Origin',(1.,8.,-4.));
#778=CARTESIAN_POINT('',(3.,8.,-4.));
#779=CARTESIAN_POINT('Origin',(3.,8.,-6.));
#780=CARTESIAN_POINT('',(3.,8.,-3.));
#781=CARTESIAN_POINT('',(3.,8.,0.));
#782=CARTESIAN_POINT('',(3.,8.,-3.));
#783=CARTESIAN_POINT('Origin',(1.,8.,-3.));
#784=CARTESIAN_POINT('',(1.,8.,-1.));
#785=CARTESIAN_POINT('Origin',(1.,8.,-3.));
#786=CARTESIAN_POINT('',(1.,8.,-1.));
#787=CARTESIAN_POINT('Origin',(-1.11022302462516E-14,8.,-28.));
#788=CARTESIAN_POINT('',(-9.99200722162641E-15,3.,-25.));
#789=CARTESIAN_POINT('Origin',(-1.11022302462516E-14,3.,-28.));
#790=CARTESIAN_POINT('',(-9.99200722162641E-15,0.,-25.));
#791=CARTESIAN_POINT('Origin',(-1.11022302462516E-14,3.,-28.));
#792=CARTESIAN_POINT('',(-3.00000000000001,3.,-25.));
#793=CARTESIAN_POINT('',(-2.00000000000001,3.,-28.));
#794=CARTESIAN_POINT('Origin',(-1.11022302462516E-14,3.,-28.));
#795=CARTESIAN_POINT('Origin',(-22.5,1.5,5.06));
#796=CARTESIAN_POINT('',(-23.55,1.5,5.06));
#797=CARTESIAN_POINT('Origin',(-32.,1.5,-1.));
#798=CARTESIAN_POINT('',(-32.,1.5,-1.));
#799=CARTESIAN_POINT('',(-32.,1.5,9.));
#800=CARTESIAN_POINT('Origin',(-20.,0.,-1.));
#801=CARTESIAN_POINT('',(-20.,4.,-1.));
#802=CARTESIAN_POINT('',(-20.,0.,9.));
#803=CARTESIAN_POINT('Origin',(-26.,0.75,9.));
#804=CARTESIAN_POINT('Origin',(-26.,0.75,-1.));
#805=CARTESIAN_POINT('',(-31.,4.,-1.));
#806=CARTESIAN_POINT('Origin',(-31.,6.,1.));
#807=CARTESIAN_POINT('',(-31.,6.,-0.5));
#808=CARTESIAN_POINT('Origin',(-31.,6.,1.));
#809=CARTESIAN_POINT('',(-25.,6.,-0.5));
#810=CARTESIAN_POINT('',(-31.,6.,-0.5));
#811=CARTESIAN_POINT('Origin',(-25.,6.,1.));
#812=CARTESIAN_POINT('Origin',(-25.,6.,1.));
#813=CARTESIAN_POINT('Origin',(-24.,4.,-1.));
#814=CARTESIAN_POINT('',(-24.,8.,-1.));
#815=CARTESIAN_POINT('',(-24.,6.,-1.));
#816=CARTESIAN_POINT('',(-24.,8.,3.));
#817=CARTESIAN_POINT('',(-24.,8.,-1.));
#818=CARTESIAN_POINT('',(-24.,1.5,3.));
#819=CARTESIAN_POINT('Origin',(-27.5,6.,3.));
#820=CARTESIAN_POINT('',(-31.,8.,3.));
#821=CARTESIAN_POINT('',(-24.,8.,3.));
#822=CARTESIAN_POINT('',(-31.,8.,3.));
#823=CARTESIAN_POINT('Origin',(-31.,8.,-1.));
#824=CARTESIAN_POINT('',(-23.25,8.,-1.));
#825=CARTESIAN_POINT('Origin',(-1.11022302462516E-14,3.,-28.));
#826=CARTESIAN_POINT('',(-2.00000000000001,3.,-28.));
#827=CARTESIAN_POINT('Origin',(2.99999999999999,8.,-25.));
#828=CARTESIAN_POINT('',(-8.88178419700125E-15,8.,-25.));
#829=CARTESIAN_POINT('',(-9.99200722162641E-15,0.,-25.));
#830=CARTESIAN_POINT('',(-6.25000000000001,8.,-25.));
#831=CARTESIAN_POINT('Origin',(-15.5,8.,-12.5));
#832=CARTESIAN_POINT('',(-2.22044604925031E-15,8.,-6.));
#833=CARTESIAN_POINT('',(3.,8.,-6.));
#834=CARTESIAN_POINT('',(0.,8.,0.));
#835=CARTESIAN_POINT('',(-31.,8.,-3.));
#836=CARTESIAN_POINT('',(-3.,8.,-3.));
#837=CARTESIAN_POINT('',(-31.,8.,-3.));
#838=CARTESIAN_POINT('Origin',(0.,5.,-3.));
#839=CARTESIAN_POINT('',(1.5,5.,-3.));
#840=CARTESIAN_POINT('Origin',(0.,5.,-3.));
#841=CARTESIAN_POINT('Origin',(0.,8.,-3.));
#842=CARTESIAN_POINT('',(1.5,8.,-3.));
#843=CARTESIAN_POINT('Origin',(-3.,8.,-6.));
#844=CARTESIAN_POINT('',(-2.4980018054066E-15,4.,-6.));
#845=CARTESIAN_POINT('Origin',(0.,0.,0.));
#846=CARTESIAN_POINT('Origin',(-31.,0.,-3.));
#847=CARTESIAN_POINT('',(-31.,0.,-3.));
#848=CARTESIAN_POINT('Origin',(-3.,0.,-3.));
#849=UNCERTAINTY_MEASURE_WITH_UNIT(LENGTH_MEASURE(0.01),#853,
'DISTANCE_ACCURACY_VALUE',
'Maximum model space distance between geometric entities at asserted c
onnectivities');
#850=UNCERTAINTY_MEASURE_WITH_UNIT(LENGTH_MEASURE(0.01),#853,
'DISTANCE_ACCURACY_VALUE',
'Maximum model space distance between geometric entities at asserted c
onnectivities');
#851=(
GEOMETRIC_REPRESENTATION_CONTEXT(3)
GLOBAL_UNCERTAINTY_ASSIGNED_CONTEXT((#849))
GLOBAL_UNIT_ASSIGNED_CONTEXT((#853,#855,#856))
REPRESENTATION_CONTEXT('','3D')
);
#852=(
GEOMETRIC_REPRESENTATION_CONTEXT(3)
GLOBAL_UNCERTAINTY_ASSIGNED_CONTEXT((#850))
GLOBAL_UNIT_ASSIGNED_CONTEXT((#853,#855,#856))
REPRESENTATION_CONTEXT('','3D')
);
#853=(
LENGTH_UNIT()
NAMED_UNIT(*)
SI_UNIT(.MILLI.,.METRE.)
);
#854=(
LENGTH_UNIT()
NAMED_UNIT(*)
SI_UNIT(.CENTI.,.METRE.)
);
#855=(
NAMED_UNIT(*)
PLANE_ANGLE_UNIT()
SI_UNIT($,.RADIAN.)
);
#856=(
NAMED_UNIT(*)
SI_UNIT($,.STERADIAN.)
SOLID_ANGLE_UNIT()
);
#857=SHAPE_DEFINITION_REPRESENTATION(#858,#859);
#858=PRODUCT_DEFINITION_SHAPE('',$,#861);
#859=SHAPE_REPRESENTATION('',(#528),#851);
#860=PRODUCT_DEFINITION_CONTEXT('part definition',#865,'design');
#861=PRODUCT_DEFINITION('lewascianako\X2\0142\X0\o','lewascianako\X2\0142\X0\o',
#862,#860);
#862=PRODUCT_DEFINITION_FORMATION('',$,#867);
#863=PRODUCT_RELATED_PRODUCT_CATEGORY('lewascianako\X2\0142\X0\o',
'lewascianako\X2\0142\X0\o',(#867));
#864=APPLICATION_PROTOCOL_DEFINITION('international standard',
'automotive_design',2009,#865);
#865=APPLICATION_CONTEXT(
'Core Data for Automotive Mechanical Design Process');
#866=PRODUCT_CONTEXT('part definition',#865,'mechanical');
#867=PRODUCT('lewascianako\X2\0142\X0\o','lewascianako\X2\0142\X0\o',$,
(#866));
#868=PRESENTATION_STYLE_ASSIGNMENT((#869));
#869=SURFACE_STYLE_USAGE(.BOTH.,#872);
#870=SURFACE_STYLE_RENDERING_WITH_PROPERTIES($,#876,(#871));
#871=SURFACE_STYLE_TRANSPARENT(0.);
#872=SURFACE_SIDE_STYLE('',(#873,#870));
#873=SURFACE_STYLE_FILL_AREA(#874);
#874=FILL_AREA_STYLE('',(#875));
#875=FILL_AREA_STYLE_COLOUR('',#876);
#876=COLOUR_RGB('',0.749019607843137,0.749019607843137,0.749019607843137);
ENDSEC;
END-ISO-10303-21;
