ISO-10303-21;
HEADER;
/* Generated by software containing ST-Developer
 * from STEP Tools, Inc. (www.steptools.com) 
 */

FILE_DESCRIPTION(
/* description */ (''),
/* implementation_level */ '2;1');

FILE_NAME(
/* name */ 'prawascianakolo.stp',
/* time_stamp */ '2026-06-24T14:47:46+02:00',
/* author */ ('karol'),
/* organization */ (''),
/* preprocessor_version */ 'ST-DEVELOPER v20.1',
/* originating_system */ 'Autodesk Inventor 2026',
/* authorisation */ '');

FILE_SCHEMA (('AUTOMOTIVE_DESIGN { 1 0 10303 214 3 1 1 }'));
ENDSEC;

DATA;
#10=MECHANICAL_DESIGN_GEOMETRIC_PRESENTATION_REPRESENTATION('',(#13),#819);
#11=SHAPE_REPRESENTATION_RELATIONSHIP('SRR','None',#826,#12);
#12=ADVANCED_BREP_SHAPE_REPRESENTATION('',(#14),#818);
#13=STYLED_ITEM('',(#835),#14);
#14=MANIFOLD_SOLID_BREP('Bry\X2\0142\X0\a1',#485);
#15=CYLINDRICAL_SURFACE('',#514,2.);
#16=CYLINDRICAL_SURFACE('',#524,2.);
#17=CYLINDRICAL_SURFACE('',#528,3.);
#18=CYLINDRICAL_SURFACE('',#529,1.05);
#19=CYLINDRICAL_SURFACE('',#535,1.5);
#20=CYLINDRICAL_SURFACE('',#540,2.);
#21=CYLINDRICAL_SURFACE('',#547,1.5);
#22=FACE_BOUND('',#69,.T.);
#23=FACE_BOUND('',#72,.T.);
#24=FACE_BOUND('',#76,.T.);
#25=FACE_BOUND('',#77,.T.);
#26=FACE_BOUND('',#78,.T.);
#27=FACE_BOUND('',#87,.T.);
#28=CIRCLE('',#509,1.05);
#29=CIRCLE('',#512,3.);
#30=CIRCLE('',#513,2.);
#31=CIRCLE('',#515,2.);
#32=CIRCLE('',#516,2.);
#33=CIRCLE('',#519,3.);
#34=CIRCLE('',#520,2.);
#35=CIRCLE('',#521,1.05);
#36=CIRCLE('',#522,2.);
#37=CIRCLE('',#523,1.5);
#38=CIRCLE('',#525,2.);
#39=CIRCLE('',#533,1.5);
#40=CIRCLE('',#536,1.5);
#41=CIRCLE('',#546,1.5);
#42=FACE_OUTER_BOUND('',#68,.T.);
#43=FACE_OUTER_BOUND('',#70,.T.);
#44=FACE_OUTER_BOUND('',#71,.T.);
#45=FACE_OUTER_BOUND('',#73,.T.);
#46=FACE_OUTER_BOUND('',#74,.T.);
#47=FACE_OUTER_BOUND('',#75,.T.);
#48=FACE_OUTER_BOUND('',#79,.T.);
#49=FACE_OUTER_BOUND('',#80,.T.);
#50=FACE_OUTER_BOUND('',#81,.T.);
#51=FACE_OUTER_BOUND('',#82,.T.);
#52=FACE_OUTER_BOUND('',#83,.T.);
#53=FACE_OUTER_BOUND('',#84,.T.);
#54=FACE_OUTER_BOUND('',#85,.T.);
#55=FACE_OUTER_BOUND('',#86,.T.);
#56=FACE_OUTER_BOUND('',#88,.T.);
#57=FACE_OUTER_BOUND('',#89,.T.);
#58=FACE_OUTER_BOUND('',#90,.T.);
#59=FACE_OUTER_BOUND('',#91,.T.);
#60=FACE_OUTER_BOUND('',#92,.T.);
#61=FACE_OUTER_BOUND('',#93,.T.);
#62=FACE_OUTER_BOUND('',#94,.T.);
#63=FACE_OUTER_BOUND('',#95,.T.);
#64=FACE_OUTER_BOUND('',#96,.T.);
#65=FACE_OUTER_BOUND('',#97,.T.);
#66=FACE_OUTER_BOUND('',#98,.T.);
#67=FACE_OUTER_BOUND('',#99,.T.);
#68=EDGE_LOOP('',(#310,#311,#312,#313,#314,#315));
#69=EDGE_LOOP('',(#316));
#70=EDGE_LOOP('',(#317,#318,#319,#320,#321,#322));
#71=EDGE_LOOP('',(#323,#324,#325,#326));
#72=EDGE_LOOP('',(#327));
#73=EDGE_LOOP('',(#328,#329,#330,#331));
#74=EDGE_LOOP('',(#332,#333,#334,#335,#336,#337));
#75=EDGE_LOOP('',(#338,#339,#340,#341,#342,#343,#344,#345,#346,#347,#348,
#349,#350));
#76=EDGE_LOOP('',(#351));
#77=EDGE_LOOP('',(#352));
#78=EDGE_LOOP('',(#353));
#79=EDGE_LOOP('',(#354,#355,#356,#357));
#80=EDGE_LOOP('',(#358,#359,#360,#361));
#81=EDGE_LOOP('',(#362,#363,#364,#365,#366,#367,#368,#369,#370,#371,#372,
#373));
#82=EDGE_LOOP('',(#374,#375,#376,#377));
#83=EDGE_LOOP('',(#378,#379,#380,#381));
#84=EDGE_LOOP('',(#382,#383,#384,#385));
#85=EDGE_LOOP('',(#386,#387,#388,#389));
#86=EDGE_LOOP('',(#390,#391,#392,#393,#394,#395));
#87=EDGE_LOOP('',(#396));
#88=EDGE_LOOP('',(#397,#398,#399,#400));
#89=EDGE_LOOP('',(#401,#402,#403,#404));
#90=EDGE_LOOP('',(#405));
#91=EDGE_LOOP('',(#406,#407,#408,#409));
#92=EDGE_LOOP('',(#410,#411,#412,#413));
#93=EDGE_LOOP('',(#414,#415,#416,#417));
#94=EDGE_LOOP('',(#418,#419,#420,#421));
#95=EDGE_LOOP('',(#422,#423,#424,#425));
#96=EDGE_LOOP('',(#426,#427,#428,#429,#430));
#97=EDGE_LOOP('',(#431,#432,#433,#434));
#98=EDGE_LOOP('',(#435));
#99=EDGE_LOOP('',(#436,#437,#438,#439));
#100=LINE('',#685,#151);
#101=LINE('',#687,#152);
#102=LINE('',#689,#153);
#103=LINE('',#691,#154);
#104=LINE('',#693,#155);
#105=LINE('',#694,#156);
#106=LINE('',#700,#157);
#107=LINE('',#702,#158);
#108=LINE('',#704,#159);
#109=LINE('',#706,#160);
#110=LINE('',#708,#161);
#111=LINE('',#709,#162);
#112=LINE('',#714,#163);
#113=LINE('',#715,#164);
#114=LINE('',#723,#165);
#115=LINE('',#726,#166);
#116=LINE('',#729,#167);
#117=LINE('',#730,#168);
#118=LINE('',#732,#169);
#119=LINE('',#733,#170);
#120=LINE('',#738,#171);
#121=LINE('',#740,#172);
#122=LINE('',#742,#173);
#123=LINE('',#743,#174);
#124=LINE('',#745,#175);
#125=LINE('',#749,#176);
#126=LINE('',#751,#177);
#127=LINE('',#752,#178);
#128=LINE('',#761,#179);
#129=LINE('',#764,#180);
#130=LINE('',#767,#181);
#131=LINE('',#768,#182);
#132=LINE('',#771,#183);
#133=LINE('',#773,#184);
#134=LINE('',#775,#185);
#135=LINE('',#776,#186);
#136=LINE('',#778,#187);
#137=LINE('',#779,#188);
#138=LINE('',#780,#189);
#139=LINE('',#782,#190);
#140=LINE('',#784,#191);
#141=LINE('',#786,#192);
#142=LINE('',#788,#193);
#143=LINE('',#790,#194);
#144=LINE('',#791,#195);
#145=LINE('',#795,#196);
#146=LINE('',#798,#197);
#147=LINE('',#804,#198);
#148=LINE('',#806,#199);
#149=LINE('',#808,#200);
#150=LINE('',#815,#201);
#151=VECTOR('',#552,10.);
#152=VECTOR('',#553,10.);
#153=VECTOR('',#554,10.);
#154=VECTOR('',#555,10.);
#155=VECTOR('',#556,10.);
#156=VECTOR('',#557,10.);
#157=VECTOR('',#562,10.);
#158=VECTOR('',#563,10.);
#159=VECTOR('',#564,10.);
#160=VECTOR('',#565,10.);
#161=VECTOR('',#566,10.);
#162=VECTOR('',#567,10.);
#163=VECTOR('',#572,10.);
#164=VECTOR('',#573,10.);
#165=VECTOR('',#580,10.);
#166=VECTOR('',#583,10.);
#167=VECTOR('',#586,10.);
#168=VECTOR('',#587,10.);
#169=VECTOR('',#588,10.);
#170=VECTOR('',#589,10.);
#171=VECTOR('',#594,10.);
#172=VECTOR('',#595,10.);
#173=VECTOR('',#596,10.);
#174=VECTOR('',#597,10.);
#175=VECTOR('',#598,10.);
#176=VECTOR('',#601,10.);
#177=VECTOR('',#602,10.);
#178=VECTOR('',#603,10.);
#179=VECTOR('',#612,10.);
#180=VECTOR('',#615,10.);
#181=VECTOR('',#618,10.);
#182=VECTOR('',#619,10.);
#183=VECTOR('',#622,10.);
#184=VECTOR('',#623,10.);
#185=VECTOR('',#624,10.);
#186=VECTOR('',#625,10.);
#187=VECTOR('',#626,10.);
#188=VECTOR('',#627,10.);
#189=VECTOR('',#628,10.);
#190=VECTOR('',#631,10.);
#191=VECTOR('',#634,1.05);
#192=VECTOR('',#637,10.);
#193=VECTOR('',#640,10.);
#194=VECTOR('',#643,10.);
#195=VECTOR('',#644,10.);
#196=VECTOR('',#649,10.);
#197=VECTOR('',#652,1.5);
#198=VECTOR('',#663,2.);
#199=VECTOR('',#666,10.);
#200=VECTOR('',#669,10.);
#201=VECTOR('',#680,1.5);
#202=VERTEX_POINT('',#683);
#203=VERTEX_POINT('',#684);
#204=VERTEX_POINT('',#686);
#205=VERTEX_POINT('',#688);
#206=VERTEX_POINT('',#690);
#207=VERTEX_POINT('',#692);
#208=VERTEX_POINT('',#695);
#209=VERTEX_POINT('',#698);
#210=VERTEX_POINT('',#699);
#211=VERTEX_POINT('',#701);
#212=VERTEX_POINT('',#703);
#213=VERTEX_POINT('',#705);
#214=VERTEX_POINT('',#707);
#215=VERTEX_POINT('',#711);
#216=VERTEX_POINT('',#713);
#217=VERTEX_POINT('',#716);
#218=VERTEX_POINT('',#719);
#219=VERTEX_POINT('',#720);
#220=VERTEX_POINT('',#722);
#221=VERTEX_POINT('',#724);
#222=VERTEX_POINT('',#728);
#223=VERTEX_POINT('',#731);
#224=VERTEX_POINT('',#735);
#225=VERTEX_POINT('',#737);
#226=VERTEX_POINT('',#739);
#227=VERTEX_POINT('',#741);
#228=VERTEX_POINT('',#744);
#229=VERTEX_POINT('',#746);
#230=VERTEX_POINT('',#748);
#231=VERTEX_POINT('',#750);
#232=VERTEX_POINT('',#753);
#233=VERTEX_POINT('',#755);
#234=VERTEX_POINT('',#757);
#235=VERTEX_POINT('',#760);
#236=VERTEX_POINT('',#762);
#237=VERTEX_POINT('',#766);
#238=VERTEX_POINT('',#770);
#239=VERTEX_POINT('',#772);
#240=VERTEX_POINT('',#774);
#241=VERTEX_POINT('',#777);
#242=VERTEX_POINT('',#792);
#243=VERTEX_POINT('',#797);
#244=VERTEX_POINT('',#812);
#245=EDGE_CURVE('',#202,#203,#100,.T.);
#246=EDGE_CURVE('',#203,#204,#101,.T.);
#247=EDGE_CURVE('',#205,#204,#102,.T.);
#248=EDGE_CURVE('',#205,#206,#103,.T.);
#249=EDGE_CURVE('',#207,#206,#104,.T.);
#250=EDGE_CURVE('',#202,#207,#105,.T.);
#251=EDGE_CURVE('',#208,#208,#28,.T.);
#252=EDGE_CURVE('',#209,#210,#106,.T.);
#253=EDGE_CURVE('',#209,#211,#107,.T.);
#254=EDGE_CURVE('',#211,#212,#108,.T.);
#255=EDGE_CURVE('',#213,#212,#109,.T.);
#256=EDGE_CURVE('',#214,#213,#110,.T.);
#257=EDGE_CURVE('',#214,#210,#111,.T.);
#258=EDGE_CURVE('',#215,#209,#29,.T.);
#259=EDGE_CURVE('',#215,#216,#112,.T.);
#260=EDGE_CURVE('',#211,#216,#113,.T.);
#261=EDGE_CURVE('',#217,#217,#30,.T.);
#262=EDGE_CURVE('',#218,#219,#31,.T.);
#263=EDGE_CURVE('',#219,#220,#114,.T.);
#264=EDGE_CURVE('',#220,#221,#32,.T.);
#265=EDGE_CURVE('',#221,#218,#115,.T.);
#266=EDGE_CURVE('',#204,#222,#116,.T.);
#267=EDGE_CURVE('',#218,#222,#117,.T.);
#268=EDGE_CURVE('',#223,#221,#118,.T.);
#269=EDGE_CURVE('',#223,#205,#119,.T.);
#270=EDGE_CURVE('',#210,#224,#33,.T.);
#271=EDGE_CURVE('',#225,#214,#120,.T.);
#272=EDGE_CURVE('',#226,#225,#121,.T.);
#273=EDGE_CURVE('',#227,#226,#122,.T.);
#274=EDGE_CURVE('',#223,#227,#123,.T.);
#275=EDGE_CURVE('',#220,#228,#124,.T.);
#276=EDGE_CURVE('',#229,#228,#34,.T.);
#277=EDGE_CURVE('',#229,#230,#125,.T.);
#278=EDGE_CURVE('',#230,#231,#126,.T.);
#279=EDGE_CURVE('',#231,#224,#127,.T.);
#280=EDGE_CURVE('',#232,#232,#35,.T.);
#281=EDGE_CURVE('',#233,#233,#36,.T.);
#282=EDGE_CURVE('',#234,#234,#37,.T.);
#283=EDGE_CURVE('',#228,#235,#128,.T.);
#284=EDGE_CURVE('',#235,#236,#38,.T.);
#285=EDGE_CURVE('',#236,#229,#129,.T.);
#286=EDGE_CURVE('',#237,#236,#130,.T.);
#287=EDGE_CURVE('',#237,#230,#131,.T.);
#288=EDGE_CURVE('',#222,#238,#132,.T.);
#289=EDGE_CURVE('',#239,#238,#133,.T.);
#290=EDGE_CURVE('',#239,#240,#134,.T.);
#291=EDGE_CURVE('',#240,#213,#135,.T.);
#292=EDGE_CURVE('',#212,#241,#136,.T.);
#293=EDGE_CURVE('',#241,#237,#137,.T.);
#294=EDGE_CURVE('',#235,#219,#138,.T.);
#295=EDGE_CURVE('',#224,#215,#139,.T.);
#296=EDGE_CURVE('',#208,#232,#140,.T.);
#297=EDGE_CURVE('',#206,#227,#141,.T.);
#298=EDGE_CURVE('',#226,#207,#142,.T.);
#299=EDGE_CURVE('',#202,#239,#143,.T.);
#300=EDGE_CURVE('',#225,#240,#144,.T.);
#301=EDGE_CURVE('',#242,#242,#39,.T.);
#302=EDGE_CURVE('',#238,#203,#145,.T.);
#303=EDGE_CURVE('',#242,#243,#146,.T.);
#304=EDGE_CURVE('',#243,#243,#40,.T.);
#305=EDGE_CURVE('',#217,#233,#147,.T.);
#306=EDGE_CURVE('',#216,#231,#148,.T.);
#307=EDGE_CURVE('',#241,#216,#149,.T.);
#308=EDGE_CURVE('',#244,#244,#41,.T.);
#309=EDGE_CURVE('',#244,#234,#150,.T.);
#310=ORIENTED_EDGE('',*,*,#245,.T.);
#311=ORIENTED_EDGE('',*,*,#246,.T.);
#312=ORIENTED_EDGE('',*,*,#247,.F.);
#313=ORIENTED_EDGE('',*,*,#248,.T.);
#314=ORIENTED_EDGE('',*,*,#249,.F.);
#315=ORIENTED_EDGE('',*,*,#250,.F.);
#316=ORIENTED_EDGE('',*,*,#251,.T.);
#317=ORIENTED_EDGE('',*,*,#252,.F.);
#318=ORIENTED_EDGE('',*,*,#253,.T.);
#319=ORIENTED_EDGE('',*,*,#254,.T.);
#320=ORIENTED_EDGE('',*,*,#255,.F.);
#321=ORIENTED_EDGE('',*,*,#256,.F.);
#322=ORIENTED_EDGE('',*,*,#257,.T.);
#323=ORIENTED_EDGE('',*,*,#258,.F.);
#324=ORIENTED_EDGE('',*,*,#259,.T.);
#325=ORIENTED_EDGE('',*,*,#260,.F.);
#326=ORIENTED_EDGE('',*,*,#253,.F.);
#327=ORIENTED_EDGE('',*,*,#261,.T.);
#328=ORIENTED_EDGE('',*,*,#262,.T.);
#329=ORIENTED_EDGE('',*,*,#263,.T.);
#330=ORIENTED_EDGE('',*,*,#264,.T.);
#331=ORIENTED_EDGE('',*,*,#265,.T.);
#332=ORIENTED_EDGE('',*,*,#266,.T.);
#333=ORIENTED_EDGE('',*,*,#267,.F.);
#334=ORIENTED_EDGE('',*,*,#265,.F.);
#335=ORIENTED_EDGE('',*,*,#268,.F.);
#336=ORIENTED_EDGE('',*,*,#269,.T.);
#337=ORIENTED_EDGE('',*,*,#247,.T.);
#338=ORIENTED_EDGE('',*,*,#270,.F.);
#339=ORIENTED_EDGE('',*,*,#257,.F.);
#340=ORIENTED_EDGE('',*,*,#271,.F.);
#341=ORIENTED_EDGE('',*,*,#272,.F.);
#342=ORIENTED_EDGE('',*,*,#273,.F.);
#343=ORIENTED_EDGE('',*,*,#274,.F.);
#344=ORIENTED_EDGE('',*,*,#268,.T.);
#345=ORIENTED_EDGE('',*,*,#264,.F.);
#346=ORIENTED_EDGE('',*,*,#275,.T.);
#347=ORIENTED_EDGE('',*,*,#276,.F.);
#348=ORIENTED_EDGE('',*,*,#277,.T.);
#349=ORIENTED_EDGE('',*,*,#278,.T.);
#350=ORIENTED_EDGE('',*,*,#279,.T.);
#351=ORIENTED_EDGE('',*,*,#280,.T.);
#352=ORIENTED_EDGE('',*,*,#281,.T.);
#353=ORIENTED_EDGE('',*,*,#282,.T.);
#354=ORIENTED_EDGE('',*,*,#276,.T.);
#355=ORIENTED_EDGE('',*,*,#283,.T.);
#356=ORIENTED_EDGE('',*,*,#284,.T.);
#357=ORIENTED_EDGE('',*,*,#285,.T.);
#358=ORIENTED_EDGE('',*,*,#285,.F.);
#359=ORIENTED_EDGE('',*,*,#286,.F.);
#360=ORIENTED_EDGE('',*,*,#287,.T.);
#361=ORIENTED_EDGE('',*,*,#277,.F.);
#362=ORIENTED_EDGE('',*,*,#262,.F.);
#363=ORIENTED_EDGE('',*,*,#267,.T.);
#364=ORIENTED_EDGE('',*,*,#288,.T.);
#365=ORIENTED_EDGE('',*,*,#289,.F.);
#366=ORIENTED_EDGE('',*,*,#290,.T.);
#367=ORIENTED_EDGE('',*,*,#291,.T.);
#368=ORIENTED_EDGE('',*,*,#255,.T.);
#369=ORIENTED_EDGE('',*,*,#292,.T.);
#370=ORIENTED_EDGE('',*,*,#293,.T.);
#371=ORIENTED_EDGE('',*,*,#286,.T.);
#372=ORIENTED_EDGE('',*,*,#284,.F.);
#373=ORIENTED_EDGE('',*,*,#294,.T.);
#374=ORIENTED_EDGE('',*,*,#270,.T.);
#375=ORIENTED_EDGE('',*,*,#295,.T.);
#376=ORIENTED_EDGE('',*,*,#258,.T.);
#377=ORIENTED_EDGE('',*,*,#252,.T.);
#378=ORIENTED_EDGE('',*,*,#251,.F.);
#379=ORIENTED_EDGE('',*,*,#296,.T.);
#380=ORIENTED_EDGE('',*,*,#280,.F.);
#381=ORIENTED_EDGE('',*,*,#296,.F.);
#382=ORIENTED_EDGE('',*,*,#269,.F.);
#383=ORIENTED_EDGE('',*,*,#274,.T.);
#384=ORIENTED_EDGE('',*,*,#297,.F.);
#385=ORIENTED_EDGE('',*,*,#248,.F.);
#386=ORIENTED_EDGE('',*,*,#249,.T.);
#387=ORIENTED_EDGE('',*,*,#297,.T.);
#388=ORIENTED_EDGE('',*,*,#273,.T.);
#389=ORIENTED_EDGE('',*,*,#298,.T.);
#390=ORIENTED_EDGE('',*,*,#299,.F.);
#391=ORIENTED_EDGE('',*,*,#250,.T.);
#392=ORIENTED_EDGE('',*,*,#298,.F.);
#393=ORIENTED_EDGE('',*,*,#272,.T.);
#394=ORIENTED_EDGE('',*,*,#300,.T.);
#395=ORIENTED_EDGE('',*,*,#290,.F.);
#396=ORIENTED_EDGE('',*,*,#301,.T.);
#397=ORIENTED_EDGE('',*,*,#302,.F.);
#398=ORIENTED_EDGE('',*,*,#288,.F.);
#399=ORIENTED_EDGE('',*,*,#266,.F.);
#400=ORIENTED_EDGE('',*,*,#246,.F.);
#401=ORIENTED_EDGE('',*,*,#301,.F.);
#402=ORIENTED_EDGE('',*,*,#303,.T.);
#403=ORIENTED_EDGE('',*,*,#304,.T.);
#404=ORIENTED_EDGE('',*,*,#303,.F.);
#405=ORIENTED_EDGE('',*,*,#304,.F.);
#406=ORIENTED_EDGE('',*,*,#299,.T.);
#407=ORIENTED_EDGE('',*,*,#289,.T.);
#408=ORIENTED_EDGE('',*,*,#302,.T.);
#409=ORIENTED_EDGE('',*,*,#245,.F.);
#410=ORIENTED_EDGE('',*,*,#300,.F.);
#411=ORIENTED_EDGE('',*,*,#271,.T.);
#412=ORIENTED_EDGE('',*,*,#256,.T.);
#413=ORIENTED_EDGE('',*,*,#291,.F.);
#414=ORIENTED_EDGE('',*,*,#261,.F.);
#415=ORIENTED_EDGE('',*,*,#305,.T.);
#416=ORIENTED_EDGE('',*,*,#281,.F.);
#417=ORIENTED_EDGE('',*,*,#305,.F.);
#418=ORIENTED_EDGE('',*,*,#295,.F.);
#419=ORIENTED_EDGE('',*,*,#279,.F.);
#420=ORIENTED_EDGE('',*,*,#306,.F.);
#421=ORIENTED_EDGE('',*,*,#259,.F.);
#422=ORIENTED_EDGE('',*,*,#307,.F.);
#423=ORIENTED_EDGE('',*,*,#292,.F.);
#424=ORIENTED_EDGE('',*,*,#254,.F.);
#425=ORIENTED_EDGE('',*,*,#260,.T.);
#426=ORIENTED_EDGE('',*,*,#306,.T.);
#427=ORIENTED_EDGE('',*,*,#278,.F.);
#428=ORIENTED_EDGE('',*,*,#287,.F.);
#429=ORIENTED_EDGE('',*,*,#293,.F.);
#430=ORIENTED_EDGE('',*,*,#307,.T.);
#431=ORIENTED_EDGE('',*,*,#263,.F.);
#432=ORIENTED_EDGE('',*,*,#294,.F.);
#433=ORIENTED_EDGE('',*,*,#283,.F.);
#434=ORIENTED_EDGE('',*,*,#275,.F.);
#435=ORIENTED_EDGE('',*,*,#308,.F.);
#436=ORIENTED_EDGE('',*,*,#308,.T.);
#437=ORIENTED_EDGE('',*,*,#309,.T.);
#438=ORIENTED_EDGE('',*,*,#282,.F.);
#439=ORIENTED_EDGE('',*,*,#309,.F.);
#440=PLANE('',#508);
#441=PLANE('',#510);
#442=PLANE('',#511);
#443=PLANE('',#517);
#444=PLANE('',#518);
#445=PLANE('',#526);
#446=PLANE('',#527);
#447=PLANE('',#530);
#448=PLANE('',#531);
#449=PLANE('',#532);
#450=PLANE('',#534);
#451=PLANE('',#537);
#452=PLANE('',#538);
#453=PLANE('',#539);
#454=PLANE('',#541);
#455=PLANE('',#542);
#456=PLANE('',#543);
#457=PLANE('',#544);
#458=PLANE('',#545);
#459=ADVANCED_FACE('',(#42,#22),#440,.T.);
#460=ADVANCED_FACE('',(#43),#441,.T.);
#461=ADVANCED_FACE('',(#44,#23),#442,.F.);
#462=ADVANCED_FACE('',(#45),#15,.T.);
#463=ADVANCED_FACE('',(#46),#443,.F.);
#464=ADVANCED_FACE('',(#47,#24,#25,#26),#444,.F.);
#465=ADVANCED_FACE('',(#48),#16,.T.);
#466=ADVANCED_FACE('',(#49),#445,.F.);
#467=ADVANCED_FACE('',(#50),#446,.T.);
#468=ADVANCED_FACE('',(#51),#17,.T.);
#469=ADVANCED_FACE('',(#52),#18,.F.);
#470=ADVANCED_FACE('',(#53),#447,.T.);
#471=ADVANCED_FACE('',(#54),#448,.T.);
#472=ADVANCED_FACE('',(#55,#27),#449,.T.);
#473=ADVANCED_FACE('',(#56),#450,.T.);
#474=ADVANCED_FACE('',(#57),#19,.F.);
#475=ADVANCED_FACE('',(#58),#451,.T.);
#476=ADVANCED_FACE('',(#59),#452,.T.);
#477=ADVANCED_FACE('',(#60),#453,.T.);
#478=ADVANCED_FACE('',(#61),#20,.F.);
#479=ADVANCED_FACE('',(#62),#454,.T.);
#480=ADVANCED_FACE('',(#63),#455,.F.);
#481=ADVANCED_FACE('',(#64),#456,.F.);
#482=ADVANCED_FACE('',(#65),#457,.T.);
#483=ADVANCED_FACE('',(#66),#458,.F.);
#484=ADVANCED_FACE('',(#67),#21,.F.);
#485=CLOSED_SHELL('',(#459,#460,#461,#462,#463,#464,#465,#466,#467,#468,
#469,#470,#471,#472,#473,#474,#475,#476,#477,#478,#479,#480,#481,#482,#483,
#484));
#486=DERIVED_UNIT_ELEMENT(#489,1.);
#487=DERIVED_UNIT_ELEMENT(#821,-3.);
#488=DIMENSIONAL_EXPONENTS(0.,1.,0.,0.,0.,0.,0.);
#489=(
CONVERSION_BASED_UNIT('gram',#491)
MASS_UNIT()
NAMED_UNIT(#488)
);
#490=(
MASS_UNIT()
NAMED_UNIT(*)
SI_UNIT(.KILO.,.GRAM.)
);
#491=MASS_MEASURE_WITH_UNIT(MASS_MEASURE(0.001),#490);
#492=DERIVED_UNIT((#486,#487));
#493=MEASURE_REPRESENTATION_ITEM('density measure',
POSITIVE_RATIO_MEASURE(1.),#492);
#494=PROPERTY_DEFINITION_REPRESENTATION(#499,#496);
#495=PROPERTY_DEFINITION_REPRESENTATION(#500,#497);
#496=REPRESENTATION('material name',(#498),#818);
#497=REPRESENTATION('density',(#493),#818);
#498=DESCRIPTIVE_REPRESENTATION_ITEM('Generic','Generic');
#499=PROPERTY_DEFINITION('material property','material name',#828);
#500=PROPERTY_DEFINITION('material property','density of part',#828);
#501=DATE_TIME_ROLE('creation_date');
#502=APPLIED_DATE_AND_TIME_ASSIGNMENT(#503,#501,(#828));
#503=DATE_AND_TIME(#504,#505);
#504=CALENDAR_DATE(2026,27,4);
#505=LOCAL_TIME(0,0,0.,#506);
#506=COORDINATED_UNIVERSAL_TIME_OFFSET(0,0,.BEHIND.);
#507=AXIS2_PLACEMENT_3D('',#681,#548,#549);
#508=AXIS2_PLACEMENT_3D('',#682,#550,#551);
#509=AXIS2_PLACEMENT_3D('',#696,#558,#559);
#510=AXIS2_PLACEMENT_3D('',#697,#560,#561);
#511=AXIS2_PLACEMENT_3D('',#710,#568,#569);
#512=AXIS2_PLACEMENT_3D('',#712,#570,#571);
#513=AXIS2_PLACEMENT_3D('',#717,#574,#575);
#514=AXIS2_PLACEMENT_3D('',#718,#576,#577);
#515=AXIS2_PLACEMENT_3D('',#721,#578,#579);
#516=AXIS2_PLACEMENT_3D('',#725,#581,#582);
#517=AXIS2_PLACEMENT_3D('',#727,#584,#585);
#518=AXIS2_PLACEMENT_3D('',#734,#590,#591);
#519=AXIS2_PLACEMENT_3D('',#736,#592,#593);
#520=AXIS2_PLACEMENT_3D('',#747,#599,#600);
#521=AXIS2_PLACEMENT_3D('',#754,#604,#605);
#522=AXIS2_PLACEMENT_3D('',#756,#606,#607);
#523=AXIS2_PLACEMENT_3D('',#758,#608,#609);
#524=AXIS2_PLACEMENT_3D('',#759,#610,#611);
#525=AXIS2_PLACEMENT_3D('',#763,#613,#614);
#526=AXIS2_PLACEMENT_3D('',#765,#616,#617);
#527=AXIS2_PLACEMENT_3D('',#769,#620,#621);
#528=AXIS2_PLACEMENT_3D('',#781,#629,#630);
#529=AXIS2_PLACEMENT_3D('',#783,#632,#633);
#530=AXIS2_PLACEMENT_3D('',#785,#635,#636);
#531=AXIS2_PLACEMENT_3D('',#787,#638,#639);
#532=AXIS2_PLACEMENT_3D('',#789,#641,#642);
#533=AXIS2_PLACEMENT_3D('',#793,#645,#646);
#534=AXIS2_PLACEMENT_3D('',#794,#647,#648);
#535=AXIS2_PLACEMENT_3D('',#796,#650,#651);
#536=AXIS2_PLACEMENT_3D('',#799,#653,#654);
#537=AXIS2_PLACEMENT_3D('',#800,#655,#656);
#538=AXIS2_PLACEMENT_3D('',#801,#657,#658);
#539=AXIS2_PLACEMENT_3D('',#802,#659,#660);
#540=AXIS2_PLACEMENT_3D('',#803,#661,#662);
#541=AXIS2_PLACEMENT_3D('',#805,#664,#665);
#542=AXIS2_PLACEMENT_3D('',#807,#667,#668);
#543=AXIS2_PLACEMENT_3D('',#809,#670,#671);
#544=AXIS2_PLACEMENT_3D('',#810,#672,#673);
#545=AXIS2_PLACEMENT_3D('',#811,#674,#675);
#546=AXIS2_PLACEMENT_3D('',#813,#676,#677);
#547=AXIS2_PLACEMENT_3D('',#814,#678,#679);
#548=DIRECTION('axis',(0.,0.,1.));
#549=DIRECTION('refdir',(1.,0.,0.));
#550=DIRECTION('center_axis',(0.,1.,0.));
#551=DIRECTION('ref_axis',(1.,0.,0.));
#552=DIRECTION('',(1.,0.,0.));
#553=DIRECTION('',(0.,0.,1.));
#554=DIRECTION('',(-1.,0.,0.));
#555=DIRECTION('',(0.,0.,-1.));
#556=DIRECTION('',(1.,0.,0.));
#557=DIRECTION('',(0.,0.,-1.));
#558=DIRECTION('center_axis',(0.,-1.,0.));
#559=DIRECTION('ref_axis',(1.,0.,0.));
#560=DIRECTION('center_axis',(-1.,0.,3.10862446895044E-16));
#561=DIRECTION('ref_axis',(3.10862446895044E-16,0.,1.));
#562=DIRECTION('',(0.,-1.,0.));
#563=DIRECTION('',(-3.10862446895044E-16,0.,-1.));
#564=DIRECTION('',(0.,1.,0.));
#565=DIRECTION('',(3.10862446895044E-16,0.,1.));
#566=DIRECTION('',(0.,1.,0.));
#567=DIRECTION('',(3.10862446895044E-16,0.,1.));
#568=DIRECTION('center_axis',(0.,-1.,0.));
#569=DIRECTION('ref_axis',(0.,0.,-1.));
#570=DIRECTION('center_axis',(0.,-1.,0.));
#571=DIRECTION('ref_axis',(0.707106781186548,0.,0.707106781186548));
#572=DIRECTION('',(-1.,0.,0.));
#573=DIRECTION('',(1.,0.,0.));
#574=DIRECTION('center_axis',(0.,-1.,0.));
#575=DIRECTION('ref_axis',(1.,0.,0.));
#576=DIRECTION('center_axis',(0.,1.,0.));
#577=DIRECTION('ref_axis',(0.707106781186547,0.,-0.707106781186548));
#578=DIRECTION('center_axis',(0.,-1.,0.));
#579=DIRECTION('ref_axis',(0.707106781186547,0.,-0.707106781186548));
#580=DIRECTION('',(0.,-1.,0.));
#581=DIRECTION('center_axis',(0.,1.,0.));
#582=DIRECTION('ref_axis',(0.707106781186547,0.,-0.707106781186548));
#583=DIRECTION('',(0.,1.,0.));
#584=DIRECTION('center_axis',(0.,0.,1.));
#585=DIRECTION('ref_axis',(1.,0.,0.));
#586=DIRECTION('',(0.,1.,0.));
#587=DIRECTION('',(-1.,0.,0.));
#588=DIRECTION('',(1.,0.,0.));
#589=DIRECTION('',(0.,1.,0.));
#590=DIRECTION('center_axis',(0.,1.,0.));
#591=DIRECTION('ref_axis',(0.,0.,1.));
#592=DIRECTION('center_axis',(0.,1.,0.));
#593=DIRECTION('ref_axis',(-0.707106781186547,0.,0.707106781186548));
#594=DIRECTION('',(1.,0.,0.));
#595=DIRECTION('',(0.,0.,1.));
#596=DIRECTION('',(-1.,0.,0.));
#597=DIRECTION('',(0.,0.,-1.));
#598=DIRECTION('',(0.,0.,1.));
#599=DIRECTION('center_axis',(0.,1.,0.));
#600=DIRECTION('ref_axis',(0.707106781186547,0.,0.707106781186548));
#601=DIRECTION('',(-1.,0.,0.));
#602=DIRECTION('',(3.46944695195361E-16,0.,1.));
#603=DIRECTION('',(1.,0.,0.));
#604=DIRECTION('center_axis',(0.,1.,0.));
#605=DIRECTION('ref_axis',(1.,0.,0.));
#606=DIRECTION('center_axis',(0.,1.,0.));
#607=DIRECTION('ref_axis',(1.,0.,0.));
#608=DIRECTION('center_axis',(0.,1.,0.));
#609=DIRECTION('ref_axis',(1.,0.,0.));
#610=DIRECTION('center_axis',(0.,-1.,0.));
#611=DIRECTION('ref_axis',(0.707106781186547,0.,0.707106781186548));
#612=DIRECTION('',(0.,1.,0.));
#613=DIRECTION('center_axis',(0.,-1.,0.));
#614=DIRECTION('ref_axis',(0.707106781186547,0.,0.707106781186548));
#615=DIRECTION('',(0.,-1.,0.));
#616=DIRECTION('center_axis',(0.,0.,-1.));
#617=DIRECTION('ref_axis',(-1.,0.,0.));
#618=DIRECTION('',(1.,0.,0.));
#619=DIRECTION('',(0.,-1.,-3.61223587900428E-32));
#620=DIRECTION('center_axis',(0.,1.,0.));
#621=DIRECTION('ref_axis',(0.,0.,1.));
#622=DIRECTION('',(0.,0.,-1.));
#623=DIRECTION('',(1.,-1.22464679914735E-16,0.));
#624=DIRECTION('',(0.,0.,1.));
#625=DIRECTION('',(1.,0.,0.));
#626=DIRECTION('',(1.,0.,0.));
#627=DIRECTION('',(-3.46944695195361E-16,0.,-1.));
#628=DIRECTION('',(0.,0.,-1.));
#629=DIRECTION('center_axis',(0.,-1.,0.));
#630=DIRECTION('ref_axis',(0.707106781186547,0.,0.707106781186548));
#631=DIRECTION('',(0.,1.,0.));
#632=DIRECTION('center_axis',(0.,-1.,0.));
#633=DIRECTION('ref_axis',(1.,0.,0.));
#634=DIRECTION('',(0.,-1.,0.));
#635=DIRECTION('center_axis',(1.,0.,0.));
#636=DIRECTION('ref_axis',(0.,-1.,0.));
#637=DIRECTION('',(0.,-1.,0.));
#638=DIRECTION('center_axis',(0.,0.,-1.));
#639=DIRECTION('ref_axis',(-1.,0.,0.));
#640=DIRECTION('',(0.,1.,0.));
#641=DIRECTION('center_axis',(-1.,0.,0.));
#642=DIRECTION('ref_axis',(0.,0.,1.));
#643=DIRECTION('',(0.,1.,0.));
#644=DIRECTION('',(0.,1.,0.));
#645=DIRECTION('center_axis',(1.,0.,0.));
#646=DIRECTION('ref_axis',(0.,0.,1.));
#647=DIRECTION('center_axis',(1.,0.,0.));
#648=DIRECTION('ref_axis',(0.,-1.,0.));
#649=DIRECTION('',(0.,-1.,0.));
#650=DIRECTION('center_axis',(1.,0.,0.));
#651=DIRECTION('ref_axis',(0.,0.,1.));
#652=DIRECTION('',(1.,0.,0.));
#653=DIRECTION('center_axis',(1.,0.,0.));
#654=DIRECTION('ref_axis',(0.,0.,1.));
#655=DIRECTION('center_axis',(-1.,0.,0.));
#656=DIRECTION('ref_axis',(0.,0.,1.));
#657=DIRECTION('center_axis',(0.,0.,-1.));
#658=DIRECTION('ref_axis',(-1.,0.,0.));
#659=DIRECTION('center_axis',(0.,0.,1.));
#660=DIRECTION('ref_axis',(1.,0.,0.));
#661=DIRECTION('center_axis',(0.,-1.,0.));
#662=DIRECTION('ref_axis',(1.,0.,0.));
#663=DIRECTION('',(0.,-1.,0.));
#664=DIRECTION('center_axis',(0.,0.,-1.));
#665=DIRECTION('ref_axis',(1.,0.,0.));
#666=DIRECTION('',(0.,-1.,0.));
#667=DIRECTION('center_axis',(0.,0.,-1.));
#668=DIRECTION('ref_axis',(1.,0.,0.));
#669=DIRECTION('',(0.,-1.,0.));
#670=DIRECTION('center_axis',(-1.,0.,0.));
#671=DIRECTION('ref_axis',(0.,0.,1.));
#672=DIRECTION('center_axis',(1.,0.,0.));
#673=DIRECTION('ref_axis',(0.,0.,1.));
#674=DIRECTION('center_axis',(0.,1.,0.));
#675=DIRECTION('ref_axis',(0.,0.,1.));
#676=DIRECTION('center_axis',(0.,1.,0.));
#677=DIRECTION('ref_axis',(1.,0.,0.));
#678=DIRECTION('center_axis',(0.,-1.,0.));
#679=DIRECTION('ref_axis',(1.,0.,0.));
#680=DIRECTION('',(0.,-1.,0.));
#681=CARTESIAN_POINT('',(0.,0.,0.));
#682=CARTESIAN_POINT('Origin',(-31.,1.5,-24.));
#683=CARTESIAN_POINT('',(-31.,1.5,-28.));
#684=CARTESIAN_POINT('',(-24.,1.5,-28.));
#685=CARTESIAN_POINT('',(-27.5,1.5,-28.));
#686=CARTESIAN_POINT('',(-24.,1.5,-24.));
#687=CARTESIAN_POINT('',(-24.,1.5,-24.));
#688=CARTESIAN_POINT('',(-21.5,1.5,-24.));
#689=CARTESIAN_POINT('',(-22.5,1.5,-24.));
#690=CARTESIAN_POINT('',(-21.5,1.5,-33.5));
#691=CARTESIAN_POINT('',(-21.5,1.5,-24.));
#692=CARTESIAN_POINT('',(-31.,1.5,-33.5));
#693=CARTESIAN_POINT('',(-31.,1.5,-33.5));
#694=CARTESIAN_POINT('',(-31.,1.5,-24.));
#695=CARTESIAN_POINT('',(-28.05,1.5,-29.4));
#696=CARTESIAN_POINT('Origin',(-27.,1.5,-29.4));
#697=CARTESIAN_POINT('Origin',(-3.00000000000001,0.,-22.));
#698=CARTESIAN_POINT('',(-3.,3.,3.));
#699=CARTESIAN_POINT('',(-3.,0.,3.));
#700=CARTESIAN_POINT('',(-3.,1.5,3.));
#701=CARTESIAN_POINT('',(-3.,3.,0.));
#702=CARTESIAN_POINT('',(-3.,3.,-9.5));
#703=CARTESIAN_POINT('',(-3.,8.,0.));
#704=CARTESIAN_POINT('',(-3.,4.,0.));
#705=CARTESIAN_POINT('',(-3.00000000000001,8.,-22.));
#706=CARTESIAN_POINT('',(-3.00000000000001,8.,-25.));
#707=CARTESIAN_POINT('',(-3.00000000000001,0.,-22.));
#708=CARTESIAN_POINT('',(-3.00000000000001,0.,-22.));
#709=CARTESIAN_POINT('',(-3.00000000000001,0.,-25.));
#710=CARTESIAN_POINT('Origin',(0.,3.,3.));
#711=CARTESIAN_POINT('',(0.,3.,0.));
#712=CARTESIAN_POINT('Origin',(0.,3.,3.));
#713=CARTESIAN_POINT('',(-1.00000000000001,3.,0.));
#714=CARTESIAN_POINT('',(3.,3.,0.));
#715=CARTESIAN_POINT('',(3.,3.,0.));
#716=CARTESIAN_POINT('',(-2.,3.,3.));
#717=CARTESIAN_POINT('Origin',(0.,3.,3.));
#718=CARTESIAN_POINT('Origin',(0.99999999999999,6.,-22.));
#719=CARTESIAN_POINT('',(0.99999999999999,8.,-24.));
#720=CARTESIAN_POINT('',(3.,8.,-22.));
#721=CARTESIAN_POINT('Origin',(0.99999999999999,8.,-22.));
#722=CARTESIAN_POINT('',(2.99999999999999,0.,-22.));
#723=CARTESIAN_POINT('',(2.99999999999999,6.,-22.));
#724=CARTESIAN_POINT('',(0.99999999999999,0.,-24.));
#725=CARTESIAN_POINT('Origin',(0.99999999999999,0.,-22.));
#726=CARTESIAN_POINT('',(0.99999999999999,6.,-24.));
#727=CARTESIAN_POINT('Origin',(-14.,4.,-24.));
#728=CARTESIAN_POINT('',(-24.,8.,-24.));
#729=CARTESIAN_POINT('',(-24.,2.75,-24.));
#730=CARTESIAN_POINT('',(-14.75,8.,-24.));
#731=CARTESIAN_POINT('',(-21.5,0.,-24.));
#732=CARTESIAN_POINT('',(-14.75,0.,-24.));
#733=CARTESIAN_POINT('',(-21.5,2.75,-24.));
#734=CARTESIAN_POINT('Origin',(-15.5,0.,-12.5));
#735=CARTESIAN_POINT('',(0.,-1.11022302462516E-15,0.));
#736=CARTESIAN_POINT('Origin',(1.11022302462516E-15,0.,3.));
#737=CARTESIAN_POINT('',(-31.,0.,-22.));
#738=CARTESIAN_POINT('',(-31.,0.,-22.));
#739=CARTESIAN_POINT('',(-31.,0.,-33.5));
#740=CARTESIAN_POINT('',(-31.,0.,-25.));
#741=CARTESIAN_POINT('',(-21.5,0.,-33.5));
#742=CARTESIAN_POINT('',(-3.00000000000002,0.,-33.5));
#743=CARTESIAN_POINT('',(-21.5,0.,-24.));
#744=CARTESIAN_POINT('',(2.99999999999999,0.,-21.5));
#745=CARTESIAN_POINT('',(2.99999999999999,0.,-19.));
#746=CARTESIAN_POINT('',(0.99999999999999,0.,-19.5));
#747=CARTESIAN_POINT('Origin',(0.999999999999989,0.,-21.5));
#748=CARTESIAN_POINT('',(-1.00000000000001,0.,-19.5));
#749=CARTESIAN_POINT('',(-7.75000000000001,0.,-19.5));
#750=CARTESIAN_POINT('',(-1.00000000000001,-1.11022302462516E-15,0.));
#751=CARTESIAN_POINT('',(-1.,0.,-5.4));
#752=CARTESIAN_POINT('',(3.,-1.11022302462516E-15,0.));
#753=CARTESIAN_POINT('',(-28.05,0.,-29.4));
#754=CARTESIAN_POINT('Origin',(-27.,0.,-29.4));
#755=CARTESIAN_POINT('',(-2.,0.,3.));
#756=CARTESIAN_POINT('Origin',(0.,0.,3.));
#757=CARTESIAN_POINT('',(-1.50000000000001,0.,-22.));
#758=CARTESIAN_POINT('Origin',(-1.11022302462516E-14,0.,-22.));
#759=CARTESIAN_POINT('Origin',(0.999999999999989,6.,-21.5));
#760=CARTESIAN_POINT('',(3.,8.,-21.5));
#761=CARTESIAN_POINT('',(2.99999999999999,6.,-21.5));
#762=CARTESIAN_POINT('',(0.99999999999999,8.,-19.5));
#763=CARTESIAN_POINT('Origin',(0.999999999999989,8.,-21.5));
#764=CARTESIAN_POINT('',(0.999999999999989,6.,-19.5));
#765=CARTESIAN_POINT('Origin',(1.5,4.,-19.5));
#766=CARTESIAN_POINT('',(-1.00000000000001,8.,-19.5));
#767=CARTESIAN_POINT('',(-7.75000000000001,8.,-19.5));
#768=CARTESIAN_POINT('',(-1.00000000000001,6.57426929978778E-31,-19.5));
#769=CARTESIAN_POINT('Origin',(-15.5,8.,-12.5));
#770=CARTESIAN_POINT('',(-24.,8.,-28.));
#771=CARTESIAN_POINT('',(-24.,8.,-24.));
#772=CARTESIAN_POINT('',(-31.,8.,-28.));
#773=CARTESIAN_POINT('',(-31.,8.,-28.));
#774=CARTESIAN_POINT('',(-31.,8.,-22.));
#775=CARTESIAN_POINT('',(-31.,8.,-25.));
#776=CARTESIAN_POINT('',(-31.,8.,-22.));
#777=CARTESIAN_POINT('',(-0.999999999999999,8.,0.));
#778=CARTESIAN_POINT('',(-9.25,8.,0.));
#779=CARTESIAN_POINT('',(-1.,8.,-5.4));
#780=CARTESIAN_POINT('',(3.,8.,-24.));
#781=CARTESIAN_POINT('Origin',(0.,3.,3.));
#782=CARTESIAN_POINT('',(0.,3.,0.));
#783=CARTESIAN_POINT('Origin',(-27.,1.5,-29.4));
#784=CARTESIAN_POINT('',(-28.05,1.5,-29.4));
#785=CARTESIAN_POINT('Origin',(-21.5,1.5,-24.));
#786=CARTESIAN_POINT('',(-21.5,1.5,-33.5));
#787=CARTESIAN_POINT('Origin',(-26.25,0.75,-33.5));
#788=CARTESIAN_POINT('',(-31.,0.,-33.5));
#789=CARTESIAN_POINT('Origin',(-31.,0.,-25.));
#790=CARTESIAN_POINT('',(-31.,1.5,-28.));
#791=CARTESIAN_POINT('',(-31.,2.,-22.));
#792=CARTESIAN_POINT('',(-31.,6.,-27.5));
#793=CARTESIAN_POINT('Origin',(-31.,6.,-26.));
#794=CARTESIAN_POINT('Origin',(-24.,8.,-24.));
#795=CARTESIAN_POINT('',(-24.,8.,-28.));
#796=CARTESIAN_POINT('Origin',(-31.,6.,-26.));
#797=CARTESIAN_POINT('',(-25.,6.,-27.5));
#798=CARTESIAN_POINT('',(-31.,6.,-27.5));
#799=CARTESIAN_POINT('Origin',(-25.,6.,-26.));
#800=CARTESIAN_POINT('Origin',(-25.,6.,-26.));
#801=CARTESIAN_POINT('Origin',(-27.5,6.,-28.));
#802=CARTESIAN_POINT('Origin',(-31.,0.,-22.));
#803=CARTESIAN_POINT('Origin',(0.,3.,3.));
#804=CARTESIAN_POINT('',(-2.,3.,3.));
#805=CARTESIAN_POINT('Origin',(-3.,3.,0.));
#806=CARTESIAN_POINT('',(-1.00000000000001,3.5,0.));
#807=CARTESIAN_POINT('Origin',(-3.,8.,0.));
#808=CARTESIAN_POINT('',(-1.00000000000001,6.,0.));
#809=CARTESIAN_POINT('Origin',(-1.00000000000001,4.,-10.4));
#810=CARTESIAN_POINT('Origin',(2.99999999999999,8.,-25.));
#811=CARTESIAN_POINT('Origin',(-1.11022302462516E-14,5.,-22.));
#812=CARTESIAN_POINT('',(-1.50000000000001,5.,-22.));
#813=CARTESIAN_POINT('Origin',(-1.11022302462516E-14,5.,-22.));
#814=CARTESIAN_POINT('Origin',(-1.11022302462516E-14,8.,-22.));
#815=CARTESIAN_POINT('',(-1.50000000000001,8.,-22.));
#816=UNCERTAINTY_MEASURE_WITH_UNIT(LENGTH_MEASURE(0.01),#820,
'DISTANCE_ACCURACY_VALUE',
'Maximum model space distance between geometric entities at asserted c
onnectivities');
#817=UNCERTAINTY_MEASURE_WITH_UNIT(LENGTH_MEASURE(0.01),#820,
'DISTANCE_ACCURACY_VALUE',
'Maximum model space distance between geometric entities at asserted c
onnectivities');
#818=(
GEOMETRIC_REPRESENTATION_CONTEXT(3)
GLOBAL_UNCERTAINTY_ASSIGNED_CONTEXT((#816))
GLOBAL_UNIT_ASSIGNED_CONTEXT((#820,#822,#823))
REPRESENTATION_CONTEXT('','3D')
);
#819=(
GEOMETRIC_REPRESENTATION_CONTEXT(3)
GLOBAL_UNCERTAINTY_ASSIGNED_CONTEXT((#817))
GLOBAL_UNIT_ASSIGNED_CONTEXT((#820,#822,#823))
REPRESENTATION_CONTEXT('','3D')
);
#820=(
LENGTH_UNIT()
NAMED_UNIT(*)
SI_UNIT(.MILLI.,.METRE.)
);
#821=(
LENGTH_UNIT()
NAMED_UNIT(*)
SI_UNIT(.CENTI.,.METRE.)
);
#822=(
NAMED_UNIT(*)
PLANE_ANGLE_UNIT()
SI_UNIT($,.RADIAN.)
);
#823=(
NAMED_UNIT(*)
SI_UNIT($,.STERADIAN.)
SOLID_ANGLE_UNIT()
);
#824=SHAPE_DEFINITION_REPRESENTATION(#825,#826);
#825=PRODUCT_DEFINITION_SHAPE('',$,#828);
#826=SHAPE_REPRESENTATION('',(#507),#818);
#827=PRODUCT_DEFINITION_CONTEXT('part definition',#832,'design');
#828=PRODUCT_DEFINITION('prawascianakolo','prawascianakolo',#829,#827);
#829=PRODUCT_DEFINITION_FORMATION('',$,#834);
#830=PRODUCT_RELATED_PRODUCT_CATEGORY('prawascianakolo',
'prawascianakolo',(#834));
#831=APPLICATION_PROTOCOL_DEFINITION('international standard',
'automotive_design',2009,#832);
#832=APPLICATION_CONTEXT(
'Core Data for Automotive Mechanical Design Process');
#833=PRODUCT_CONTEXT('part definition',#832,'mechanical');
#834=PRODUCT('prawascianakolo','prawascianakolo',$,(#833));
#835=PRESENTATION_STYLE_ASSIGNMENT((#836));
#836=SURFACE_STYLE_USAGE(.BOTH.,#839);
#837=SURFACE_STYLE_RENDERING_WITH_PROPERTIES($,#843,(#838));
#838=SURFACE_STYLE_TRANSPARENT(0.);
#839=SURFACE_SIDE_STYLE('',(#840,#837));
#840=SURFACE_STYLE_FILL_AREA(#841);
#841=FILL_AREA_STYLE('',(#842));
#842=FILL_AREA_STYLE_COLOUR('',#843);
#843=COLOUR_RGB('',0.749019607843137,0.749019607843137,0.749019607843137);
ENDSEC;
END-ISO-10303-21;
