ISO-10303-21;
HEADER;
/* Generated by software containing ST-Developer
 * from STEP Tools, Inc. (www.steptools.com) 
 */

FILE_DESCRIPTION(
/* description */ (''),
/* implementation_level */ '2;1');

FILE_NAME(
/* name */ 'rim-v1.stp',
/* time_stamp */ '2026-06-23T09:28:28+02:00',
/* author */ ('karol'),
/* organization */ (''),
/* preprocessor_version */ 'ST-DEVELOPER v20.1',
/* originating_system */ 'Autodesk Inventor 2026',
/* authorisation */ '');

FILE_SCHEMA (('AUTOMOTIVE_DESIGN { 1 0 10303 214 3 1 1 }'));
ENDSEC;

DATA;
#10=MECHANICAL_DESIGN_GEOMETRIC_PRESENTATION_REPRESENTATION('',(#16),#883);
#11=GEOMETRICALLY_BOUNDED_WIREFRAME_SHAPE_REPRESENTATION('',(#12),#882);
#12=GEOMETRIC_CURVE_SET('Sketch5',(#879));
#13=SHAPE_REPRESENTATION_RELATIONSHIP('SRR','None',#890,#15);
#14=SHAPE_REPRESENTATION_RELATIONSHIP('SRR','None',#890,#11);
#15=ADVANCED_BREP_SHAPE_REPRESENTATION('',(#17),#882);
#16=STYLED_ITEM('',(#899),#17);
#17=MANIFOLD_SOLID_BREP('Solid1',#387);
#18=B_SPLINE_SURFACE_WITH_KNOTS('',3,3,((#723,#724,#725,#726,#727,#728,
#729,#730,#731,#732,#733,#734,#735,#736,#737,#738,#739,#740,#741,#742,#743),
(#744,#745,#746,#747,#748,#749,#750,#751,#752,#753,#754,#755,#756,#757,
#758,#759,#760,#761,#762,#763,#764),(#765,#766,#767,#768,#769,#770,#771,
#772,#773,#774,#775,#776,#777,#778,#779,#780,#781,#782,#783,#784,#785),
(#786,#787,#788,#789,#790,#791,#792,#793,#794,#795,#796,#797,#798,#799,
#800,#801,#802,#803,#804,#805,#806)),.UNSPECIFIED.,.F.,.T.,.F.,(4,4),(4,
1,1,1,1,1,1,1,1,1,1,1,1,1,1,1,1,1,4),(0.,1.),(0.,0.0617283672290212,0.123456734458042,
0.185185101687063,0.246913468916085,0.29320974433785,0.339506019759616,
0.370370203374127,0.432098570603148,0.493826937832169,0.52469112144668,
0.543981236205749,0.55555530506119,0.617283672290212,0.679012039519233,
0.740740406748254,0.756172498555509,0.802468773977275,0.864197141206296),
 .UNSPECIFIED.);
#19=FACE_BOUND('',#87,.T.);
#20=FACE_BOUND('',#91,.T.);
#21=FACE_BOUND('',#94,.T.);
#22=FACE_BOUND('',#97,.T.);
#23=FACE_BOUND('',#99,.T.);
#24=FACE_BOUND('',#110,.T.);
#25=FACE_BOUND('',#112,.T.);
#26=FACE_BOUND('',#116,.T.);
#27=CIRCLE('',#412,6.);
#28=CIRCLE('',#413,4.);
#29=CIRCLE('',#415,1.7);
#30=CIRCLE('',#417,6.8);
#31=CIRCLE('',#419,6.);
#32=CIRCLE('',#421,6.8);
#33=CIRCLE('',#424,3.);
#34=CIRCLE('',#425,3.);
#35=CIRCLE('',#427,4.);
#36=CIRCLE('',#429,4.);
#37=CIRCLE('',#431,4.);
#38=CIRCLE('',#433,1.42);
#39=CIRCLE('',#434,1.42);
#40=CIRCLE('',#435,1.42);
#41=CIRCLE('',#436,1.42);
#42=CIRCLE('',#437,1.42);
#43=CIRCLE('',#439,4.);
#44=CIRCLE('',#445,3.);
#45=CIRCLE('',#446,3.);
#46=CIRCLE('',#448,4.);
#47=CIRCLE('',#451,1.7);
#48=PLANE('',#411);
#49=PLANE('',#414);
#50=PLANE('',#416);
#51=PLANE('',#422);
#52=PLANE('',#426);
#53=PLANE('',#428);
#54=PLANE('',#440);
#55=PLANE('',#441);
#56=PLANE('',#442);
#57=PLANE('',#443);
#58=PLANE('',#447);
#59=PLANE('',#449);
#60=PLANE('',#453);
#61=FACE_OUTER_BOUND('',#85,.T.);
#62=FACE_OUTER_BOUND('',#86,.T.);
#63=FACE_OUTER_BOUND('',#88,.T.);
#64=FACE_OUTER_BOUND('',#89,.T.);
#65=FACE_OUTER_BOUND('',#90,.T.);
#66=FACE_OUTER_BOUND('',#92,.T.);
#67=FACE_OUTER_BOUND('',#93,.T.);
#68=FACE_OUTER_BOUND('',#95,.T.);
#69=FACE_OUTER_BOUND('',#96,.T.);
#70=FACE_OUTER_BOUND('',#98,.T.);
#71=FACE_OUTER_BOUND('',#100,.T.);
#72=FACE_OUTER_BOUND('',#101,.T.);
#73=FACE_OUTER_BOUND('',#102,.T.);
#74=FACE_OUTER_BOUND('',#103,.T.);
#75=FACE_OUTER_BOUND('',#104,.T.);
#76=FACE_OUTER_BOUND('',#105,.T.);
#77=FACE_OUTER_BOUND('',#106,.T.);
#78=FACE_OUTER_BOUND('',#107,.T.);
#79=FACE_OUTER_BOUND('',#108,.T.);
#80=FACE_OUTER_BOUND('',#109,.T.);
#81=FACE_OUTER_BOUND('',#111,.T.);
#82=FACE_OUTER_BOUND('',#113,.T.);
#83=FACE_OUTER_BOUND('',#114,.T.);
#84=FACE_OUTER_BOUND('',#115,.T.);
#85=EDGE_LOOP('',(#251,#252,#253,#254,#255,#256,#257));
#86=EDGE_LOOP('',(#258));
#87=EDGE_LOOP('',(#259));
#88=EDGE_LOOP('',(#260,#261));
#89=EDGE_LOOP('',(#262));
#90=EDGE_LOOP('',(#263,#264,#265,#266));
#91=EDGE_LOOP('',(#267,#268));
#92=EDGE_LOOP('',(#269,#270,#271,#272,#273,#274,#275,#276,#277));
#93=EDGE_LOOP('',(#278));
#94=EDGE_LOOP('',(#279));
#95=EDGE_LOOP('',(#280,#281,#282,#283));
#96=EDGE_LOOP('',(#284));
#97=EDGE_LOOP('',(#285));
#98=EDGE_LOOP('',(#286));
#99=EDGE_LOOP('',(#287));
#100=EDGE_LOOP('',(#288,#289,#290,#291,#292,#293,#294,#295,#296));
#101=EDGE_LOOP('',(#297,#298,#299,#300,#301,#302,#303));
#102=EDGE_LOOP('',(#304,#305,#306,#307,#308,#309,#310,#311,#312));
#103=EDGE_LOOP('',(#313,#314,#315,#316));
#104=EDGE_LOOP('',(#317,#318));
#105=EDGE_LOOP('',(#319,#320));
#106=EDGE_LOOP('',(#321,#322,#323,#324,#325));
#107=EDGE_LOOP('',(#326,#327,#328,#329));
#108=EDGE_LOOP('',(#330,#331,#332,#333));
#109=EDGE_LOOP('',(#334));
#110=EDGE_LOOP('',(#335));
#111=EDGE_LOOP('',(#336));
#112=EDGE_LOOP('',(#337));
#113=EDGE_LOOP('',(#338,#339,#340,#341,#342,#343,#344,#345));
#114=EDGE_LOOP('',(#346,#347,#348,#349));
#115=EDGE_LOOP('',(#350));
#116=EDGE_LOOP('',(#351,#352));
#117=LINE('',#609,#137);
#118=LINE('',#659,#138);
#119=LINE('',#667,#139);
#120=LINE('',#671,#140);
#121=LINE('',#672,#141);
#122=LINE('',#678,#142);
#123=LINE('',#688,#143);
#124=LINE('',#705,#144);
#125=LINE('',#808,#145);
#126=LINE('',#837,#146);
#127=LINE('',#850,#147);
#128=LINE('',#852,#148);
#129=LINE('',#854,#149);
#130=LINE('',#856,#150);
#131=LINE('',#857,#151);
#132=LINE('',#860,#152);
#133=LINE('',#862,#153);
#134=LINE('',#863,#154);
#135=LINE('',#868,#155);
#136=LINE('',#877,#156);
#137=VECTOR('',#458,1.5);
#138=VECTOR('',#467,10.);
#139=VECTOR('',#478,6.);
#140=VECTOR('',#483,6.8);
#141=VECTOR('',#484,6.8);
#142=VECTOR('',#491,3.);
#143=VECTOR('',#504,4.);
#144=VECTOR('',#505,4.);
#145=VECTOR('',#508,10.);
#146=VECTOR('',#511,1.42);
#147=VECTOR('',#526,4.);
#148=VECTOR('',#529,10.);
#149=VECTOR('',#532,10.);
#150=VECTOR('',#535,10.);
#151=VECTOR('',#536,10.);
#152=VECTOR('',#539,10.);
#153=VECTOR('',#540,10.);
#154=VECTOR('',#541,10.);
#155=VECTOR('',#546,3.);
#156=VECTOR('',#561,4.);
#157=B_SPLINE_CURVE_WITH_KNOTS('',3,(#568,#569,#570,#571,#572,#573,#574,
#575,#576,#577,#578,#579,#580,#581,#582,#583,#584,#585),.UNSPECIFIED.,.F.,
 .F.,(4,2,2,2,2,2,2,2,4),(0.236439477190974,0.283623041048053,0.340261707608587,
0.396959687976652,0.453657668344717,0.510333921462789,0.567010174580861,
0.623670569587677,0.670875787572253),.UNSPECIFIED.);
#158=B_SPLINE_CURVE_WITH_KNOTS('',3,(#587,#588,#589,#590,#591,#592,#593,
#594,#595,#596,#597,#598,#599,#600,#601,#602,#603,#604,#605,#606,#607),
 .UNSPECIFIED.,.F.,.F.,(4,2,2,2,3,2,2,2,2,4),(0.680330964594492,0.737108227101431,
0.793885489608369,0.85060041434519,0.907315339082012,0.964030263818833,
1.02074518855565,1.07752245106259,1.13429971356953,1.14375481627299),
 .UNSPECIFIED.);
#159=B_SPLINE_CURVE_WITH_KNOTS('',3,(#611,#612,#613,#614,#615,#616,#617,
#618,#619,#620),.UNSPECIFIED.,.F.,.F.,(4,2,2,2,4),(0.,0.0568107424005124,
0.113621484801025,0.170446218267562,0.227270951734099),.UNSPECIFIED.);
#160=B_SPLINE_CURVE_WITH_KNOTS('',3,(#621,#622,#623,#624,#625,#626,#627,
#628,#629,#630,#631,#632,#633,#634,#635,#636,#637,#638,#639,#640,#641,#642,
#643,#644,#645,#646),.UNSPECIFIED.,.F.,.F.,(4,2,2,2,2,2,2,2,2,2,2,2,4),
(0.227270951734099,0.283948669939328,0.340626388144557,0.397381941145351,
0.454137494146146,0.510893047146939,0.567648600147733,0.624326318352962,
0.681004036558192,0.737860815680237,0.794717594802283,0.851496281271035,
0.908274967739787),.UNSPECIFIED.);
#161=B_SPLINE_CURVE_WITH_KNOTS('',3,(#647,#648,#649,#650),.UNSPECIFIED.,
 .F.,.F.,(4,4),(0.670875787572253,0.680330964594492),.UNSPECIFIED.);
#162=B_SPLINE_CURVE_WITH_KNOTS('',3,(#690,#691,#692,#693,#694,#695,#696,
#697,#698,#699,#700,#701,#702,#703),.UNSPECIFIED.,.F.,.F.,(4,1,1,1,1,1,
1,1,1,1,1,4),(-0.656630557899397,-0.617283672290212,-0.55555530506119,-0.543981236205749,
-0.52469112144668,-0.493826937832169,-0.432098570603148,-0.370370203374127,
-0.339506019759616,-0.29320974433785,-0.246913468916085,-0.20756640714271),
 .UNSPECIFIED.);
#163=B_SPLINE_CURVE_WITH_KNOTS('',3,(#708,#709,#710,#711,#712,#713,#714,
#715),.UNSPECIFIED.,.F.,.F.,(4,1,1,1,1,4),(-0.864197141206296,-0.802468773977275,
-0.756172498555509,-0.740740406748254,-0.679012039519233,-0.656630557899397),
 .UNSPECIFIED.);
#164=B_SPLINE_CURVE_WITH_KNOTS('',3,(#716,#717,#718,#719,#720,#721,#722),
 .UNSPECIFIED.,.F.,.F.,(4,1,1,1,4),(-0.20756640714271,-0.185185101687063,
-0.123456734458042,-0.0617283672290212,0.),.UNSPECIFIED.);
#165=B_SPLINE_CURVE_WITH_KNOTS('',3,(#810,#811,#812,#813,#814,#815,#816),
 .UNSPECIFIED.,.F.,.F.,(4,1,1,1,4),(0.,0.0617283672290212,0.123456734458042,
0.185185101687063,0.216253408718917),.UNSPECIFIED.);
#166=B_SPLINE_CURVE_WITH_KNOTS('',3,(#817,#818,#819,#820,#821,#822,#823,
#824,#825,#826,#827,#828,#829,#830,#831,#832,#833,#834),.UNSPECIFIED.,.F.,
 .F.,(4,1,1,1,1,1,1,1,1,1,1,1,1,1,1,4),(0.216253408718917,0.246913468916085,
0.29320974433785,0.339506019759616,0.370370203374127,0.432098570603148,
0.493826937832169,0.52469112144668,0.543981236205749,0.55555530506119,0.617283672290212,
0.679012039519233,0.740740406748254,0.756172498555509,0.802468773977275,
0.864197141206296),.UNSPECIFIED.);
#167=VERTEX_POINT('',#566);
#168=VERTEX_POINT('',#567);
#169=VERTEX_POINT('',#586);
#170=VERTEX_POINT('',#608);
#171=VERTEX_POINT('',#610);
#172=VERTEX_POINT('',#652);
#173=VERTEX_POINT('',#654);
#174=VERTEX_POINT('',#657);
#175=VERTEX_POINT('',#658);
#176=VERTEX_POINT('',#662);
#177=VERTEX_POINT('',#665);
#178=VERTEX_POINT('',#669);
#179=VERTEX_POINT('',#675);
#180=VERTEX_POINT('',#677);
#181=VERTEX_POINT('',#681);
#182=VERTEX_POINT('',#684);
#183=VERTEX_POINT('',#687);
#184=VERTEX_POINT('',#689);
#185=VERTEX_POINT('',#704);
#186=VERTEX_POINT('',#707);
#187=VERTEX_POINT('',#807);
#188=VERTEX_POINT('',#809);
#189=VERTEX_POINT('',#836);
#190=VERTEX_POINT('',#838);
#191=VERTEX_POINT('',#840);
#192=VERTEX_POINT('',#842);
#193=VERTEX_POINT('',#844);
#194=VERTEX_POINT('',#848);
#195=VERTEX_POINT('',#859);
#196=VERTEX_POINT('',#861);
#197=VERTEX_POINT('',#865);
#198=VERTEX_POINT('',#867);
#199=VERTEX_POINT('',#871);
#200=EDGE_CURVE('',#167,#168,#157,.T.);
#201=EDGE_CURVE('',#169,#167,#158,.T.);
#202=EDGE_CURVE('',#169,#170,#117,.T.);
#203=EDGE_CURVE('',#171,#170,#159,.T.);
#204=EDGE_CURVE('',#170,#171,#160,.T.);
#205=EDGE_CURVE('',#168,#169,#161,.T.);
#206=EDGE_CURVE('',#172,#172,#27,.T.);
#207=EDGE_CURVE('',#173,#173,#28,.T.);
#208=EDGE_CURVE('',#174,#175,#118,.T.);
#209=EDGE_CURVE('',#175,#174,#29,.T.);
#210=EDGE_CURVE('',#176,#176,#30,.T.);
#211=EDGE_CURVE('',#177,#177,#31,.T.);
#212=EDGE_CURVE('',#177,#172,#119,.T.);
#213=EDGE_CURVE('',#178,#178,#32,.T.);
#214=EDGE_CURVE('',#178,#167,#120,.T.);
#215=EDGE_CURVE('',#168,#176,#121,.T.);
#216=EDGE_CURVE('',#179,#179,#33,.T.);
#217=EDGE_CURVE('',#179,#180,#122,.T.);
#218=EDGE_CURVE('',#180,#180,#34,.T.);
#219=EDGE_CURVE('',#181,#181,#35,.T.);
#220=EDGE_CURVE('',#182,#182,#36,.T.);
#221=EDGE_CURVE('',#182,#183,#123,.T.);
#222=EDGE_CURVE('',#184,#183,#162,.T.);
#223=EDGE_CURVE('',#184,#185,#124,.T.);
#224=EDGE_CURVE('',#185,#185,#37,.T.);
#225=EDGE_CURVE('',#186,#184,#163,.T.);
#226=EDGE_CURVE('',#183,#186,#164,.T.);
#227=EDGE_CURVE('',#186,#187,#125,.T.);
#228=EDGE_CURVE('',#187,#188,#165,.T.);
#229=EDGE_CURVE('',#188,#187,#166,.T.);
#230=EDGE_CURVE('',#188,#189,#126,.T.);
#231=EDGE_CURVE('',#190,#189,#38,.T.);
#232=EDGE_CURVE('',#190,#191,#39,.T.);
#233=EDGE_CURVE('',#192,#191,#40,.T.);
#234=EDGE_CURVE('',#192,#193,#41,.T.);
#235=EDGE_CURVE('',#189,#193,#42,.T.);
#236=EDGE_CURVE('',#194,#194,#43,.T.);
#237=EDGE_CURVE('',#194,#181,#127,.T.);
#238=EDGE_CURVE('',#191,#190,#128,.T.);
#239=EDGE_CURVE('',#192,#193,#129,.T.);
#240=EDGE_CURVE('',#193,#175,#130,.T.);
#241=EDGE_CURVE('',#190,#174,#131,.T.);
#242=EDGE_CURVE('',#195,#191,#132,.T.);
#243=EDGE_CURVE('',#195,#196,#133,.T.);
#244=EDGE_CURVE('',#196,#192,#134,.T.);
#245=EDGE_CURVE('',#197,#197,#44,.T.);
#246=EDGE_CURVE('',#197,#198,#135,.T.);
#247=EDGE_CURVE('',#198,#198,#45,.T.);
#248=EDGE_CURVE('',#199,#199,#46,.T.);
#249=EDGE_CURVE('',#196,#195,#47,.T.);
#250=EDGE_CURVE('',#173,#199,#136,.T.);
#251=ORIENTED_EDGE('',*,*,#200,.F.);
#252=ORIENTED_EDGE('',*,*,#201,.F.);
#253=ORIENTED_EDGE('',*,*,#202,.T.);
#254=ORIENTED_EDGE('',*,*,#203,.F.);
#255=ORIENTED_EDGE('',*,*,#204,.F.);
#256=ORIENTED_EDGE('',*,*,#202,.F.);
#257=ORIENTED_EDGE('',*,*,#205,.F.);
#258=ORIENTED_EDGE('',*,*,#206,.T.);
#259=ORIENTED_EDGE('',*,*,#207,.T.);
#260=ORIENTED_EDGE('',*,*,#208,.T.);
#261=ORIENTED_EDGE('',*,*,#209,.T.);
#262=ORIENTED_EDGE('',*,*,#210,.T.);
#263=ORIENTED_EDGE('',*,*,#211,.F.);
#264=ORIENTED_EDGE('',*,*,#212,.T.);
#265=ORIENTED_EDGE('',*,*,#206,.F.);
#266=ORIENTED_EDGE('',*,*,#212,.F.);
#267=ORIENTED_EDGE('',*,*,#203,.T.);
#268=ORIENTED_EDGE('',*,*,#204,.T.);
#269=ORIENTED_EDGE('',*,*,#213,.F.);
#270=ORIENTED_EDGE('',*,*,#214,.T.);
#271=ORIENTED_EDGE('',*,*,#200,.T.);
#272=ORIENTED_EDGE('',*,*,#215,.T.);
#273=ORIENTED_EDGE('',*,*,#210,.F.);
#274=ORIENTED_EDGE('',*,*,#215,.F.);
#275=ORIENTED_EDGE('',*,*,#205,.T.);
#276=ORIENTED_EDGE('',*,*,#201,.T.);
#277=ORIENTED_EDGE('',*,*,#214,.F.);
#278=ORIENTED_EDGE('',*,*,#213,.T.);
#279=ORIENTED_EDGE('',*,*,#211,.T.);
#280=ORIENTED_EDGE('',*,*,#216,.T.);
#281=ORIENTED_EDGE('',*,*,#217,.T.);
#282=ORIENTED_EDGE('',*,*,#218,.T.);
#283=ORIENTED_EDGE('',*,*,#217,.F.);
#284=ORIENTED_EDGE('',*,*,#219,.F.);
#285=ORIENTED_EDGE('',*,*,#216,.F.);
#286=ORIENTED_EDGE('',*,*,#220,.F.);
#287=ORIENTED_EDGE('',*,*,#218,.F.);
#288=ORIENTED_EDGE('',*,*,#220,.T.);
#289=ORIENTED_EDGE('',*,*,#221,.T.);
#290=ORIENTED_EDGE('',*,*,#222,.F.);
#291=ORIENTED_EDGE('',*,*,#223,.T.);
#292=ORIENTED_EDGE('',*,*,#224,.T.);
#293=ORIENTED_EDGE('',*,*,#223,.F.);
#294=ORIENTED_EDGE('',*,*,#225,.F.);
#295=ORIENTED_EDGE('',*,*,#226,.F.);
#296=ORIENTED_EDGE('',*,*,#221,.F.);
#297=ORIENTED_EDGE('',*,*,#227,.T.);
#298=ORIENTED_EDGE('',*,*,#228,.T.);
#299=ORIENTED_EDGE('',*,*,#229,.T.);
#300=ORIENTED_EDGE('',*,*,#227,.F.);
#301=ORIENTED_EDGE('',*,*,#225,.T.);
#302=ORIENTED_EDGE('',*,*,#222,.T.);
#303=ORIENTED_EDGE('',*,*,#226,.T.);
#304=ORIENTED_EDGE('',*,*,#228,.F.);
#305=ORIENTED_EDGE('',*,*,#229,.F.);
#306=ORIENTED_EDGE('',*,*,#230,.T.);
#307=ORIENTED_EDGE('',*,*,#231,.F.);
#308=ORIENTED_EDGE('',*,*,#232,.T.);
#309=ORIENTED_EDGE('',*,*,#233,.F.);
#310=ORIENTED_EDGE('',*,*,#234,.T.);
#311=ORIENTED_EDGE('',*,*,#235,.F.);
#312=ORIENTED_EDGE('',*,*,#230,.F.);
#313=ORIENTED_EDGE('',*,*,#236,.T.);
#314=ORIENTED_EDGE('',*,*,#237,.T.);
#315=ORIENTED_EDGE('',*,*,#219,.T.);
#316=ORIENTED_EDGE('',*,*,#237,.F.);
#317=ORIENTED_EDGE('',*,*,#238,.F.);
#318=ORIENTED_EDGE('',*,*,#232,.F.);
#319=ORIENTED_EDGE('',*,*,#239,.T.);
#320=ORIENTED_EDGE('',*,*,#234,.F.);
#321=ORIENTED_EDGE('',*,*,#231,.T.);
#322=ORIENTED_EDGE('',*,*,#235,.T.);
#323=ORIENTED_EDGE('',*,*,#240,.T.);
#324=ORIENTED_EDGE('',*,*,#208,.F.);
#325=ORIENTED_EDGE('',*,*,#241,.F.);
#326=ORIENTED_EDGE('',*,*,#233,.T.);
#327=ORIENTED_EDGE('',*,*,#242,.F.);
#328=ORIENTED_EDGE('',*,*,#243,.T.);
#329=ORIENTED_EDGE('',*,*,#244,.T.);
#330=ORIENTED_EDGE('',*,*,#245,.T.);
#331=ORIENTED_EDGE('',*,*,#246,.T.);
#332=ORIENTED_EDGE('',*,*,#247,.T.);
#333=ORIENTED_EDGE('',*,*,#246,.F.);
#334=ORIENTED_EDGE('',*,*,#248,.F.);
#335=ORIENTED_EDGE('',*,*,#245,.F.);
#336=ORIENTED_EDGE('',*,*,#236,.F.);
#337=ORIENTED_EDGE('',*,*,#247,.F.);
#338=ORIENTED_EDGE('',*,*,#249,.T.);
#339=ORIENTED_EDGE('',*,*,#242,.T.);
#340=ORIENTED_EDGE('',*,*,#238,.T.);
#341=ORIENTED_EDGE('',*,*,#241,.T.);
#342=ORIENTED_EDGE('',*,*,#209,.F.);
#343=ORIENTED_EDGE('',*,*,#240,.F.);
#344=ORIENTED_EDGE('',*,*,#239,.F.);
#345=ORIENTED_EDGE('',*,*,#244,.F.);
#346=ORIENTED_EDGE('',*,*,#207,.F.);
#347=ORIENTED_EDGE('',*,*,#250,.T.);
#348=ORIENTED_EDGE('',*,*,#248,.T.);
#349=ORIENTED_EDGE('',*,*,#250,.F.);
#350=ORIENTED_EDGE('',*,*,#224,.F.);
#351=ORIENTED_EDGE('',*,*,#249,.F.);
#352=ORIENTED_EDGE('',*,*,#243,.F.);
#353=CYLINDRICAL_SURFACE('',#410,1.5);
#354=CYLINDRICAL_SURFACE('',#418,6.);
#355=CYLINDRICAL_SURFACE('',#420,6.8);
#356=CYLINDRICAL_SURFACE('',#423,3.);
#357=CYLINDRICAL_SURFACE('',#430,4.);
#358=CYLINDRICAL_SURFACE('',#432,1.42);
#359=CYLINDRICAL_SURFACE('',#438,4.);
#360=CYLINDRICAL_SURFACE('',#444,3.);
#361=CYLINDRICAL_SURFACE('',#450,1.7);
#362=CYLINDRICAL_SURFACE('',#452,4.);
#363=ADVANCED_FACE('',(#61),#353,.F.);
#364=ADVANCED_FACE('',(#62,#19),#48,.F.);
#365=ADVANCED_FACE('',(#63),#49,.F.);
#366=ADVANCED_FACE('',(#64),#50,.T.);
#367=ADVANCED_FACE('',(#65,#20),#354,.F.);
#368=ADVANCED_FACE('',(#66),#355,.T.);
#369=ADVANCED_FACE('',(#67,#21),#51,.F.);
#370=ADVANCED_FACE('',(#68),#356,.T.);
#371=ADVANCED_FACE('',(#69,#22),#52,.F.);
#372=ADVANCED_FACE('',(#70,#23),#53,.T.);
#373=ADVANCED_FACE('',(#71),#357,.T.);
#374=ADVANCED_FACE('',(#72),#18,.T.);
#375=ADVANCED_FACE('',(#73),#358,.F.);
#376=ADVANCED_FACE('',(#74),#359,.T.);
#377=ADVANCED_FACE('',(#75),#54,.F.);
#378=ADVANCED_FACE('',(#76),#55,.F.);
#379=ADVANCED_FACE('',(#77),#56,.T.);
#380=ADVANCED_FACE('',(#78),#57,.T.);
#381=ADVANCED_FACE('',(#79),#360,.T.);
#382=ADVANCED_FACE('',(#80,#24),#58,.F.);
#383=ADVANCED_FACE('',(#81,#25),#59,.T.);
#384=ADVANCED_FACE('',(#82),#361,.F.);
#385=ADVANCED_FACE('',(#83),#362,.T.);
#386=ADVANCED_FACE('',(#84,#26),#60,.F.);
#387=CLOSED_SHELL('',(#363,#364,#365,#366,#367,#368,#369,#370,#371,#372,
#373,#374,#375,#376,#377,#378,#379,#380,#381,#382,#383,#384,#385,#386));
#388=DERIVED_UNIT_ELEMENT(#391,1.);
#389=DERIVED_UNIT_ELEMENT(#885,-3.);
#390=DIMENSIONAL_EXPONENTS(0.,1.,0.,0.,0.,0.,0.);
#391=(
CONVERSION_BASED_UNIT('gram',#393)
MASS_UNIT()
NAMED_UNIT(#390)
);
#392=(
MASS_UNIT()
NAMED_UNIT(*)
SI_UNIT(.KILO.,.GRAM.)
);
#393=MASS_MEASURE_WITH_UNIT(MASS_MEASURE(0.001),#392);
#394=DERIVED_UNIT((#388,#389));
#395=MEASURE_REPRESENTATION_ITEM('density measure',
POSITIVE_RATIO_MEASURE(1.),#394);
#396=PROPERTY_DEFINITION_REPRESENTATION(#401,#398);
#397=PROPERTY_DEFINITION_REPRESENTATION(#402,#399);
#398=REPRESENTATION('material name',(#400),#882);
#399=REPRESENTATION('density',(#395),#882);
#400=DESCRIPTIVE_REPRESENTATION_ITEM('Generic','Generic');
#401=PROPERTY_DEFINITION('material property','material name',#892);
#402=PROPERTY_DEFINITION('material property','density of part',#892);
#403=DATE_TIME_ROLE('creation_date');
#404=APPLIED_DATE_AND_TIME_ASSIGNMENT(#405,#403,(#892));
#405=DATE_AND_TIME(#406,#407);
#406=CALENDAR_DATE(2026,11,5);
#407=LOCAL_TIME(0,0,0.,#408);
#408=COORDINATED_UNIVERSAL_TIME_OFFSET(0,0,.BEHIND.);
#409=AXIS2_PLACEMENT_3D('',#564,#454,#455);
#410=AXIS2_PLACEMENT_3D('',#565,#456,#457);
#411=AXIS2_PLACEMENT_3D('',#651,#459,#460);
#412=AXIS2_PLACEMENT_3D('',#653,#461,#462);
#413=AXIS2_PLACEMENT_3D('',#655,#463,#464);
#414=AXIS2_PLACEMENT_3D('',#656,#465,#466);
#415=AXIS2_PLACEMENT_3D('',#660,#468,#469);
#416=AXIS2_PLACEMENT_3D('',#661,#470,#471);
#417=AXIS2_PLACEMENT_3D('',#663,#472,#473);
#418=AXIS2_PLACEMENT_3D('',#664,#474,#475);
#419=AXIS2_PLACEMENT_3D('',#666,#476,#477);
#420=AXIS2_PLACEMENT_3D('',#668,#479,#480);
#421=AXIS2_PLACEMENT_3D('',#670,#481,#482);
#422=AXIS2_PLACEMENT_3D('',#673,#485,#486);
#423=AXIS2_PLACEMENT_3D('',#674,#487,#488);
#424=AXIS2_PLACEMENT_3D('',#676,#489,#490);
#425=AXIS2_PLACEMENT_3D('',#679,#492,#493);
#426=AXIS2_PLACEMENT_3D('',#680,#494,#495);
#427=AXIS2_PLACEMENT_3D('',#682,#496,#497);
#428=AXIS2_PLACEMENT_3D('',#683,#498,#499);
#429=AXIS2_PLACEMENT_3D('',#685,#500,#501);
#430=AXIS2_PLACEMENT_3D('',#686,#502,#503);
#431=AXIS2_PLACEMENT_3D('',#706,#506,#507);
#432=AXIS2_PLACEMENT_3D('',#835,#509,#510);
#433=AXIS2_PLACEMENT_3D('',#839,#512,#513);
#434=AXIS2_PLACEMENT_3D('',#841,#514,#515);
#435=AXIS2_PLACEMENT_3D('',#843,#516,#517);
#436=AXIS2_PLACEMENT_3D('',#845,#518,#519);
#437=AXIS2_PLACEMENT_3D('',#846,#520,#521);
#438=AXIS2_PLACEMENT_3D('',#847,#522,#523);
#439=AXIS2_PLACEMENT_3D('',#849,#524,#525);
#440=AXIS2_PLACEMENT_3D('',#851,#527,#528);
#441=AXIS2_PLACEMENT_3D('',#853,#530,#531);
#442=AXIS2_PLACEMENT_3D('',#855,#533,#534);
#443=AXIS2_PLACEMENT_3D('',#858,#537,#538);
#444=AXIS2_PLACEMENT_3D('',#864,#542,#543);
#445=AXIS2_PLACEMENT_3D('',#866,#544,#545);
#446=AXIS2_PLACEMENT_3D('',#869,#547,#548);
#447=AXIS2_PLACEMENT_3D('',#870,#549,#550);
#448=AXIS2_PLACEMENT_3D('',#872,#551,#552);
#449=AXIS2_PLACEMENT_3D('',#873,#553,#554);
#450=AXIS2_PLACEMENT_3D('',#874,#555,#556);
#451=AXIS2_PLACEMENT_3D('',#875,#557,#558);
#452=AXIS2_PLACEMENT_3D('',#876,#559,#560);
#453=AXIS2_PLACEMENT_3D('',#878,#562,#563);
#454=DIRECTION('axis',(0.,0.,1.));
#455=DIRECTION('refdir',(1.,0.,0.));
#456=DIRECTION('center_axis',(1.,-1.11022302462516E-15,0.));
#457=DIRECTION('ref_axis',(0.,0.,-1.));
#458=DIRECTION('',(1.,-1.11022302462516E-15,0.));
#459=DIRECTION('center_axis',(-4.19566319305339E-62,7.88860905221016E-31,
1.));
#460=DIRECTION('ref_axis',(1.,0.,4.19566319305339E-62));
#461=DIRECTION('center_axis',(4.19566319305339E-62,-7.88860905221016E-31,
-1.));
#462=DIRECTION('ref_axis',(-1.,0.,-4.19566319305339E-62));
#463=DIRECTION('center_axis',(-4.19566319305339E-62,7.88860905221016E-31,
1.));
#464=DIRECTION('ref_axis',(1.,5.31863496502959E-32,0.));
#465=DIRECTION('center_axis',(-4.19566319305339E-62,7.88860905221016E-31,
1.));
#466=DIRECTION('ref_axis',(1.,0.,4.19566319305339E-62));
#467=DIRECTION('',(1.01349032408135E-15,1.,-7.88860905221016E-31));
#468=DIRECTION('center_axis',(4.19566319305339E-62,-7.88860905221016E-31,
-1.));
#469=DIRECTION('ref_axis',(-1.,-5.31863496502959E-32,0.));
#470=DIRECTION('center_axis',(-4.19566319305339E-62,7.88860905221016E-31,
1.));
#471=DIRECTION('ref_axis',(1.,0.,4.19566319305339E-62));
#472=DIRECTION('center_axis',(-4.19566319305339E-62,7.88860905221016E-31,
1.));
#473=DIRECTION('ref_axis',(1.,0.,4.19566319305339E-62));
#474=DIRECTION('center_axis',(0.,0.,-1.));
#475=DIRECTION('ref_axis',(-1.,0.,0.));
#476=DIRECTION('center_axis',(-4.19566319305339E-62,7.88860905221016E-31,
1.));
#477=DIRECTION('ref_axis',(-1.,0.,-4.19566319305339E-62));
#478=DIRECTION('',(0.,0.,1.));
#479=DIRECTION('center_axis',(0.,0.,-1.));
#480=DIRECTION('ref_axis',(1.,0.,0.));
#481=DIRECTION('center_axis',(4.19566319305339E-62,-7.88860905221016E-31,
-1.));
#482=DIRECTION('ref_axis',(1.,0.,4.19566319305339E-62));
#483=DIRECTION('',(0.,0.,1.));
#484=DIRECTION('',(0.,0.,1.));
#485=DIRECTION('center_axis',(-4.19566319305339E-62,7.88860905221016E-31,
1.));
#486=DIRECTION('ref_axis',(1.,0.,4.19566319305339E-62));
#487=DIRECTION('center_axis',(0.,0.,-1.));
#488=DIRECTION('ref_axis',(-1.,0.,0.));
#489=DIRECTION('center_axis',(4.19566319305339E-62,-7.88860905221016E-31,
-1.));
#490=DIRECTION('ref_axis',(-1.,0.,-4.19566319305339E-62));
#491=DIRECTION('',(0.,0.,-1.));
#492=DIRECTION('center_axis',(-4.19566319305339E-62,7.88860905221016E-31,
1.));
#493=DIRECTION('ref_axis',(-1.,0.,-4.19566319305339E-62));
#494=DIRECTION('center_axis',(-4.19566319305339E-62,7.88860905221016E-31,
1.));
#495=DIRECTION('ref_axis',(1.,0.,4.19566319305339E-62));
#496=DIRECTION('center_axis',(-4.19566319305339E-62,7.88860905221016E-31,
1.));
#497=DIRECTION('ref_axis',(1.,5.31863496502959E-32,0.));
#498=DIRECTION('center_axis',(-4.19566319305339E-62,7.88860905221016E-31,
1.));
#499=DIRECTION('ref_axis',(1.,0.,4.19566319305339E-62));
#500=DIRECTION('center_axis',(4.19566319305339E-62,-7.88860905221016E-31,
-1.));
#501=DIRECTION('ref_axis',(1.,5.31863496502959E-32,0.));
#502=DIRECTION('center_axis',(0.,0.,1.));
#503=DIRECTION('ref_axis',(1.,5.31863496502959E-32,0.));
#504=DIRECTION('',(0.,0.,-1.));
#505=DIRECTION('',(0.,0.,-1.));
#506=DIRECTION('center_axis',(-4.19566319305339E-62,7.88860905221016E-31,
1.));
#507=DIRECTION('ref_axis',(1.,5.31863496502959E-32,0.));
#508=DIRECTION('',(0.565480356415141,-0.824761763486041,0.));
#509=DIRECTION('center_axis',(1.,-9.25185853854297E-16,0.));
#510=DIRECTION('ref_axis',(0.,0.,-1.));
#511=DIRECTION('',(1.,-9.25185853854297E-16,0.));
#512=DIRECTION('center_axis',(-1.,1.01349032408135E-15,0.));
#513=DIRECTION('ref_axis',(0.,0.,-1.));
#514=DIRECTION('center_axis',(1.,-1.01349032408135E-15,0.));
#515=DIRECTION('ref_axis',(0.,0.,-1.));
#516=DIRECTION('center_axis',(-1.,1.01349032408135E-15,0.));
#517=DIRECTION('ref_axis',(0.,0.,-1.));
#518=DIRECTION('center_axis',(1.,-1.01349032408135E-15,0.));
#519=DIRECTION('ref_axis',(0.,0.,-1.));
#520=DIRECTION('center_axis',(-1.,1.01349032408135E-15,0.));
#521=DIRECTION('ref_axis',(0.,0.,-1.));
#522=DIRECTION('center_axis',(0.,0.,1.));
#523=DIRECTION('ref_axis',(1.,5.31863496502959E-32,0.));
#524=DIRECTION('center_axis',(4.19566319305339E-62,-7.88860905221016E-31,
-1.));
#525=DIRECTION('ref_axis',(1.,5.31863496502959E-32,0.));
#526=DIRECTION('',(0.,0.,-1.));
#527=DIRECTION('center_axis',(1.,-1.01349032408135E-15,0.));
#528=DIRECTION('ref_axis',(0.,0.,-1.));
#529=DIRECTION('',(0.,0.,1.));
#530=DIRECTION('center_axis',(1.,-1.01349032408135E-15,0.));
#531=DIRECTION('ref_axis',(0.,0.,-1.));
#532=DIRECTION('',(0.,0.,1.));
#533=DIRECTION('center_axis',(1.,-1.01349032408135E-15,0.));
#534=DIRECTION('ref_axis',(1.01349032408135E-15,1.,-7.88860905221016E-31));
#535=DIRECTION('',(0.,0.,1.));
#536=DIRECTION('',(0.,0.,1.));
#537=DIRECTION('center_axis',(1.,-1.01349032408135E-15,0.));
#538=DIRECTION('ref_axis',(1.01349032408135E-15,1.,-7.88860905221016E-31));
#539=DIRECTION('',(0.,0.,1.));
#540=DIRECTION('',(1.01349032408135E-15,1.,-7.88860905221016E-31));
#541=DIRECTION('',(0.,0.,1.));
#542=DIRECTION('center_axis',(0.,0.,-1.));
#543=DIRECTION('ref_axis',(-1.,0.,0.));
#544=DIRECTION('center_axis',(4.19566319305339E-62,-7.88860905221016E-31,
-1.));
#545=DIRECTION('ref_axis',(-1.,0.,-4.19566319305339E-62));
#546=DIRECTION('',(0.,0.,-1.));
#547=DIRECTION('center_axis',(-4.19566319305339E-62,7.88860905221016E-31,
1.));
#548=DIRECTION('ref_axis',(-1.,0.,-4.19566319305339E-62));
#549=DIRECTION('center_axis',(-4.19566319305339E-62,7.88860905221016E-31,
1.));
#550=DIRECTION('ref_axis',(1.,0.,4.19566319305339E-62));
#551=DIRECTION('center_axis',(-4.19566319305339E-62,7.88860905221016E-31,
1.));
#552=DIRECTION('ref_axis',(1.,5.31863496502959E-32,0.));
#553=DIRECTION('center_axis',(-4.19566319305339E-62,7.88860905221016E-31,
1.));
#554=DIRECTION('ref_axis',(1.,0.,4.19566319305339E-62));
#555=DIRECTION('center_axis',(0.,0.,1.));
#556=DIRECTION('ref_axis',(1.,-1.01064309961486E-15,0.));
#557=DIRECTION('center_axis',(4.19566319305339E-62,-7.88860905221016E-31,
-1.));
#558=DIRECTION('ref_axis',(-1.,-5.31863496502959E-32,0.));
#559=DIRECTION('center_axis',(0.,0.,1.));
#560=DIRECTION('ref_axis',(1.,5.31863496502959E-32,0.));
#561=DIRECTION('',(0.,0.,-1.));
#562=DIRECTION('center_axis',(-4.19566319305339E-62,7.88860905221016E-31,
1.));
#563=DIRECTION('ref_axis',(1.,0.,4.19566319305339E-62));
#564=CARTESIAN_POINT('',(0.,0.,0.));
#565=CARTESIAN_POINT('Origin',(7.20000000000044,2.90455488498958,3.));
#566=CARTESIAN_POINT('',(7.20000000000044,2.99999999999991,1.50303966985739));
#567=CARTESIAN_POINT('',(7.20000000000044,2.99999999999991,4.4969603301426));
#568=CARTESIAN_POINT('Ctrl Pts',(7.20000000000044,2.99999999999991,1.50303966985739));
#569=CARTESIAN_POINT('Ctrl Pts',(7.20000000000044,3.16004035445845,1.51324372786081));
#570=CARTESIAN_POINT('Ctrl Pts',(7.20603179973839,3.32524064317649,1.55060018388461));
#571=CARTESIAN_POINT('Ctrl Pts',(7.22994050673511,3.66375271203476,1.69096031101331));
#572=CARTESIAN_POINT('Ctrl Pts',(7.24976312939109,3.83205501224129,1.80625606903623));
#573=CARTESIAN_POINT('Ctrl Pts',(7.28787259449289,4.0979056394006,2.07195422026128));
#574=CARTESIAN_POINT('Ctrl Pts',(7.30866666822746,4.21332428968706,2.24030688150676));
#575=CARTESIAN_POINT('Ctrl Pts',(7.33829381187187,4.36666322577636,2.60980768090383));
#576=CARTESIAN_POINT('Ctrl Pts',(7.34663802464906,4.40455488498958,2.81100673210645));
#577=CARTESIAN_POINT('Ctrl Pts',(7.34663802464906,4.40455488498958,3.1889208437269));
#578=CARTESIAN_POINT('Ctrl Pts',(7.33830035096426,4.36669198100582,3.39004807259686));
#579=CARTESIAN_POINT('Ctrl Pts',(7.30869202963765,4.21346063391306,3.75943944430292));
#580=CARTESIAN_POINT('Ctrl Pts',(7.28790957702938,4.09812080449956,3.92775442404965));
#581=CARTESIAN_POINT('Ctrl Pts',(7.24979879034125,3.83234649629171,4.19352873225751));
#582=CARTESIAN_POINT('Ctrl Pts',(7.22996388421992,3.66400652347861,4.30890332852926));
#583=CARTESIAN_POINT('Ctrl Pts',(7.20603728376582,3.3253825127763,4.44936688806258));
#584=CARTESIAN_POINT('Ctrl Pts',(7.20000000000044,3.16011143118007,4.48675174033849));
#585=CARTESIAN_POINT('Ctrl Pts',(7.20000000000044,2.99999999999991,4.4969603301426));
#586=CARTESIAN_POINT('',(7.20066986902278,2.90455488498958,4.5));
#587=CARTESIAN_POINT('Ctrl Pts',(7.20066986902278,2.90455488498958,4.5));
#588=CARTESIAN_POINT('Ctrl Pts',(7.2033262966453,2.71531598708867,4.5));
#589=CARTESIAN_POINT('Ctrl Pts',(7.21484823121224,2.51402134495638,4.46201660695062));
#590=CARTESIAN_POINT('Ctrl Pts',(7.25146753851732,2.14456479075484,4.30859620739044));
#591=CARTESIAN_POINT('Ctrl Pts',(7.27614017673605,1.97634509205045,4.19319728228507));
#592=CARTESIAN_POINT('Ctrl Pts',(7.32195137193275,1.710896839321,3.92757543491658));
#593=CARTESIAN_POINT('Ctrl Pts',(7.34612994071034,1.59565958501208,3.75943597361325));
#594=CARTESIAN_POINT('Ctrl Pts',(7.38031263642083,1.4424705086986,3.39020381071366));
#595=CARTESIAN_POINT('Ctrl Pts',(7.38981430782887,1.40455488498957,3.18904974912273));
#596=CARTESIAN_POINT('Ctrl Pts',(7.38981430782887,1.40455488498958,3.));
#597=CARTESIAN_POINT('Ctrl Pts',(7.38981430782887,1.40455488498958,2.81095025087726));
#598=CARTESIAN_POINT('Ctrl Pts',(7.38031263642083,1.4424705086986,2.60979618928634));
#599=CARTESIAN_POINT('Ctrl Pts',(7.34612994071034,1.59565958501208,2.24056402638674));
#600=CARTESIAN_POINT('Ctrl Pts',(7.32195137193275,1.710896839321,2.07242456508342));
#601=CARTESIAN_POINT('Ctrl Pts',(7.27614017673605,1.97634509205045,1.80680271771492));
#602=CARTESIAN_POINT('Ctrl Pts',(7.25146753851732,2.14456479075484,1.69140379260956));
#603=CARTESIAN_POINT('Ctrl Pts',(7.21484823121224,2.51402134495637,1.53798339304938));
#604=CARTESIAN_POINT('Ctrl Pts',(7.2033262966453,2.71531598708867,1.49999999999999));
#605=CARTESIAN_POINT('Ctrl Pts',(7.20022749482427,2.9360687892558,1.49999999999999));
#606=CARTESIAN_POINT('Ctrl Pts',(7.20000000000044,2.96792955291188,1.50099488119525));
#607=CARTESIAN_POINT('Ctrl Pts',(7.20000000000044,2.99999999999991,1.50303966985739));
#608=CARTESIAN_POINT('',(8.0007591955302,2.90455488498957,4.5));
#609=CARTESIAN_POINT('',(7.20000000000044,2.90455488498958,4.5));
#610=CARTESIAN_POINT('',(8.21600874093117,1.40455488498957,3.));
#611=CARTESIAN_POINT('Ctrl Pts',(8.21600874093117,1.40455488498957,3.));
#612=CARTESIAN_POINT('Ctrl Pts',(8.21600874093117,1.40455488498957,3.18936914133504));
#613=CARTESIAN_POINT('Ctrl Pts',(8.20510987518332,1.44259476629993,3.39070094330936));
#614=CARTESIAN_POINT('Ctrl Pts',(8.16605048728855,1.59597168140874,3.75999002277264));
#615=CARTESIAN_POINT('Ctrl Pts',(8.13847918519638,1.71126293569894,3.92802839426901));
#616=CARTESIAN_POINT('Ctrl Pts',(8.08638458140755,1.9765591546126,4.19332461318266));
#617=CARTESIAN_POINT('Ctrl Pts',(8.05838414673023,2.14459266338399,4.30859718794296));
#618=CARTESIAN_POINT('Ctrl Pts',(8.01684142424694,2.51385792757333,4.46195933624722));
#619=CARTESIAN_POINT('Ctrl Pts',(8.00377233065306,2.71516307403647,4.5));
#620=CARTESIAN_POINT('Ctrl Pts',(8.0007591955302,2.90455488498957,4.5));
#621=CARTESIAN_POINT('Ctrl Pts',(8.0007591955302,2.90455488498958,4.5));
#622=CARTESIAN_POINT('Ctrl Pts',(7.99775385590097,3.09345670707906,4.5));
#623=CARTESIAN_POINT('Ctrl Pts',(8.00437437707891,3.29459022606658,4.46213138315098));
#624=CARTESIAN_POINT('Ctrl Pts',(8.03396345500839,3.663865918316,4.30897000648558));
#625=CARTESIAN_POINT('Ctrl Pts',(8.05645172408902,3.83206207317697,4.19371499493818));
#626=CARTESIAN_POINT('Ctrl Pts',(8.09974144103931,4.09776685508281,3.92820637922559));
#627=CARTESIAN_POINT('Ctrl Pts',(8.12340496391777,4.21317749373132,3.75994680009008));
#628=CARTESIAN_POINT('Ctrl Pts',(8.15717518804334,4.36658963245883,3.39046956561151));
#629=CARTESIAN_POINT('Ctrl Pts',(8.16671399852137,4.40455488498958,3.18918517666931));
#630=CARTESIAN_POINT('Ctrl Pts',(8.16671399852137,4.40455488498958,2.81081482333068));
#631=CARTESIAN_POINT('Ctrl Pts',(8.15717518804334,4.36658963245883,2.60953043438848));
#632=CARTESIAN_POINT('Ctrl Pts',(8.12340496391777,4.21317749373132,2.24005319990991));
#633=CARTESIAN_POINT('Ctrl Pts',(8.09974144103931,4.09776685508281,2.0717936207744));
#634=CARTESIAN_POINT('Ctrl Pts',(8.05645172408902,3.83206207317697,1.80628500506182));
#635=CARTESIAN_POINT('Ctrl Pts',(8.03396345500839,3.663865918316,1.69102999351442));
#636=CARTESIAN_POINT('Ctrl Pts',(8.00437437707891,3.29459022606659,1.53786861684902));
#637=CARTESIAN_POINT('Ctrl Pts',(7.99775385590097,3.09345670707906,1.49999999999999));
#638=CARTESIAN_POINT('Ctrl Pts',(8.00377402987599,2.71505626870084,1.49999999999999));
#639=CARTESIAN_POINT('Ctrl Pts',(8.0168561355428,2.51364567665173,1.53808312553069));
#640=CARTESIAN_POINT('Ctrl Pts',(8.05843524940714,2.14422003568155,1.69160333269554));
#641=CARTESIAN_POINT('Ctrl Pts',(8.08645813220447,1.97613144096471,1.80699146872984));
#642=CARTESIAN_POINT('Ctrl Pts',(8.13855169854732,1.71094691129589,2.07239948462942));
#643=CARTESIAN_POINT('Ctrl Pts',(8.16609983994776,1.59577119821687,2.24038274856187));
#644=CARTESIAN_POINT('Ctrl Pts',(8.20512239406027,1.44255230541272,2.60951140143606));
#645=CARTESIAN_POINT('Ctrl Pts',(8.21600874093117,1.40455488498957,2.81073771177082));
#646=CARTESIAN_POINT('Ctrl Pts',(8.21600874093117,1.40455488498957,3.));
#647=CARTESIAN_POINT('Ctrl Pts',(7.20000000000044,2.99999999999991,4.4969603301426));
#648=CARTESIAN_POINT('Ctrl Pts',(7.20000000000044,2.96792977578048,4.4990051045948));
#649=CARTESIAN_POINT('Ctrl Pts',(7.20022749134713,2.93606903696067,4.5));
#650=CARTESIAN_POINT('Ctrl Pts',(7.20066986902278,2.90455488498958,4.5));
#651=CARTESIAN_POINT('Origin',(14.0000000000004,2.9999999999999,22.));
#652=CARTESIAN_POINT('',(20.0000000000004,2.9999999999999,22.));
#653=CARTESIAN_POINT('Origin',(14.0000000000004,2.9999999999999,22.));
#654=CARTESIAN_POINT('',(10.0000000000004,2.9999999999999,22.));
#655=CARTESIAN_POINT('Origin',(14.0000000000004,2.9999999999999,22.));
#656=CARTESIAN_POINT('Origin',(14.0000000000004,2.9999999999999,22.));
#657=CARTESIAN_POINT('',(12.7000000000004,1.90455488498957,22.));
#658=CARTESIAN_POINT('',(12.7000000000004,4.09544511501023,22.));
#659=CARTESIAN_POINT('',(12.7000000000004,1.90455488498957,22.));
#660=CARTESIAN_POINT('Origin',(14.0000000000004,2.9999999999999,22.));
#661=CARTESIAN_POINT('Origin',(14.0000000000004,2.9999999999999,22.8));
#662=CARTESIAN_POINT('',(7.20000000000044,2.9999999999999,22.8));
#663=CARTESIAN_POINT('Origin',(14.0000000000004,2.9999999999999,22.8));
#664=CARTESIAN_POINT('Origin',(14.0000000000004,2.9999999999999,22.));
#665=CARTESIAN_POINT('',(20.0000000000004,2.9999999999999,-3.));
#666=CARTESIAN_POINT('Origin',(14.0000000000004,2.9999999999999,-3.));
#667=CARTESIAN_POINT('',(20.0000000000004,2.9999999999999,22.));
#668=CARTESIAN_POINT('Origin',(14.0000000000004,2.9999999999999,22.));
#669=CARTESIAN_POINT('',(7.20000000000044,2.9999999999999,-3.));
#670=CARTESIAN_POINT('Origin',(14.0000000000004,2.9999999999999,-3.));
#671=CARTESIAN_POINT('',(7.20000000000044,2.9999999999999,22.));
#672=CARTESIAN_POINT('',(7.20000000000044,2.9999999999999,22.));
#673=CARTESIAN_POINT('Origin',(14.0000000000004,2.9999999999999,-3.));
#674=CARTESIAN_POINT('Origin',(14.0000000000004,2.9999999999999,13.));
#675=CARTESIAN_POINT('',(17.0000000000004,2.9999999999999,13.));
#676=CARTESIAN_POINT('Origin',(14.0000000000004,2.9999999999999,13.));
#677=CARTESIAN_POINT('',(17.0000000000004,2.9999999999999,11.));
#678=CARTESIAN_POINT('',(17.0000000000004,2.9999999999999,13.));
#679=CARTESIAN_POINT('Origin',(14.0000000000004,2.9999999999999,11.));
#680=CARTESIAN_POINT('Origin',(14.0000000000004,2.9999999999999,13.));
#681=CARTESIAN_POINT('',(10.0000000000004,2.9999999999999,13.));
#682=CARTESIAN_POINT('Origin',(14.0000000000004,2.9999999999999,13.));
#683=CARTESIAN_POINT('Origin',(14.0000000000004,2.9999999999999,11.));
#684=CARTESIAN_POINT('',(10.0000000000004,2.9999999999999,11.));
#685=CARTESIAN_POINT('Origin',(14.0000000000004,2.9999999999999,11.));
#686=CARTESIAN_POINT('Origin',(14.0000000000004,2.9999999999999,0.499999999999999));
#687=CARTESIAN_POINT('',(9.99974778054193,3.00144076439049,4.66818978959881));
#688=CARTESIAN_POINT('',(10.0000000000004,2.9999999999999,0.499999999999999));
#689=CARTESIAN_POINT('',(9.99988026849128,3.0007733917464,1.33215875376398));
#690=CARTESIAN_POINT('Ctrl Pts',(9.99985295709972,3.00094980650109,1.33202851601438));
#691=CARTESIAN_POINT('Ctrl Pts',(9.99984352547636,2.84317792317177,1.3227802171566));
#692=CARTESIAN_POINT('Ctrl Pts',(10.024116057175,2.4372135114308,1.35905429446731));
#693=CARTESIAN_POINT('Ctrl Pts',(10.1190553932413,2.00650198994369,1.56714415613417));
#694=CARTESIAN_POINT('Ctrl Pts',(10.2027737647027,1.74059020340816,1.80613611435774));
#695=CARTESIAN_POINT('Ctrl Pts',(10.2574961905018,1.58251815007315,1.97817703107857));
#696=CARTESIAN_POINT('Ctrl Pts',(10.3578072142785,1.33901684020989,2.37163931615913));
#697=CARTESIAN_POINT('Ctrl Pts',(10.4287365553277,1.20021396702429,2.99805023842349));
#698=CARTESIAN_POINT('Ctrl Pts',(10.3565469983807,1.34039787807558,3.63227031701562));
#699=CARTESIAN_POINT('Ctrl Pts',(10.2346374542569,1.63951998106736,4.11100367681115));
#700=CARTESIAN_POINT('Ctrl Pts',(10.1195260613133,1.9884467575081,4.43132056363958));
#701=CARTESIAN_POINT('Ctrl Pts',(10.019744362923,2.49837173744291,4.64806037030293));
#702=CARTESIAN_POINT('Ctrl Pts',(9.99952535893899,2.84410311225994,4.67810324774727));
#703=CARTESIAN_POINT('Ctrl Pts',(9.99963515428919,3.00208412432537,4.66860038282188));
#704=CARTESIAN_POINT('',(10.0000000000004,2.9999999999999,0.499999999999999));
#705=CARTESIAN_POINT('',(10.0000000000004,2.9999999999999,0.499999999999999));
#706=CARTESIAN_POINT('Origin',(14.0000000000004,2.9999999999999,0.499999999999999));
#707=CARTESIAN_POINT('',(10.3157876513989,4.55774817297641,3.));
#708=CARTESIAN_POINT('Ctrl Pts',(10.3157876513989,4.55774817297641,3.));
#709=CARTESIAN_POINT('Ctrl Pts',(10.3157876513989,4.55774817297641,2.75586598810831));
#710=CARTESIAN_POINT('Ctrl Pts',(10.2698371850994,4.45775235636453,2.29602575363325));
#711=CARTESIAN_POINT('Ctrl Pts',(10.1701554539175,4.16543439573068,1.89210305701812));
#712=CARTESIAN_POINT('Ctrl Pts',(10.076864243365,3.81507062745567,1.57063933278136));
#713=CARTESIAN_POINT('Ctrl Pts',(10.0113793046473,3.42763530843873,1.3854745071539));
#714=CARTESIAN_POINT('Ctrl Pts',(9.99985832204033,3.09069435558524,1.33728917712378));
#715=CARTESIAN_POINT('Ctrl Pts',(9.99985295709972,3.00094980650109,1.33202851601438));
#716=CARTESIAN_POINT('Ctrl Pts',(9.99963515428919,3.00208412432537,4.66860038282188));
#717=CARTESIAN_POINT('Ctrl Pts',(9.99969760782852,3.09194652136009,4.66319498498496));
#718=CARTESIAN_POINT('Ctrl Pts',(10.011360786914,3.42860891215445,4.6145436550163));
#719=CARTESIAN_POINT('Ctrl Pts',(10.1060321583295,3.98766672063987,4.34575773701824));
#720=CARTESIAN_POINT('Ctrl Pts',(10.2620144996781,4.42934538372158,3.7710247603177));
#721=CARTESIAN_POINT('Ctrl Pts',(10.3157876513989,4.55774817297641,3.24413401189168));
#722=CARTESIAN_POINT('Ctrl Pts',(10.3157876513989,4.55774817297641,3.));
#723=CARTESIAN_POINT('Ctrl Pts',(10.3157876513989,4.55774817297641,3.));
#724=CARTESIAN_POINT('Ctrl Pts',(10.3157876513989,4.55774817297641,3.24413401189168));
#725=CARTESIAN_POINT('Ctrl Pts',(10.2620144996781,4.42934538372158,3.7710247603177));
#726=CARTESIAN_POINT('Ctrl Pts',(10.1060321583295,3.98766672063987,4.34575773701824));
#727=CARTESIAN_POINT('Ctrl Pts',(9.98581847777807,3.27777527411062,4.68706201939875));
#728=CARTESIAN_POINT('Ctrl Pts',(10.0028180992614,2.58487181508467,4.68482658267173));
#729=CARTESIAN_POINT('Ctrl Pts',(10.1195260613133,1.9884467575081,4.43132056363958));
#730=CARTESIAN_POINT('Ctrl Pts',(10.2346374542569,1.63951998106736,4.11100367681115));
#731=CARTESIAN_POINT('Ctrl Pts',(10.3565469983807,1.34039787807558,3.63227031701562));
#732=CARTESIAN_POINT('Ctrl Pts',(10.4287365553277,1.20021396702429,2.99805023842349));
#733=CARTESIAN_POINT('Ctrl Pts',(10.3578072142785,1.33901684020989,2.37163931615913));
#734=CARTESIAN_POINT('Ctrl Pts',(10.2574961905018,1.58251815007315,1.97817703107857));
#735=CARTESIAN_POINT('Ctrl Pts',(10.2027737647027,1.74059020340816,1.80613611435774));
#736=CARTESIAN_POINT('Ctrl Pts',(10.1190553932413,2.00650198994369,1.56714415613417));
#737=CARTESIAN_POINT('Ctrl Pts',(10.0052532449253,2.52278847856492,1.31771042000674));
#738=CARTESIAN_POINT('Ctrl Pts',(9.98549445273597,3.27449008062986,1.31228265289843));
#739=CARTESIAN_POINT('Ctrl Pts',(10.076864243365,3.81507062745567,1.57063933278136));
#740=CARTESIAN_POINT('Ctrl Pts',(10.1701554539175,4.16543439573068,1.89210305701812));
#741=CARTESIAN_POINT('Ctrl Pts',(10.2698371850994,4.45775235636453,2.29602575363325));
#742=CARTESIAN_POINT('Ctrl Pts',(10.3157876513989,4.55774817297641,2.75586598810831));
#743=CARTESIAN_POINT('Ctrl Pts',(10.3157876513989,4.55774817297641,3.));
#744=CARTESIAN_POINT('Ctrl Pts',(10.3690823236474,4.48001707698079,3.));
#745=CARTESIAN_POINT('Ctrl Pts',(10.3690823236474,4.48001707698079,3.23558072425344));
#746=CARTESIAN_POINT('Ctrl Pts',(10.3195016051748,4.35269564297798,3.74361354974687));
#747=CARTESIAN_POINT('Ctrl Pts',(10.1773061863073,3.92209137878668,4.28741000710996));
#748=CARTESIAN_POINT('Ctrl Pts',(10.0703712771358,3.25296142827204,4.6020591182962));
#749=CARTESIAN_POINT('Ctrl Pts',(10.086172737892,2.60985548348653,4.60076559513496));
#750=CARTESIAN_POINT('Ctrl Pts',(10.1914541107353,2.04705326052789,4.36796374973784));
#751=CARTESIAN_POINT('Ctrl Pts',(10.2966555925721,1.71034722430656,4.0673498594194));
#752=CARTESIAN_POINT('Ctrl Pts',(10.4089932709454,1.41687160670955,3.61118116628615));
#753=CARTESIAN_POINT('Ctrl Pts',(10.4760777319463,1.2761394812213,2.99816810363662));
#754=CARTESIAN_POINT('Ctrl Pts',(10.4101714381623,1.41539777186197,2.39251765416191));
#755=CARTESIAN_POINT('Ctrl Pts',(10.3177089061509,1.65447550536485,2.01762675524716));
#756=CARTESIAN_POINT('Ctrl Pts',(10.2675820382884,1.80760742995528,1.85517254112158));
#757=CARTESIAN_POINT('Ctrl Pts',(10.1910779851113,2.06370331771932,1.63069224027735));
#758=CARTESIAN_POINT('Ctrl Pts',(10.0884015427627,2.55222935345283,1.40150770425105));
#759=CARTESIAN_POINT('Ctrl Pts',(10.0701052286927,3.24987473466136,1.39736975576882));
#760=CARTESIAN_POINT('Ctrl Pts',(10.1513764342582,3.75939380167215,1.63553900240458));
#761=CARTESIAN_POINT('Ctrl Pts',(10.2357693944826,4.09557655748081,1.93766852101593));
#762=CARTESIAN_POINT('Ctrl Pts',(10.3266682806408,4.38009330911687,2.32094098676856));
#763=CARTESIAN_POINT('Ctrl Pts',(10.3690823236474,4.4800170769808,2.76441927574656));
#764=CARTESIAN_POINT('Ctrl Pts',(10.3690823236474,4.4800170769808,3.));
#765=CARTESIAN_POINT('Ctrl Pts',(10.422376995896,4.40228598098518,3.));
#766=CARTESIAN_POINT('Ctrl Pts',(10.422376995896,4.40228598098518,3.22702743661519));
#767=CARTESIAN_POINT('Ctrl Pts',(10.3769887106716,4.27604590223439,3.71620233917604));
#768=CARTESIAN_POINT('Ctrl Pts',(10.2485802142851,3.8565160369335,4.22906227720168));
#769=CARTESIAN_POINT('Ctrl Pts',(10.1549240764936,3.22814758243345,4.51705621719366));
#770=CARTESIAN_POINT('Ctrl Pts',(10.1695273765227,2.63483915188839,4.51670460759819));
#771=CARTESIAN_POINT('Ctrl Pts',(10.2633821601572,2.10565976354768,4.30460693583611));
#772=CARTESIAN_POINT('Ctrl Pts',(10.3586737308874,1.78117446754576,4.02369604202765));
#773=CARTESIAN_POINT('Ctrl Pts',(10.4614395435102,1.49334533534351,3.59009201555667));
#774=CARTESIAN_POINT('Ctrl Pts',(10.5234189085648,1.35206499541831,2.99828596884974));
#775=CARTESIAN_POINT('Ctrl Pts',(10.4625356620461,1.49177870351406,2.41339599216468));
#776=CARTESIAN_POINT('Ctrl Pts',(10.3779216217999,1.72643286065654,2.05707647941574));
#777=CARTESIAN_POINT('Ctrl Pts',(10.3323903118741,1.87462465650241,1.90420896788543));
#778=CARTESIAN_POINT('Ctrl Pts',(10.2631005769814,2.12090464549495,1.69424032442052));
#779=CARTESIAN_POINT('Ctrl Pts',(10.1715498406002,2.58167022834074,1.48530498849535));
#780=CARTESIAN_POINT('Ctrl Pts',(10.1547160046493,3.22525938869286,1.48245685863922));
#781=CARTESIAN_POINT('Ctrl Pts',(10.2258886251514,3.70371697588864,1.70043867202779));
#782=CARTESIAN_POINT('Ctrl Pts',(10.3013833350478,4.02571871923093,1.98323398501372));
#783=CARTESIAN_POINT('Ctrl Pts',(10.3834993761822,4.30243426186921,2.34585621990388));
#784=CARTESIAN_POINT('Ctrl Pts',(10.422376995896,4.40228598098518,2.7729725633848));
#785=CARTESIAN_POINT('Ctrl Pts',(10.422376995896,4.40228598098518,3.));
#786=CARTESIAN_POINT('Ctrl Pts',(10.4756716681446,4.32455488498957,3.));
#787=CARTESIAN_POINT('Ctrl Pts',(10.4756716681446,4.32455488498957,3.21847414897694));
#788=CARTESIAN_POINT('Ctrl Pts',(10.4344758161684,4.1993961614908,3.68879112860522));
#789=CARTESIAN_POINT('Ctrl Pts',(10.3198542422629,3.79094069508031,4.17071454729339));
#790=CARTESIAN_POINT('Ctrl Pts',(10.2394768758513,3.20333373659487,4.43205331609112));
#791=CARTESIAN_POINT('Ctrl Pts',(10.2528820151533,2.65982282029025,4.43264362006143));
#792=CARTESIAN_POINT('Ctrl Pts',(10.3353102095792,2.16426626656748,4.24125012193438));
#793=CARTESIAN_POINT('Ctrl Pts',(10.4206918692026,1.85200171078497,3.9800422246359));
#794=CARTESIAN_POINT('Ctrl Pts',(10.5138858160749,1.56981906397748,3.5690028648272));
#795=CARTESIAN_POINT('Ctrl Pts',(10.5707600851834,1.42799050961531,2.99840383406287));
#796=CARTESIAN_POINT('Ctrl Pts',(10.5148998859299,1.56815963516614,2.43427433016746));
#797=CARTESIAN_POINT('Ctrl Pts',(10.438134337449,1.79839021594824,2.09652620358432));
#798=CARTESIAN_POINT('Ctrl Pts',(10.3971985854598,1.94164188304954,1.95324539464927));
#799=CARTESIAN_POINT('Ctrl Pts',(10.3351231688514,2.17810597327058,1.7577884085637));
#800=CARTESIAN_POINT('Ctrl Pts',(10.2546981384376,2.61111110322865,1.56910227273966));
#801=CARTESIAN_POINT('Ctrl Pts',(10.239326780606,3.20064404272435,1.56754396150961));
#802=CARTESIAN_POINT('Ctrl Pts',(10.3004008160446,3.64804015010513,1.765338341651));
#803=CARTESIAN_POINT('Ctrl Pts',(10.3669972756129,3.95586088098106,2.02879944901152));
#804=CARTESIAN_POINT('Ctrl Pts',(10.4403304717237,4.22477521462156,2.37077145303919));
#805=CARTESIAN_POINT('Ctrl Pts',(10.4756716681446,4.32455488498957,2.78152585102305));
#806=CARTESIAN_POINT('Ctrl Pts',(10.4756716681446,4.32455488498957,3.));
#807=CARTESIAN_POINT('',(10.4756716681446,4.32455488498957,3.));
#808=CARTESIAN_POINT('',(10.3157876513989,4.55774817297641,3.));
#809=CARTESIAN_POINT('',(10.2508242974789,2.90476161529063,4.42146009421812));
#810=CARTESIAN_POINT('Ctrl Pts',(10.4756716681446,4.32455488498957,3.));
#811=CARTESIAN_POINT('Ctrl Pts',(10.4756716681446,4.32455488498957,3.21847414897694));
#812=CARTESIAN_POINT('Ctrl Pts',(10.4344758161684,4.1993961614908,3.68879112860522));
#813=CARTESIAN_POINT('Ctrl Pts',(10.3198542422629,3.79094069508031,4.17071454729339));
#814=CARTESIAN_POINT('Ctrl Pts',(10.252784506272,3.30062052994547,4.3887849197126));
#815=CARTESIAN_POINT('Ctrl Pts',(10.2482899068678,3.00416778962995,4.42155031087989));
#816=CARTESIAN_POINT('Ctrl Pts',(10.2508242974789,2.90476161529063,4.42146009421812));
#817=CARTESIAN_POINT('Ctrl Pts',(10.2508242974789,2.90476161529063,4.42146009421812));
#818=CARTESIAN_POINT('Ctrl Pts',(10.2533253854403,2.80666166777534,4.42137106303024));
#819=CARTESIAN_POINT('Ctrl Pts',(10.2694766834879,2.56005602681208,4.39411176036295));
#820=CARTESIAN_POINT('Ctrl Pts',(10.3353102095792,2.16426626656748,4.24125012193438));
#821=CARTESIAN_POINT('Ctrl Pts',(10.4206918692026,1.85200171078497,3.9800422246359));
#822=CARTESIAN_POINT('Ctrl Pts',(10.5138858160749,1.56981906397748,3.5690028648272));
#823=CARTESIAN_POINT('Ctrl Pts',(10.5707600851834,1.42799050961531,2.99840383406287));
#824=CARTESIAN_POINT('Ctrl Pts',(10.5148998859299,1.56815963516614,2.43427433016746));
#825=CARTESIAN_POINT('Ctrl Pts',(10.438134337449,1.79839021594824,2.09652620358432));
#826=CARTESIAN_POINT('Ctrl Pts',(10.3971985854598,1.94164188304954,1.95324539464927));
#827=CARTESIAN_POINT('Ctrl Pts',(10.3351231688514,2.17810597327058,1.7577884085637));
#828=CARTESIAN_POINT('Ctrl Pts',(10.2546981384376,2.61111110322865,1.56910227273966));
#829=CARTESIAN_POINT('Ctrl Pts',(10.239326780606,3.20064404272435,1.56754396150961));
#830=CARTESIAN_POINT('Ctrl Pts',(10.3004008160446,3.64804015010513,1.765338341651));
#831=CARTESIAN_POINT('Ctrl Pts',(10.3669972756129,3.95586088098106,2.02879944901152));
#832=CARTESIAN_POINT('Ctrl Pts',(10.4403304717237,4.22477521462156,2.37077145303919));
#833=CARTESIAN_POINT('Ctrl Pts',(10.4756716681446,4.32455488498957,2.78152585102305));
#834=CARTESIAN_POINT('Ctrl Pts',(10.4756716681446,4.32455488498957,3.));
#835=CARTESIAN_POINT('Origin',(9.70000000000044,2.90455488498957,3.));
#836=CARTESIAN_POINT('',(12.7000000000004,2.90455488498957,4.42));
#837=CARTESIAN_POINT('',(9.70000000000044,2.90455488498957,4.42));
#838=CARTESIAN_POINT('',(12.7000000000004,1.90455488498957,4.00816665289028));
#839=CARTESIAN_POINT('Origin',(12.7000000000004,2.90455488498957,3.));
#840=CARTESIAN_POINT('',(12.7000000000004,1.90455488498957,1.99183334710971));
#841=CARTESIAN_POINT('Origin',(12.7000000000004,2.90455488498957,3.));
#842=CARTESIAN_POINT('',(12.7000000000004,4.09544511501023,2.22657873054761));
#843=CARTESIAN_POINT('Origin',(12.7000000000004,2.90455488498957,3.));
#844=CARTESIAN_POINT('',(12.7000000000004,4.09544511501023,3.77342126945238));
#845=CARTESIAN_POINT('Origin',(12.7000000000004,2.90455488498957,3.));
#846=CARTESIAN_POINT('Origin',(12.7000000000004,2.90455488498957,3.));
#847=CARTESIAN_POINT('Origin',(14.0000000000004,2.9999999999999,0.499999999999999));
#848=CARTESIAN_POINT('',(10.0000000000004,2.9999999999999,16.));
#849=CARTESIAN_POINT('Origin',(14.0000000000004,2.9999999999999,16.));
#850=CARTESIAN_POINT('',(10.0000000000004,2.9999999999999,0.499999999999999));
#851=CARTESIAN_POINT('Origin',(12.7000000000004,2.90455488498957,3.));
#852=CARTESIAN_POINT('',(12.7000000000004,1.90455488498957,0.499999999999999));
#853=CARTESIAN_POINT('Origin',(12.7000000000004,2.90455488498957,3.));
#854=CARTESIAN_POINT('',(12.7000000000004,4.09544511501023,0.499999999999999));
#855=CARTESIAN_POINT('Origin',(12.7000000000004,1.90455488498957,0.499999999999999));
#856=CARTESIAN_POINT('',(12.7000000000004,4.09544511501023,0.499999999999999));
#857=CARTESIAN_POINT('',(12.7000000000004,1.90455488498957,0.499999999999999));
#858=CARTESIAN_POINT('Origin',(12.7000000000004,1.90455488498957,0.499999999999999));
#859=CARTESIAN_POINT('',(12.7000000000004,1.90455488498957,0.499999999999999));
#860=CARTESIAN_POINT('',(12.7000000000004,1.90455488498957,0.499999999999999));
#861=CARTESIAN_POINT('',(12.7000000000004,4.09544511501023,0.499999999999999));
#862=CARTESIAN_POINT('',(12.7000000000004,1.90455488498957,0.499999999999999));
#863=CARTESIAN_POINT('',(12.7000000000004,4.09544511501023,0.499999999999999));
#864=CARTESIAN_POINT('Origin',(14.0000000000004,2.9999999999999,18.));
#865=CARTESIAN_POINT('',(17.0000000000004,2.9999999999999,18.));
#866=CARTESIAN_POINT('Origin',(14.0000000000004,2.9999999999999,18.));
#867=CARTESIAN_POINT('',(17.0000000000004,2.9999999999999,16.));
#868=CARTESIAN_POINT('',(17.0000000000004,2.9999999999999,18.));
#869=CARTESIAN_POINT('Origin',(14.0000000000004,2.9999999999999,16.));
#870=CARTESIAN_POINT('Origin',(14.0000000000004,2.9999999999999,18.));
#871=CARTESIAN_POINT('',(10.0000000000004,2.9999999999999,18.));
#872=CARTESIAN_POINT('Origin',(14.0000000000004,2.9999999999999,18.));
#873=CARTESIAN_POINT('Origin',(14.0000000000004,2.9999999999999,16.));
#874=CARTESIAN_POINT('Origin',(14.0000000000004,2.9999999999999,0.499999999999999));
#875=CARTESIAN_POINT('Origin',(14.0000000000004,2.9999999999999,0.499999999999999));
#876=CARTESIAN_POINT('Origin',(14.0000000000004,2.9999999999999,0.499999999999999));
#877=CARTESIAN_POINT('',(10.0000000000004,2.9999999999999,0.499999999999999));
#878=CARTESIAN_POINT('Origin',(14.0000000000004,2.9999999999999,0.499999999999999));
#879=CARTESIAN_POINT('',(0.,0.,22.));
#880=UNCERTAINTY_MEASURE_WITH_UNIT(LENGTH_MEASURE(0.01),#884,
'DISTANCE_ACCURACY_VALUE',
'Maximum model space distance between geometric entities at asserted c
onnectivities');
#881=UNCERTAINTY_MEASURE_WITH_UNIT(LENGTH_MEASURE(0.01),#884,
'DISTANCE_ACCURACY_VALUE',
'Maximum model space distance between geometric entities at asserted c
onnectivities');
#882=(
GEOMETRIC_REPRESENTATION_CONTEXT(3)
GLOBAL_UNCERTAINTY_ASSIGNED_CONTEXT((#880))
GLOBAL_UNIT_ASSIGNED_CONTEXT((#884,#886,#887))
REPRESENTATION_CONTEXT('','3D')
);
#883=(
GEOMETRIC_REPRESENTATION_CONTEXT(3)
GLOBAL_UNCERTAINTY_ASSIGNED_CONTEXT((#881))
GLOBAL_UNIT_ASSIGNED_CONTEXT((#884,#886,#887))
REPRESENTATION_CONTEXT('','3D')
);
#884=(
LENGTH_UNIT()
NAMED_UNIT(*)
SI_UNIT(.MILLI.,.METRE.)
);
#885=(
LENGTH_UNIT()
NAMED_UNIT(*)
SI_UNIT(.CENTI.,.METRE.)
);
#886=(
NAMED_UNIT(*)
PLANE_ANGLE_UNIT()
SI_UNIT($,.RADIAN.)
);
#887=(
NAMED_UNIT(*)
SI_UNIT($,.STERADIAN.)
SOLID_ANGLE_UNIT()
);
#888=SHAPE_DEFINITION_REPRESENTATION(#889,#890);
#889=PRODUCT_DEFINITION_SHAPE('',$,#892);
#890=SHAPE_REPRESENTATION('',(#409),#882);
#891=PRODUCT_DEFINITION_CONTEXT('part definition',#896,'design');
#892=PRODUCT_DEFINITION('rim-v1','rim-v1',#893,#891);
#893=PRODUCT_DEFINITION_FORMATION('',$,#898);
#894=PRODUCT_RELATED_PRODUCT_CATEGORY('rim-v1','rim-v1',(#898));
#895=APPLICATION_PROTOCOL_DEFINITION('international standard',
'automotive_design',2009,#896);
#896=APPLICATION_CONTEXT(
'Core Data for Automotive Mechanical Design Process');
#897=PRODUCT_CONTEXT('part definition',#896,'mechanical');
#898=PRODUCT('rim-v1','rim-v1',$,(#897));
#899=PRESENTATION_STYLE_ASSIGNMENT((#901));
#900=PRESENTATION_STYLE_ASSIGNMENT((#902));
#901=SURFACE_STYLE_USAGE(.BOTH.,#905);
#902=SURFACE_STYLE_USAGE(.BOTH.,#906);
#903=SURFACE_STYLE_RENDERING_WITH_PROPERTIES($,#913,(#904));
#904=SURFACE_STYLE_TRANSPARENT(0.);
#905=SURFACE_SIDE_STYLE('',(#907,#903));
#906=SURFACE_SIDE_STYLE('',(#908));
#907=SURFACE_STYLE_FILL_AREA(#909);
#908=SURFACE_STYLE_FILL_AREA(#910);
#909=FILL_AREA_STYLE('',(#911));
#910=FILL_AREA_STYLE('',(#912));
#911=FILL_AREA_STYLE_COLOUR('',#913);
#912=FILL_AREA_STYLE_COLOUR('',#914);
#913=COLOUR_RGB('',0.749019607843137,0.749019607843137,0.749019607843137);
#914=COLOUR_RGB('',0.913725490196078,0.913725490196078,0.);
ENDSEC;
END-ISO-10303-21;
